<?xml version="1.0" encoding="utf-8"?>
<!-- Generator: Adobe Illustrator 16.0.0, SVG Export Plug-In . SVG Version: 6.00 Build 0)  -->
<!DOCTYPE svg PUBLIC "-//W3C//DTD SVG 1.1//EN" "http://www.w3.org/Graphics/SVG/1.1/DTD/svg11.dtd">
<svg version="1.1" id="Layer_1" xmlns="http://www.w3.org/2000/svg" xmlns:xlink="http://www.w3.org/1999/xlink" x="0px" y="0px"
	 width="938px" height="494px" viewBox="0 0 938 494" enable-background="new 0 0 938 494" xml:space="preserve">
<g>
	<rect fill-rule="evenodd" clip-rule="evenodd" fill="#3C3B6E" width="337" height="190"/>
	<polygon fill="#B12234" points="900,0 413,0 375,0 375,38 413,38 900,38 900,76 413,76 375,76 375,114 375,152 375,190 413,190 
		900,190 900,228 39,228 1,228 1,266 1,304 1,342 39,342 900,342 900,380 39,380 1,380 1,418 1,456 1,494 39,494 900,494 938,494 
		938,456 900,456 39,456 39,418 900,418 938,418 938,380 938,342 938,304 900,304 39,304 39,266 900,266 938,266 938,228 938,190 
		938,152 900,152 413,152 413,114 900,114 938,114 938,76 938,38 938,0 	"/>
</g>
</svg>
