<?xml version="1.0" encoding="utf-8"?>
<!-- Generator: Adobe Illustrator 16.0.0, SVG Export Plug-In . SVG Version: 6.00 Build 0)  -->
<!DOCTYPE svg PUBLIC "-//W3C//DTD SVG 1.1//EN" "http://www.w3.org/Graphics/SVG/1.1/DTD/svg11.dtd">
<svg version="1.1" id="Layer_1" xmlns="http://www.w3.org/2000/svg" xmlns:xlink="http://www.w3.org/1999/xlink" x="0px" y="0px"
	 width="938px" height="494px" viewBox="0 0 938 494" enable-background="new 0 0 938 494" xml:space="preserve">
<g>
	<rect fill="#3C3B6E" width="337" height="190"/>
	<polygon fill="#B12234" points="900,0 413,0 375,0 375,38 413,38 900,38 900,76 413,76 375,76 375,114 375,152 375,190 413,190 
		900,190 900,228 39,228 1,228 1,266 1,304 1,342 39,342 900,342 900,380 39,380 1,380 1,418 1,456 1,494 39,494 900,494 
		927.625,494 927.625,456 900,456 39,456 39,418 900,418 938,418 938,380 938,342 938,304 900,304 39,304 39,266 900,266 938,266 
		938,228 938,190 938,152 900,152 413,152 413,114 900,114 938,114 938,76 938,38 938,0 	"/>
	<g>
		<path fill="#B12234" d="M937.048,455.353v2.774l-6.182,1.934l6.182,1.908v2.694l-8.59-3.189v-2.877L937.048,455.353z"/>
		<path fill="#B12234" d="M932.747,466.036c1.402,0,2.494,0.391,3.275,1.172s1.172,1.869,1.172,3.264
			c0,1.43-0.384,2.531-1.151,3.305s-1.843,1.16-3.226,1.16c-1.004,0-1.827-0.169-2.47-0.507s-1.143-0.826-1.5-1.465
			s-0.536-1.435-0.536-2.388c0-0.969,0.154-1.771,0.463-2.405s0.797-1.149,1.465-1.544S931.743,466.036,932.747,466.036z
			 M932.735,468.69c-0.867,0-1.49,0.161-1.869,0.483s-0.568,0.761-0.568,1.315c0,0.57,0.186,1.012,0.557,1.324
			s1.037,0.469,1.998,0.469c0.809,0,1.399-0.163,1.772-0.489s0.56-0.769,0.56-1.327c0-0.535-0.189-0.965-0.568-1.289
			S933.61,468.69,932.735,468.69z"/>
		<path fill="#B12234" d="M937.048,476.603v8.068h-2.121v-2.707h-6.469v-2.654h6.469v-2.707H937.048z"/>
		<path fill="#B12234" d="M937.048,486.706v7.113h-1.834v-4.453h-1.365v4.131h-1.752v-4.131h-1.693v4.582h-1.945v-7.242H937.048z"/>
	</g>
</g>
</svg>
