<?xml version="1.0" encoding="utf-8"?>
<!-- Generator: Adobe Illustrator 15.1.0, SVG Export Plug-In . SVG Version: 6.00 Build 0)  -->
<!DOCTYPE svg PUBLIC "-//W3C//DTD SVG 1.1//EN" "http://www.w3.org/Graphics/SVG/1.1/DTD/svg11.dtd">
<svg version="1.1"
	 id="Layer_1" xmlns:dc="http://purl.org/dc/elements/1.1/" xmlns:cc="http://creativecommons.org/ns#" xmlns:rdf="http://www.w3.org/1999/02/22-rdf-syntax-ns#"
	 xmlns="http://www.w3.org/2000/svg" xmlns:xlink="http://www.w3.org/1999/xlink" x="0px" y="0px" width="1162px" height="1134px"
	 viewBox="0 0 1162 1134" enable-background="new 0 0 1162 1134" xml:space="preserve">
<path id="white_background" fill="none" stroke="#000000" stroke-miterlimit="10" d="M1147.406,553.531l-0.219-0.969l-3.375-1.125
	l-0.906-1.719l-1.312-1.75l0.594-1.688l0.781-2.375l1.781-1.875l-1.844-0.062l-1.156-2.844l-2-2.188l1.031-2.219l-2.531-1.438
	l-2.438-1.594l0.375-1.781l1.875-1.156l0.812-1.875l-2.281-0.406l-1.719-0.625l-2.438-0.344l-1.031-1.656l-1.688-1.25l0.031-1.719
	l-1.531-2.156l-0.188-1.625l1.812-1.594l0.094-1.844l-0.438-1.812l0.75-1.625l0.812-1.688l-0.781-2.906l-1.094-2l-1.062-1.688
	l1-1.781l-0.906-1.906l-1.562-1.844l-1.531-1.781l-0.156-1.781l-0.844-1.688l0.062-1.719l-1.781-0.625l-0.938-1.906l-1.75-0.125
	l-0.469-1.656l-1.625-0.812l-1.875-1l-1.625-2.906l-0.969-2.062l-1.438-1.781l-1.719-0.938l-0.031-2.688l-1.219-162.312
	l-1.188-2.156l-1.656,0.625l-2.094,0.875l-1.625,1.5l-0.5-1.906l-1.75-0.531l-1.719-1.594l-1.781,1.031l-1.75,0.5l1.969,0.312
	l0.156,1.781l-1.875-0.688l-1.625,1.188l-1.656-0.562l0.562-1.719l0.375-1.688l-1.781,0.906l-1.031,2.062l-1.656,0.156l0.844-1.938
	l-1.75,0.562l-0.969,2.344l-1.844-0.5l-1.719-0.531l-0.781,1.688l-1.781,0.062l-1.75-1.625l0.719-1.625l-1.75,0.562l-1.469-2.281
	l-1.844-0.75l-1.625-0.969l0.781-1.812l1.031-1.938l-1.719,0.562l-2.062,1.312l-1.75,0.188l-2.031,0.219l1.406-1.719l-1.688-0.094
	l-2.688,0.125l0.719-2.094l-2.375,0.719l2.281-1.938l-1.719,0.219l-1.094-1.875l0.094,1.812l-1.75-0.312l-1.688-0.375l-1.594,1.156
	l-1.75-0.969l2.094-0.188l0.625-2.406l-1.844,0.438l-2.25,0.812l-2.969-0.438l1.094-1.875l-2.438-0.531l1.562,1.75l-1.75,0.344
	l-1.594-1.812l0.531-1.75l-1.844-0.188l-1.75-0.906l0.438-0.844l-2.5,0.875l-0.031-1.656l-1.625-0.75l0.25,1.812l-1.875,0.156
	l-2.25-1.031l0.781-1.75l-1.75,0.062l-1.625-0.844l-1.531-1.812l0.625-1.906l-1.062-2.031l0.281,2l-2.156,0.031l0.344-2.312
	l-1.812-0.719l-0.719-2.625l-1.75,1l-2.031-0.562l-2.938-0.656l-0.5-1.875l-0.469-2.125l-1.656-0.344l-0.312,2.656l-1.594-1.656
	l0.938-1.938l-1.812,0.906l-1.875-1.125l0.906-1.625l-1.594-0.344l-2.844-1.281l-3-1.25l-2.406,0.938l-1.562,1.625l0.188,2.906
	l-1.188,2l-1.719-2.188l0.312,1.938l-1.438,1.844l-1.75-0.938l-2.062,0.75l-2.188,0.812l-1.875-0.188l-1.875,0.438l-2-0.625
	l-2.281-0.031l-1-1.688l-1.625,1.062l-2-0.125l-0.281-2.094l-2.031,1.719l-1.656-0.875l0.188-2.312l-0.75-1.969l-1.719-0.281
	l-1.781-1l-1.688,1.562l-1.438,2.406l-1.969-0.531l-2.125,1.625l-1.875,0.906l-1.719-0.531L960,275.125l-1.5,1.656l0.719,1.688
	l-0.344,1.656l-2.156-0.156L955,278.844l-1.688,0.906l-0.812,1.938l-1.625-0.75l-1.625-1l-2.469-1.719l-3.25-1.719l-1.406,2.625
	l-2.312,0.375L938,278.812l-1.406,1.875l-1.719-1.188l-1.625,2l-2.094-0.688l-2.531-0.281l0.188,1.594l-2.5-1l-1.906,0.312
	l-0.875,1.938l-1.75,0.906l1.688-0.156l-0.25,2.656l-1.375,2.75l-1.719,0.844l-2.75,0.469l-2.281-1.438l-2.062-0.938l-1.688,0.969
	l-0.75,1.844l-0.031,2.188l-0.5,1.781l-1.812,1.406l-2.031,0.594l-0.906-1.906l-0.812-1.625l-1.75-1.844l-1.594-2.062l-1.656-2.25
	l-1.625-0.156l-1.656,0.5l-2.781,0.312l-1.375-1.625l-0.125-1.969l-1.25-1.812l-1.656,0.5l-1.938,0.031l-1.75-1.25l-3.188-2.281
	l2.781-2.406l0.406-2.156l-3.125,0.125l-3.969-1.875l-0.906,2.969l-0.094,2.25l-1.75,2.938l-1.812,0.5l-1.844,0.469l-2.156-0.406
	l-0.594-1.969l-1.5-2.188l-1.625-0.375l-2.375,0.438l-0.156,1.625l-1.656,0.344l-2-1.938l-1.125-3l-0.062-1.781l-0.406-2.688
	l-2.031-2.156l-2.438,1.531L851.875,271l-1.938-1.344l-0.031,1.75l0.906,2.875V276l-1.094,1.844l-2.125,2.594l-2.188,0.75
	l-1.812-2.219l-1.812,2l3.125,0.906l0.312,1.625l-3.906,1.406l-0.156,1.719l0.844,2.781l-0.219,2.156l-1.75,2.125L837.688,294
	l-1.812-0.625l-1.656-1.562l-0.625-1.656l-0.656-1.625l-0.625-1.625l-0.938-1.719l0.844-3.094l2.562-1l-0.281-2.031L833.938,277
	l-0.906-2.375l-1.719-1.344l-1.812-0.031l-1.625,1.188l-0.344,2.406l-1.562,2.188l-1.844-1.094l-2.062-1.781l-0.281,2.312
	l-1.75,0.25L819.875,277l-0.312,1.938l-1.688,3.25l-2.438,1.094l-1.781,0.094h-1.781l-2.312-1.031l-0.75-2.219l0.875-2.281
	l0.062-1.656l-1.125-1.938l-3.219-1.531l-3,1.469l-2.875,0.438l-1.969-0.25l-0.688-1.719l0.188-1.812l0.469-1.719l-1.719-1.531
	l-2.188-1.406l-3.281-1.062l-1.938,0.812l-0.969,2.156l-1.5,2l-1.781,0.75l-1.875,0.688l-0.438,1.844h-1.625l0.469,2l-1.844,0.969
	l-1.688,1.719l-2.031,1.281l-1.781,0.75l-2.156-0.719l-1.875-1.125l-2.125-1.156l-2.031-0.062l-1.812-1.156l0.062-2.406l1.75-0.219
	l0.156-2.5l-1.656-0.5l1.531-1.656l0.344-3.344l-1.656-1.594l-1.688,0.688l-3.25,0.594l-2.438-0.281l-2.406-0.688l-0.594-1.781
	l-1.469-1.656l1.656-0.969l-2.406-1.938l-0.562-2l1.469-1.781l1.062-1.969l-0.969-1.938l-0.531-2l-2.438,1l-2.969,3.219
	l-3.406-0.719L740.906,250l-2.125,0.531l-2.094-0.125l-1.75-0.406l-2.219-1.75l-3.75-0.5l-1.656,1.812l-1,1.844l-1.031,3.031
	l-1.656,0.75l-1.812,1.281l-1.969,0.812l-2.031-0.469l-1.969-1.688l-1.719-2.25l-2.094-2.719l-2.094-1.938l-2.875-0.531
	l-3.438-0.188l-2.5,2.062l-1.688,0.312l-1.812,0.062l-2,1.031l-1.688-1.156l-2.688-0.688l-1.688-1.625l-1.938,0.188l-2.719,0.719
	l-1.688-1.969l-1.938-0.969l-1.656-1.594l-3.406-0.906l-1.25-1.688l-1.875,0.812l-1.969,0.562l-1.75,0.625l-1.656-0.906
	l-2.281-0.188l-1.688,0.531l-1.625,0.031l-0.344-1.719l-2.031,1.281l-3.188-0.75v-1.625L656,237.875l-0.031-1.781l-0.938-1.844
	l-0.219-1.625l0.344-2.125l-0.094-2.031l-1.781,0.062l-0.625-1.656l-1.812-2l-1.719-1.281l0.188-1.719l-1.969-1.531l0,0l-0.25,0.062
	 M1044.719,291.312l0.312-0.094l0.625-1.625L1044.719,291.312L1044.719,291.312z"/>
<path id="red-outline" fill="none" stroke="#000000" d="M1044.719,291.312l0.312-0.094l0.625-1.625L1044.719,291.312z"/>
<path id="redfill_2_" fill="none" stroke="#000000" stroke-miterlimit="10" d="M647.094,1018.094h0.188l2.344,2.344l0.562,2.906
	l1.75,2.875l0.219,4.5l2.719,2.219l-0.094,3.25l0.844,3.969l1.969,3.812l0.938,6.375l0.062,2.531l2.031,0.875l2.219,1.188
	l1.219,1.719l0.812,1.969l-0.219,1.938l-0.375,1.625l-1,1.625l1.219,1.625l1.562,2.188l2.406-0.5l2-1.219l2.5,2.031l2.594-0.812
	l1.719,0.719l-0.125,1.812l1.844,0.469l1-2.031l1.125,2.156l1.938,1.531l1.656-0.531l2.312,0.375l1.719-1.281l1.812,0.375
	l0.688,1.906l0.562,1.812l1.625,0.75l1.906-0.531l0.969,1.719l-0.344,2.062l2.062,0.625l1.688,0.781L698,1080.75l1.656,0.656
	l2,0.969l0.125,1.625l1.938,0.594l1.969-1.719l2.094-0.125l1.844-0.469l1.781,1.719l0.719,1.625l1.281-1.844l0.812,1.906
	l1.812-0.188l0.969,1.969l2.188,0.719l-0.219-1.844l1.781-0.719l1.844,0.719l-0.344,1.938l1.688,1l2,2.062l1.938,1.625l1.969-0.281
	l1.75,0.656l0.25,1.625l1.281,2.062l2,1.406l0.656-1.656l2.188,0.344l-1.812,1.594l1.719,1.125l1.594,2.062l3.156,0.312l1.812,1.656
	l1.781-1.875l1.125,1.844l1.656-0.125l1.844-1l2.219,0.625l1.719-0.156l-0.438,1.906l1.656-0.469l1.938,0.531l0.562-2.188
	l1.812,0.594l1.625-0.281l1.625,0.094l2.125-0.406l1.75-0.156l1.75,0.75l2.156-1.062l2.219-0.375l1.062,1.906l2.094-0.406
	l1.625-0.25l1.625,0.906l0.562,1.656l1.625-1.062l0.406,1.875l2.156-0.625l2.688-0.406l1.656,0.969l2.062-1.188l-0.5,1.969
	l2.406-0.531l-0.531,1.781l1.75,0.188l-0.656,1.656l1.688,1.25l1.875,1.781l1.719,0.812l-0.75,1.688l2.906,0.156l1.75,1.75
	l0.25,1.812l0.469,1.719l2.094-1.344l0.469,1.938l1.656,0.438l1.625-0.781l0.969,1.75l0.75,1.875l2.469-0.531l1.281,1.844
	l1.781-0.281l-0.219-1.75l1.469-1.688l-0.625-1.938l-0.781-1.656l1.719-1.375l1.938-0.688l1.625-0.594l1.656-0.188l1.719-0.219
	v-1.75l2.781,0.281l1.75-1.031l1.75,0.094l1.625-0.03l1.75-0.188l1.75,0.5l0.062-1.625l4.875-0.312l-0.25-7.312l0.406-2.438
	l-0.438-2.344l-1.219-1.719l-0.219-4.312l-0.594-5.562l-0.688-5.312l-2.75-13.406l-2.469-10.625l-2.594-10.656l-0.938-2.219
	l-2.375-6.781l-2.75-10.75l-1.562-7.5l-1.188-8.312l-0.594-7.531l-0.219-2.719v-4.312l0.312-6.219l0.531-6.312l0.375-2.812
	l1.125-5.719l0.719-2.875l2.781-10.344l0.594-1.781l4.438-11.406l3.062-7.188l3.5-7.625l6.625-11.594l3.625-3.875l2.156-1.781
	l2.188-7.562l1.844-2.75l2.625-3.469l2.969-3.781l2.719-3.219l8.625-8.375l9.312-8l3.906-2.906l5.75-4.031l9.281-5.031l2.656-1.156
	l1.781-1.188l2.688-3.719l0.594-1.938l1.531-1.969l2.344-0.562l2.375-2.094l0.781-2.094l2-1.438l4.688-3.219l9.375-5.062
	l6.656-3.406l11.031-5.344l8.562-4.5l2.438-1.375l19.062-11.812l3.531-1.594l6.5-4.281l1.656-0.031l2.062-0.438l2.156-0.812
	l2.75-1.75l1.062-1.75l1.688-2.188l3.344-2.219l2.25-1.875l1.844-1.719l2.25-2.344l4.844-5.719l1.719-1.25l1.531-3.5l0.219-2.156
	l7.594-3.812l3.219-2.188l4.562-3.625l6.344-4.125l5.938-3.5l2.781-2.969l2.438-2.406l1.844,0.562l2.312-0.406l2.094-2.031
	l1.594-3.688l-0.375-2.438l-1.906-2.594l2.219-1.562l11.062-5.781l7.062-3.312l4.312-1.75l21.594-10.094l8.062-3.094h11.25
	l2.719,0.375l1.5,1.719l1.906,0.875l1.938,0.031l-1.25-6.656l-0.781-3.219l-3.219-5.031l-1.719-1.812l-0.438-1.781l-2.469-1.906
	l-0.125-2.094l1.25-1.875l2.438-1.938l2.719-1.969l2.188-3.188l1.156-2.531l0.312-1.781l0.906-2.875l1.312-2.781l1.875-1.562
	l2.312-1.906l0.312-1.656l3.031-3.062l-1.844-1.719l0.75-1.906l1.281-2.375l0.688-2l-0.875-2.031l-0.656-1.969l-0.375-1.875
	l-0.531-1.906l0.812-1.688l0.219-1.75l0.094-1.75l0.281-1.719l-1.25-1.625l-1.938-1.156l-1.344-1.969l-0.281-1.75l0.75-1.844
	l-0.375-2l0.844-1.875l1.5-1.781l0.219-1.812l1.938-0.406l0.188-1.625l-0.938-2.125l0.219-1.719l-0.156-1.844l-0.594-1.812
	l-1.719-1.75l0.594-1.625l0.312-2.25l2.125-1.531l1.656-0.375l0.156-1.719l-0.156-1.781l0.188-1.688l1.094-1.781l1.656-1.25
	l1.781-0.844l0.969-1.719l0.344-1.938l0.656-1.875l0.062-1.719l0.688-1.656l1.531-1.75l0.75-2.406l0.938-1.688l0.906-1.875
	l-0.312-1.781l-0.625-1.75l-0.75-2l1.656-1.625l0.938-1.812l1.531-1.844l-0.406-1.812l-1.688-1.312l-1.719-0.969l-0.344-1.656
	l0.156-1.875l1.938-0.062l2.406-1.031l0.188-2.312l-0.094-1.625l-1.031-1.812l-1.719-0.469l-1-1.656l1.562-1.75l0.719-1.625
	l-0.719-1.781l0.688-2.125l0.156-0.438h-4.406l-0.25,0.188l-0.125-0.188l-1.531-1.594l0.406-2.969l0.625-1.969l-1.75-0.781
	l0.03-1.938l-0.188-0.719"/>
<path id="bluefill_1_" fill="none" stroke="#002868" stroke-miterlimit="10" d="M647.094,220.406l-1.969,0.625l-1.812-2.25
	l-1.656-2.719l-1.938-0.125l-1.062,2.656l0.312,1.938l-0.531,1.656l-1.625,2.125L634.688,225l-1.719-0.938l-1.406-1.625l-2.25-1.438
	l-1.75-0.562l-1.969,0.125l-1.844-0.438l-1.938,1.031l-0.031,1.719l-1.344,1.75l-2.125,0.125l-2.125-0.938l-2.031,0.5l-2.094-0.062
	l-1.75-1.719l-1.062-1.688l-2.406-1.125l-1.625-2.125l-1.844-1.344l-1.938-2.812l-1.531-2.062l-1.781-1.219l-1.375-1.688
	l-1.406-2.031l-1.656-1.219l-2.719-1.938l-1.719-0.188l-1.562,1.719L585.156,205V0.312h-43.594v-0.25h-42.438l-10.75,0.094L398.25,0
	l0,0l-81.031,0.031l0.094,52.875l-0.125,18.469l0.094,3.531l-0.188,70.438l0.062,11.719l-0.125,74.25l0.062,30.75l-1.875,107.812
	L315.25,475.5l-192.594,0.031l-77.062-0.25l-43.531,0.812L0.406,478l1.688,1.281l0.344,1.656l-0.781,1.812L2.75,484l-1.938,1.094
	L0,486.875l0.719,1.938L1.5,490.75l2.125,1.75l1.219,1.844l2.219,1.156l2.375,1.344l0.656,1.781l1.625,2.156l1.812,1.344L15.438,501
	L18,501.25l2.031,0.625l3.312,2.375l0.5,1.656l2,1.688l1.344,3.5l2.719,4.375l0.594,1.969l0.719,1.719l0.688,2.656l3,2.156
	l1.938,4.312l0.531,2.25L39,532.344l2.156,0.781L42.812,535L45,536.281l2.062,0.312L50,539.188l6.219,0.562l4.5,2.906l0.531,2.688
	l1.406,2.812l2.5,0.625l1.094,1.781l1.906,0.125l1.656,2.531l1.25,1.812l1.562,1.875l2.125,2.938l1.281,2.062l1.469,1.969
	l1.875-0.062l2.781,2.938l5.625,2.5l1.719,1.562l2.531,2.531l1.156,1.844l0.5,2.25l0.938,2.219l0.469,1.844l1.812,1.344l2,1.219
	l1.594,0.562l1.375,2.656l1.906,1.75l1.781,1.344l1.656,1.375l2.25,1.156l0.469,1.906l-0.594,1.75l1.938,0.438l1.75,0.5l2,1.312
	l1.688,0.594l0.812,1.75l1.719-1.312l1.188,1.75l1.656,1.344l1.969-0.875l1.719-0.344l0.75,2.062l1.812,0.188l0.844,1.75
	l1.656,0.125l0.5,1.625l1.969,0.125l1.656,0.719l0.656,1.812l1.406,1.75l1.688,0.656l0.719,1.719l1.688-0.156l1.75,0.781
	l1.688,0.062l1.375,2.406l0.219,1.625l0.312,2.188l1.812,1.188l1.719,0.844l1.625,0.438l1.219,1.719l1.062,2.125l0.719,1.625
	L155.25,631l0.75,1.875l0.469,1.75l-0.219,1.656l-0.031,2.062l0.812,2.062l0.312,1.625l-0.031,1.625l0.312,2.5l2.031,1.312
	l1.688,0.656l-1,1.719l1.312,1.812l1.688,1.219l0.812,1.688l1.594,0.562l0.281,2.031l0.656,2l2.344,0.969l1.594,1.938l0.312,2.312
	l0.562,1.844l0.719,2.031l0.031,1.75l-0.188,1.969l-0.531,1.625l0.344,1.781l0.406,2.25l-0.344,1.812l-1.094,1.625l0.25,2.031
	l0.656,1.75L172,686.5l0.406,1.719l0.031,1.75l1.094,1.656l-0.719,1.812l0.125,1.75l1.844,2.125l1.094,1.875l1.438,2l1.438,1.938
	l-0.5,1.688l1.625,1.469l0.906,1.938l1.406,1.719l0.75,1.75l0.562,1.906l0.938,1.75l0.344,1.781l0.125,1.844v1.656l1.625,1.344
	l0.781,1.625l0.844,1.625l1.719,0.656l1.688,1.25l1.438,1.656l5.125,4.625l1.094,1.719l1.688,0.781l2.781,1.406l1.688-0.062
	l1.719,0.406l2.781,1.344l2.062,0.969l0.562,2l1.906-0.219l-0.281,1.656l0.188,1.719l2.562,2.344l0.656,1.719l1.5,1.719l1.656,1.188
	l1.781,1.281l1.75,0.938l1.938,1.75l1.688,1.25l1.688,1.438l1.875,0.812l2.156,0.875l2.375,0.562l1.844,0.344l2.188,1.094
	l1.719-0.281l1.688,0.25l2.281,0.375l1.656,0.938l1.938-0.125l1.25,1.625l1.844,0.688l-0.188,1.688l0.312,1.656l1.938-0.5
	l1.094,1.688l1.219,1.719l1.875,0.969l1.656,0.531l1.719,0.531l1.5,1.656l1.625-0.062l1.906-0.719l1.75,1.625l2.344-0.438
	l1.844,0.969l1.75,0.844l1.062,1.656l1.781,1.75l2,2.062l-0.125,1.969l1.812-0.25l1.5,1.781l1.594,1.5l1.812,0.562l1.781,0.938
	l1.875,0.094l0.5-1.844l1.812,0.812l0.062,1.719l1.75-0.688l-0.188,2.062l1.906,0.219l0.688,2.562l1.062-2.031l2.75,1.219
	l1.875-0.312l2.031,0.375l2.438,1.25l1.719-0.562l2.438-0.719l-0.031-1.688l1.688-2.75l-0.625-1.906l1.719-1.656l0.75-1.688
	l1.125-1.625l2.219-0.594l0.312-1.812l1.844-1.719l0.594-1.906l1.062-1.625l1.312-2.312l2.094,0.719l1.656-0.969l1.719-1.156
	l1.719-1.094l1.812-0.438l0.906-1.781l-1.688-1.625l-1.656-1.5l0.312-1.688l1.312-1.844l-0.438-1.625l0.719-1.812l1.062-2.781
	l2.406-1.312l1.094-2.469l1.719-1.5l-1.188-1.625l-0.344-1.75l0.625-1.906l0.656-1.938l1.375-1.656l-0.594-1.844l0.906-2.719
	l1.656-1.5l0.062-1.844l1.375-1.969l-0.281-1.906l1.656,0.531l0.688-1.688l-0.281-2.594l1.688-1.906l1.25-1.656l0.781-2.031
	l0.844-2.219l0.719-2.219l1.906-0.781l2.719,0.031l1.719-1.312l1.812-0.156l2.344-1.938l0.719,2l1.781-0.656l1.844-1.125
	l-0.375-1.906l1.75,0.219l2.469,0.062l1.969,0.344l1.906,0.469l1.875,0.844l1.719-0.688l0.688-1.938l0.344-1.875l0.969-2.938
	l1.062-2.281l1.625-0.594l1.719-1.531l2.562,1.375l1.625-0.344l1.625,0.344l1.281,1.688l2.219,0.531l2.125-0.281l0.219,2.062
	l2.156,1.5l1.75,1.125l1.75,0.969l1.844,0.125l1.906,0.5l2.062,0.125l1.875-1.75l1.969,0.031l1.656,0.5l1.812-1.688l1.125,1.781
	l1.625-0.375l0.562,1.781l1.562-1.625l3.156,0.438l1.75-1.406l1.594,1.469l1.656,0.188l-0.594-1.656l1.688,0.844l0.625,2.094l2.25-1
	l2.188,1.188l1.812,0.531l1.719,1.156l2.406,0.094l1.75-1.062l1.5,1.75l1.562-1.75l2.062-0.375l2.75,0.094l0.406-2.656l2.281-1.281
	l0.344,2.406l0.656,3l2.406-0.531l2.125-2.062l2.031-0.406l0.062,1.688l1.5,2.219l3.469-1.188l-1.469,1.656l1.625,1.312v2.125
	l2.219,2.188l0.406,2.375l1.875,0.906l3.812,1.25l0.125,1.656l-1.062,3.438l0.125,1.719l1.844,1.531l1.156-2.031l0.031-1.688
	l0.75-2.469l1.625,0.625l-0.156,2.094l0.156,5.031l-0.938,2.094l0.562,1.75l2.406-0.219l3.062,0.219l1.844,1.719l1.75,2.844
	l1.938-0.125l2.312,0.812l2.344,0.688l1.781,1.75l1.188,1.875l0.406,2l1.719,2.094l0.438,1.781l1.656,1.125l2.094,1.281l2,0.438
	l1.812,2.156l2.094,1.562l2,1.375l1.531,2.438l2.25,1.344l2,1l1.656,0.75l1.062,1.969l0.969,1.844l0.656,1.625l-0.781,2.312
	l1.438,1.719l1.906,1.906l2.469,2.031l2.281,1l1.188,1.938l0.562,1.875l0.094,2.781l0.25,1.75l0.562,1.688l0.406,2.031l0.062,2
	l0.031,1.75l-0.281,1.812l1.094,1.688l0.219,1.688l1.969,1.031l1.906,1.312l0.156,1.781l1.562,2.562l0.219,2.344l2.125,1.062
	l1.156,1.781l-0.281,2.281l0.281,1.938l1.656,0.969l0.688,1.906v1.625l-0.312,2.75l1.25,3.406l0.062,0.031l1.844,1.156l2.531,1.062
	l-0.25,2.125l1.625,2.188l2.875,2.188L548.969,840l0.969,2.094l1.062,1.719l2.281,0.656l2.094,0.719l-0.5,1.625L552.812,848
	l1.469,1.688l1.156,1.719l0.062,1.656l-1.094,2.594l0.688,1.875l2.156,2.906l1.188,2.438l1.344,1.844l0.094,1.656l0.375,3.219
	l1.375,2.156l1.875,1.719l2.531,0.75l0.312,2.25l0.531,1.625l1.969,0.469l2.219,1.875h1.688l1.906,1.312l3.125,1.156l1.094,2.531
	l1.438,2.062l0.812,2.344l2.156,1.062l0.5,1.656l0.281,1.719l0.594,1.969l0.844,1.781l1.688,1.281l2.406,0.656l1.562,1.656
	l-0.594,1.938l1.156,2.312l2.281,1.594l0.531,2.031l-0.906,1.875l0.938,2.031l1.562,1.906l0.188,2.656l0.344,1.938l2.219,1.656
	l1.031,1.688l1.75-1.156l0.656,1.594l0.812,2.438l2.281,0.375l1.125,2.125l2.219,2.812l0.969,2.031l1.969,1.125l1.781-0.375
	l1.844,1.188l-0.062,1.781l1.75,0.438l2.031-1.156l1.938-0.094l1.438,2.125l-0.094,1.719l2.094-1.281l1.656,2.406l1.719,2.031
	l-0.188,2.031l-0.312,1.938L627,949.062l-0.062,2.312l2.094-0.375l1.844,1.25l-0.375,2.625l-0.875,2.625l0.719,2.875l-0.469,2.062
	l-0.562,2l-0.75,2l-0.125,2.156l-1.969,1.062l0.906,2.094l1.781-0.219l1.188,1.719l0.562,3.156l2.531-0.438l0.969,2.875
	l-0.125,1.906l0.875,1.781l0.562,2.719l-1,2.312l0.562,1.75l-0.156,1.938l0.25,2.594L635,995.562l-1.406,2.562l0.594,2.219
	l0.438,1.969l2.062-0.281l1.031,2.094l2.406,2.094l-1.531,1.781l0.5,1.75l2.375,1.625l2.094,0.656l1.375,1.688l0.438,4.312
	l1.719,0.062"/>
</svg>
