<?xml version="1.0" encoding="utf-8"?>
<!-- Generator: Adobe Illustrator 16.0.0, SVG Export Plug-In . SVG Version: 6.00 Build 0)  -->
<!DOCTYPE svg PUBLIC "-//W3C//DTD SVG 1.1//EN" "http://www.w3.org/Graphics/SVG/1.1/DTD/svg11.dtd">
<svg version="1.1" id="Layer_1" xmlns="http://www.w3.org/2000/svg" xmlns:xlink="http://www.w3.org/1999/xlink" x="0px" y="0px"
	 width="22px" height="32px" viewBox="0 0 22 32" enable-background="new 0 0 22 32" xml:space="preserve">
<path fill="#FFFFFF" d="M11.403,26.124c3.453-0.547,6.898-1.132,10.337-1.755c-0.081-0.43-0.212-0.777-0.583-1.061l-0.204-0.067
	c-0.424-0.512,0.057-1.146-0.032-1.696l-0.13-0.189c0,0,0.126-0.338,0.126-0.342c-0.016-0.398-0.469-0.569-0.635-0.84
	c-0.127-0.205-0.232-0.668-0.264-0.908c-0.016-0.115,0.158-2.08,0.17-2.111c0.076-0.213,0.691-0.602,0.604-0.808
	c-0.063-0.146-0.51-0.19-0.625-0.308c-0.123-0.127,0.143-0.24,0.123-0.344c-0.012-0.068-0.172-0.599-0.338-0.791
	c-0.118-0.139-0.322-0.205-0.441-0.345c-0.287-0.341-0.359-0.829-0.594-1.17c-0.759-1.114-1.15-2.532-1.618-3.847
	c-0.745-2.098-1.506-4.188-2.296-6.27c-0.269-0.708-0.537-1.417-0.805-2.127c-0.11-0.296-0.223-0.59-0.334-0.886
	c-0.021-0.059-0.066-0.178-0.066-0.178C10.355,0.704,6.909,1.279,3.444,1.767C2.63,1.881,1.814,1.993,0.998,2.104
	C0.815,2.129,0.232,2.114,0.261,2.309c0.142,0.166,0.536,0.397,0.623,0.549c0.16,0.285,0.067,1.877,0.082,2.294
	c0.068,1.91,0.13,3.818,0.191,5.728c0.079,2.475,0.151,4.951,0.22,7.425c0.032,1.189-0.034,2.428,0.095,3.609
	c0.109,0.999,0.391,2.009,0.584,2.996c0.413,2.117,0.828,4.232,1.245,6.347c0.128-0.155,0.971-0.204,1.146-0.062
	c0.053,0.045-0.031,0.175,0.029,0.207c0.155,0.081,0.217-0.097,0.394,0.047c0.042,0.034,0.016-0.106,0.024-0.162
	c0.025-0.183,0.014-0.353,0.006-0.538c-0.012-0.235-0.034-0.472-0.017-0.707c0.007-0.094-0.019-0.199,0.021-0.284l0.173-0.131
	c0.047-0.167,0.055-0.456,0.094-0.647l-0.032-0.206c0.278,0.226-0.137,0.069,0.141,0.294c0,0,0.295,0.062,0.297,0.062
	c0.112,0.077,0.391,0.545,0.39,0.681c0,0-0.146,0.301-0.146,0.302c-0.024,0.189,0.275,0.783,0.585,0.685
	c0.002,0,0.156-0.234,0.156-0.234c0.045-0.008-0.038,0.412-0.03,0.426c0.076,0.169,0.495,0.141,0.448,0.405
	c-0.083,0.466-0.844,0.167-0.934,0.196c-0.091,0.027-0.079,0.186-0.158,0.234c-0.081,0.051-0.257-0.049-0.283,0.043
	c-0.044,0.154,0.507-0.076,0.551-0.084c0.385-0.059,0.854-0.059,1.2-0.235c0.083-0.042,0.846-0.44,0.729-0.482
	c-0.076-0.026-0.405-0.001-0.331-0.265c0.01-0.035,0.069,0.025,0.102,0.037c0.143,0.053,0.177,0.237,0.401,0.096
	c0.039-0.025,0.064-0.073,0.078-0.118c0.009-0.034-0.041-0.078-0.015-0.103c0.041-0.041,0.107-0.027,0.171-0.021
	c0.088-0.139,0.231-0.321,0.326-0.413c0.044-0.089,0.078-0.165,0.079-0.184c0-0.068-0.126-0.127-0.089-0.185
	c0.011-0.017,0.033-0.027,0.059-0.033c-0.147-0.089-0.32-0.197-0.35-0.355c-0.043-0.239,0.196-0.525,0.167-0.766
	c-0.037-0.312-0.546-0.275-0.736-0.413c-0.128-0.093-0.736-0.589-0.784-0.724c-0.042-0.123,0.1-0.412,0.108-0.544
	c0.001-0.03-0.069-0.298-0.048-0.311C7.521,26.579,10.79,26.221,11.403,26.124"/>
</svg>
