<?xml version="1.0" encoding="utf-8"?>
<!-- Generator: Adobe Illustrator 16.0.0, SVG Export Plug-In . SVG Version: 6.00 Build 0)  -->
<!DOCTYPE svg PUBLIC "-//W3C//DTD SVG 1.1//EN" "http://www.w3.org/Graphics/SVG/1.1/DTD/svg11.dtd">
<svg version="1.1" id="Layer_1" xmlns="http://www.w3.org/2000/svg" xmlns:xlink="http://www.w3.org/1999/xlink" x="0px" y="0px"
	 width="35px" height="40px" viewBox="0 0 35 40" enable-background="new 0 0 35 40" xml:space="preserve">
<path fill="#FFFFFF" d="M9.284,0.344c0,0-0.065,0.372-0.098,0.557C9.109,1.334,9.033,1.768,8.957,2.201
	C8.842,2.85,8.661,4.894,8.4,5.357C8.316,5.504,8.084,5.582,7.98,5.714C7.869,5.856,7.842,6.206,7.697,6.31
	C7.012,6.799,6.873,5.457,6.706,5.378c-0.054-0.024-0.12,0.003-0.179,0.004c0,0-0.356,0.008-0.357,0.008
	C5.564,5.214,5.702,4.974,4.944,5.272C4.538,5.432,4.442,6.204,4.608,6.611c0.026,0.062,0.146,0.067,0.153,0.135
	c0.011,0.103-0.135,0.301-0.163,0.4C4.468,7.598,4.592,7.99,4.541,8.429C4.512,8.667,4.329,8.9,4.319,9.14
	c-0.026,0.64,0.337,1.192,0.198,1.865c-0.059,0.283-0.459,0.534-0.464,0.56c-0.031,0.163,0.166,0.079,0.137,0.24
	c-0.034,0.186-0.214,0.132-0.202,0.608c0,0-0.145,0.415-0.114,0.623c0.027,0.188,0.225,0.257,0.187,0.465
	c-0.049,0.266,0.447,0.679,0.517,0.988c0.043,0.196,0.192,1.109,0.168,1.246c-0.008,0.046-0.057,0.104-0.025,0.139
	c0.04,0.045,0.125,0.003,0.177,0.032c0.146,0.08,0.999,1.185,0.946,1.349c-0.141,0.439-1.332,0.559-1.606,0.783
	C4.105,18.145,4.08,18.4,3.965,18.525c-0.121,0.129-0.571,0.258-0.628,0.42c0,0,0.122,0.343,0.122,0.344
	c0,0-0.216,0.176-0.217,0.176c-0.17,0.304,0.114,0.679,0.009,0.964c0,0.001-0.216,0.175-0.216,0.175
	c-0.106,0.189-0.089,0.531-0.221,0.709c-0.08,0.107-0.237,0.162-0.327,0.262c-0.116,0.131-0.229,0.492-0.383,0.572
	c0,0-0.37,0.002-0.371,0.002c-0.052,0.021-0.105,0.064-0.115,0.121c-0.009,0.045,0.073,0.073,0.07,0.119
	c-0.007,0.117-0.27,0.268-0.256,0.381c0.022,0.19,0.259,0.346,0.264,0.583c0.004,0.267-0.33,0.532-0.333,0.795
	c-0.012,0.701,1.145,0.212,1.091,1.161c0,0.002,0.01,0.288,0.01,0.288c0.001,0.047,0.028,0.101,0.005,0.143
	c-0.086,0.155-0.454,0.173-0.528,0.331c-0.053,0.113,0.166,0.382-0.075,0.414c-0.434,0.057-0.602-0.406-1.015-0.08l-0.114,0.069
	c0.106,0.312-0.745,0.925-0.68,1.171c0.004,0.012,1.053,0.589,1.163,0.65c1.165,0.65,2.334,1.295,3.505,1.934
	c3.317,1.811,6.645,3.604,9.972,5.396c1.152,0.621,2.307,1.236,3.464,1.847c0.473,0.248,0.985,0.621,1.493,0.782
	c1.153,0.366,2.588,0.352,3.789,0.508c2.46,0.32,4.924,0.616,7.39,0.895c1.374-11.867,2.746-23.735,4.114-35.604
	C26.357,3.081,17.798,1.843,9.284,0.344"/>
</svg>
