<?xml version="1.0" encoding="utf-8"?>
<!-- Generator: Adobe Illustrator 16.0.0, SVG Export Plug-In . SVG Version: 6.00 Build 0)  -->
<!DOCTYPE svg PUBLIC "-//W3C//DTD SVG 1.1//EN" "http://www.w3.org/Graphics/SVG/1.1/DTD/svg11.dtd">
<svg version="1.1" id="Layer_1" xmlns="http://www.w3.org/2000/svg" xmlns:xlink="http://www.w3.org/1999/xlink" x="0px" y="0px"
	 width="7px" height="9px" viewBox="0 0 7 9" enable-background="new 0 0 7 9" xml:space="preserve">
<path fill="#FFFFFF" d="M0.479,1.276c0,0,0.043,0.119,0.065,0.178C0.633,1.692,0.723,1.93,0.812,2.168
	c0.222,0.594,0.445,1.189,0.669,1.783c0.463,1.233,0.888,2.475,1.309,3.724c0.04,0.121,0.394,1.225,0.415,1.236
	c0.114,0.06,0.736-0.229,0.871-0.272c0.752-0.237,1.506-0.476,2.257-0.718c0.002-0.008,0.008-0.01,0.016-0.004
	c0.053-0.018,0.107-0.035,0.162-0.053l0.011-0.001c-0.12-0.441-0.478-0.967-0.498-0.961L6.09,7.106
	C6.087,7.134,5.525,7.425,5.478,7.413C5.437,7.401,5.541,7.329,5.526,7.286c-0.102-0.318,0.289-0.204,0.19-0.508l-0.176-0.28
	C5.548,6.456,5.62,6.473,5.66,6.46c0.196-0.062,0.366,0.426,0.194,0.012c-0.043-0.109-0.089-0.22-0.134-0.329
	C5.698,6.087,5.69,6.024,5.653,5.978C5.532,5.825,5.38,6.007,5.185,5.94C4.978,5.868,4.456,5.604,4.319,5.434
	C4.252,5.351,4.28,5.219,4.223,5.129c-0.15-0.231-0.461-0.361-0.626-0.584C3.308,4.151,3.335,3.489,2.909,3.197
	C2.81,3.129,2.62,3.171,2.526,3.094c-0.104-0.085-0.109-0.29-0.207-0.382c-0.084-0.08-0.36-0.107-0.413-0.206
	c-0.031-0.055,0-0.125,0-0.187c0,0-0.002-0.371-0.002-0.371c-0.057-0.138-0.298-0.2-0.365-0.334C1.421,1.382,1.857,1.042,1.9,0.83
	c0.026-0.125-0.093-0.312-0.049-0.432c0.01-0.027,0.06-0.115,0.12-0.213C1.121-0.184,0.684,0.482,0.479,1.276"/>
</svg>
