<?xml version="1.0" encoding="utf-8"?>
<!-- Generator: Adobe Illustrator 16.0.0, SVG Export Plug-In . SVG Version: 6.00 Build 0)  -->
<!DOCTYPE svg PUBLIC "-//W3C//DTD SVG 1.1//EN" "http://www.w3.org/Graphics/SVG/1.1/DTD/svg11.dtd">
<svg version="1.1" id="Layer_1" xmlns="http://www.w3.org/2000/svg" xmlns:xlink="http://www.w3.org/1999/xlink" x="0px" y="0px"
	 width="32px" height="21px" viewBox="0 0 32 21" enable-background="new 0 0 32 21" xml:space="preserve">
<path fill="#FFFFFF" d="M0.401,2.247C0.149,2.499,0.684,2.838,0.744,2.983c0.022,0.056,0.004,0.119,0.008,0.179
	c0.002,0.06,0.004,0.118,0.006,0.179c0.003,0.059,0.034,0.123,0.008,0.178c-0.031,0.07-0.348,0.067-0.224,0.224
	c0.039,0.05,0.136,0.043,0.16,0.101C0.72,3.884,0.611,3.912,0.629,3.954c0.015,0.036,0.548,0.025,0.58,0.725
	c0.01,0.21-0.297,0.379-0.29,0.549c0.004,0.12,0.193,0.37,0.102,0.531C0.963,5.86,0.723,6.157,0.731,6.308
	c0,0.044,0.091,0.06,0.083,0.103L0.583,6.528C0.527,6.61,0.398,7.2,0.456,7.284c0.062,0.088,0.576,0.31,0.57,0.404
	C1.022,7.752,0.87,7.739,0.872,7.803c0.004,0.062,0.124,0.051,0.163,0.1C1.163,8.061,1.242,8.334,1.3,8.534
	c0,0,0.427,0.134,0.409,0.303c-0.019,0.175-0.17,0.48-0.129,0.648C1.629,9.682,1.94,9.81,2,10.003
	c0.059,0.184-0.148,0.455-0.05,0.645c0.086,0.165,0.326,0.248,0.417,0.41c0.068,0.119,0.024,0.309,0.1,0.424
	c0.105,0.162,0.415,0.231,0.498,0.405c0.071,0.147-0.028,0.38,0.027,0.534c0.077,0.223,0.375,0.395,0.43,0.622
	c0.063,0.27-0.063,0.532-0.125,0.755c-0.079,0.297,0.147,0.414,0.193,0.635c0.022,0.107-0.137,0.238-0.066,0.324
	c0.098,0.117,0.313-0.145,0.397-0.127c0.216,0.046-0.024,0.33,0.021,0.426c0.048,0.105,0.368,0.09,0.414,0.194
	c0.083,0.2-0.208,0.558-0.124,0.757C4.207,16.182,4.492,16,4.472,16.31c-0.007,0.129-0.283,0.299-0.214,0.547
	c0.067,0.254,0.312-0.027,0.409,0.086c0.044,0.055-0.151,0.643-0.124,0.756c0.1,0.406,0.36,0.686,0.386,1.158
	c0.016,0.317-0.209,0.693-0.196,0.973c0.012,0.193,0.422,0.376,0.535,0.828c4.87-0.131,9.711-0.492,14.557-1.006
	c1.296-0.138,2.576-0.307,3.863-0.527c0.369-0.061,1.257-0.223,1.262-0.215c0.273,0.424,0.525,0.709,0.951,0.975
	c0.233,0.146,0.257,0.299,0.536,0.408c0.048,0.02,0.144,0.057,0.144,0.057c0.781-0.084-0.111-1.045-0.043-1.178
	c0.15-0.294,1.186-0.65,1.229-0.777c0.121-0.367,0.101-0.748,0.205-1.1c0.095-0.32,0.493-0.594,0.552-0.922
	c0.194-1.113-1.449-1.148-0.727-2.824c0.095-0.219,1.409-0.281,1.658-0.404c0.201-0.1,0.314-0.377,0.508-0.49
	c0.273-0.158,0.831-0.221,0.988-0.549c0.141-0.295-0.037-0.767,0.111-1.091c0.084-0.188,0.342-0.297,0.425-0.484
	c0.112-0.254,0.202-0.93,0.173-1.207c-0.105-0.986-0.941-0.835-1.459-1.439c-0.195-0.229-0.098-0.535-0.382-0.709
	c-0.221-0.136-1.06-0.491-0.909-0.755c-0.196-1.668-1.828-0.572-2.223-1.362c-0.109-0.218-0.06-0.514-0.162-0.736
	c-0.053-0.114-0.211-0.181-0.27-0.293c-0.162-0.311-0.343-0.902-0.375-1.251c-0.035-0.369,0.435-0.788,0.349-1.117
	c-0.097-0.37-0.408-0.26-0.602-0.472c-0.194-0.212-0.172-0.845-0.172-0.845s-0.126,0.015-0.188,0.021
	c-0.252,0.028-0.502,0.055-0.754,0.082c-0.565,0.061-1.132,0.119-1.698,0.178c-1.828,0.188-3.659,0.361-5.489,0.522
	C11.952,1.618,6.567,1.973,1.178,2.213C1.049,2.22,0.484,2.164,0.401,2.247"/>
</svg>
