<?xml version="1.0" encoding="utf-8"?>
<!-- Generator: Adobe Illustrator 16.0.0, SVG Export Plug-In . SVG Version: 6.00 Build 0)  -->
<!DOCTYPE svg PUBLIC "-//W3C//DTD SVG 1.1//EN" "http://www.w3.org/Graphics/SVG/1.1/DTD/svg11.dtd">
<svg version="1.1" id="Layer_1" xmlns="http://www.w3.org/2000/svg" xmlns:xlink="http://www.w3.org/1999/xlink" x="0px" y="0px"
	 width="31px" height="49px" viewBox="0 0 31 49" enable-background="new 0 0 31 49" xml:space="preserve">
<path fill="#FFFFFF" d="M30.666,33.074c-0.703-0.097-0.68-1.812-1.211-1.794c-0.643,0.021-0.307,0.2-0.452,0.477
	c-0.071,0.135-0.216,0.007-0.304,0.227c-0.143,0.36,0.072,0.277,0.197,0.516c0.014,0.027-0.416-0.164-0.439-0.171
	c-0.202-0.069-0.482-0.087-0.688-0.046c-0.583,0.113-0.306,0.01-0.747-0.165c-0.199-0.079-0.563,0.083-0.711,0.11
	c-0.205,0.039-0.781-0.289-0.951-0.361c-0.521-0.222-0.512,0.681-0.87,0.624l-0.193-0.246c-0.284-0.177-1.024-0.358-1.36-0.216
	c-0.473,0.202-0.352,0.705-0.497,0.68l-0.116-0.235c-0.152-0.175-0.427-0.299-0.537-0.521c-0.07-0.144,0.1-0.335,0.07-0.423
	c-0.054-0.153-0.195-0.316-0.233-0.473c-0.026-0.107,0.122-0.195,0.128-0.305c0.01-0.223-0.143-0.706-0.237-0.908
	c-0.28-0.604-0.786-0.061-0.899-0.15c-0.002,0-0.023-0.329-0.023-0.329c-0.09-0.145-0.648-0.421-0.492-0.735
	c0.077-0.154,0.313-0.228,0.314-0.49c0-0.127-0.111-0.59-0.191-0.686c0-0.001-0.223-0.037-0.225-0.038
	c-0.119-0.159-0.02-0.493-0.115-0.673c-0.002-0.002-0.26-0.259-0.262-0.262c-0.124-0.263-0.005-0.607-0.076-0.883
	c-0.027-0.101-0.154-0.151-0.187-0.25c-0.052-0.158,0.208-0.37,0.165-0.516c0,0-0.26-0.261-0.26-0.262
	c-0.018-0.187,0.322-0.189,0.148-0.41c-0.109-0.139-0.488-0.653-0.564-0.697c-0.246-0.14-0.518,0.539-0.804,0.675
	c-0.146,0.07-0.415-0.043-0.535,0.014c-0.204,0.097-0.184,0.427-0.52,0.343c-0.343-0.085-0.262-0.5-0.496-0.635
	c-0.087-0.051-0.196-0.036-0.296-0.054c-0.049-0.009-0.172,0.017-0.146-0.027c0.078-0.139,0.024-0.33,0.076-0.422
	c0.101-0.177,0.398-0.185,0.391-0.473c-0.002-0.152-0.23-0.325-0.217-0.477c0.055-0.576,0.779-0.105,0.869-0.604
	c0.016-0.085-0.111-0.15-0.108-0.237l0.13-0.304c-0.049-0.159-0.32-0.107-0.289-0.487c0.012-0.138,0.213-0.259,0.224-0.396
	c0.007-0.082-0.194-0.283-0.161-0.355c0.043-0.096,0.246,0.03,0.311-0.052c0.076-0.096-0.011-0.421,0.023-0.541
	c0.105-0.369,0.506-0.72,0.574-1.095c0,0-0.089-0.343-0.088-0.343c0.113-0.237,0.26,0.012,0.275-0.276
	c0.005-0.097,0.33-0.658,0.277-0.713c-0.251-0.263-0.744,0.037-1.104-0.092c-0.466-0.165,0.066-0.641-0.39-0.726l-0.328,0.157
	c-0.16-0.058,0.056-0.363,0.006-0.435c-0.058-0.08-0.208,0.001-0.289-0.055c-0.348-0.235-0.124-0.622-0.203-0.91
	c-0.097-0.354-0.464-0.478-0.496-0.529l-0.012-0.329c-0.052-0.145-0.233-0.245-0.298-0.384c-0.173-0.368-0.298-0.85-0.515-1.19
	c-0.153-0.242-0.546-0.275-0.724-0.468c-0.124-0.136-0.075-0.432-0.182-0.582c-0.107-0.149-0.531-0.271-0.579-0.441
	c-0.1-0.356,0.443-0.055,0.418-0.246c-0.011-0.079-0.346-0.484-0.343-0.504c0.018-0.137,0.346-0.229,0.367-0.364
	c0.015-0.101-0.152-0.152-0.171-0.252l0.062-0.315c-0.022-0.17-0.278-0.356-0.341-0.505c-0.067-0.161,0.03-0.392-0.037-0.553
	c-0.047-0.114-0.245-0.176-0.311-0.281c-0.088-0.143-0.324-0.684-0.345-0.834c-0.073-0.502,0.755-3.525,0.909-4.25
	c0.092-0.431,0.184-0.863,0.277-1.294c0.052-0.245,0.158-0.738,0.158-0.738l0.001-0.011c-1.381-0.28-2.762-0.564-4.141-0.861
	l0,0.009c0,0-0.104,0.478-0.154,0.717C9.468,1.214,9.366,1.692,9.263,2.17C8.954,3.605,8.645,5.041,8.336,6.477
	c-0.542,2.514-1.083,5.027-1.624,7.542c-0.147,0.68-0.165,1.489-0.386,2.141c-0.04,0.119-0.226,0.265-0.235,0.388
	c-0.015,0.232,0.28,0.49,0.299,0.723c0.011,0.12,0.033,0.557,0.011,0.66c-0.029,0.135-0.292,0.235-0.308,0.372
	c-0.023,0.178,0.203,0.501,0.229,0.707c0,0,0.072,0.883,0.36,1.173c0,0,0.218,0.046,0.219,0.046
	c0.363,0.268,0.936,1.213,0.792,1.699c-0.145,0.49-0.924,0.96-1.212,1.39c-0.224,0.333-0.309,0.762-0.539,1.092
	c-0.182,0.262-0.552,0.446-0.696,0.729c-0.253,0.494-0.208,1.098-0.781,1.477c-0.13,0.086-0.366,0.023-0.493,0.115
	c-0.332,0.238-0.433,0.859-0.718,1.159c-0.117,0.123-0.376,0.196-0.464,0.339c-0.064,0.102-0.176,1.152-0.125,1.289
	c0.119,0.311,0.204,0.045,0.376,0.082c0.415,0.089-0.079,0.135,0.179,0.258c0.127,0.059,0.196-0.1,0.323-0.041
	c0.145,0.068-0.021,0.246,0.007,0.33c0.045,0.132,0.294,0.26,0.31,0.395c0.043,0.381-0.386,0.209-0.466,0.34
	c-0.029,0.047,0.052,0.523-0.028,0.718c-0.08,0.196-0.142,0.472-0.264,0.644c-0.096,0.137-0.312,0.211-0.393,0.355
	c-0.13,0.232-0.137,0.658-0.192,0.922c-0.729,3.502-1.459,7.004-2.187,10.506c4.656,1.001,9.331,1.916,14.019,2.744
	c4.69,0.826,9.395,1.566,14.112,2.222C29.198,43.685,29.934,38.38,30.666,33.074"/>
</svg>
