<?xml version="1.0" encoding="utf-8"?>
<!-- Generator: Adobe Illustrator 16.0.0, SVG Export Plug-In . SVG Version: 6.00 Build 0)  -->
<!DOCTYPE svg PUBLIC "-//W3C//DTD SVG 1.1//EN" "http://www.w3.org/Graphics/SVG/1.1/DTD/svg11.dtd">
<svg version="1.1" id="Layer_1" xmlns="http://www.w3.org/2000/svg" xmlns:xlink="http://www.w3.org/1999/xlink" x="0px" y="0px"
	 width="40px" height="34px" viewBox="0 0 40 34" enable-background="new 0 0 40 34" xml:space="preserve">
<g>
	<path fill="#FFFFFF" d="M28.153,32.41c0.365-0.072,1.957-0.527,2.212-0.442c0.042,0.014,0.092,0.482,0.1,0.525
		c2.081-0.507,4.157-1.033,6.229-1.573l0.014-0.004c-0.027-0.109-0.003-0.258,0.07-0.252c0.032,0.002,0.088,0.084,0.083,0.05
		c-0.048-0.515,0.149-0.796,0.302-1.182c0.048-0.118,0.263-0.082,0.264-0.114c0.01-0.096-0.182-0.18-0.125-0.26
		c0.148-0.215,0.209,0.141,0.239-0.336c0.008-0.119,0.143,0.089,0.132,0.043c-0.131-0.623-0.307-1.313,0.082-1.93
		c0.013-0.03,0.024-0.059,0.037-0.076c0.01-0.015,0.025-0.023,0.035-0.036c0.19-0.226,0.612-0.376,0.688-0.654
		c0.095-0.353-0.154-0.558-0.116-0.892c0.025-0.209,0.357-0.293,0.365-0.34c0.023-0.158-0.407-0.256-0.201-0.46
		c0.928-0.913,0.631-0.09,1.002,0.304c0.002,0-0.135,0.141-0.141,0.148l0.014,0.021c0.189-0.163,0.418-0.251,0.497-0.53
		c0.151-0.518-0.093-0.918-0.147-1.393c-0.041-0.373,0.062-0.838,0.053-1.219c0-0.001,0-0.002,0-0.004l-0.012-0.006
		c-1.446-1.342-1.457-5.842-3.718-6.074c-0.422-0.042-0.385,0.381-0.619,0.53c-0.208,0.132-0.523,0.167-0.763,0.283
		c-0.168,0.08-0.053,0.3-0.178,0.396c-0.12,0.093-0.307,0.06-0.414,0.158c-0.052,0.047,0.326-0.055,0.301,0.115
		c-0.021,0.124-0.434,1.351-0.444,1.357c-0.152,0.105-0.085-0.19-0.202-0.122c-0.271,0.155-0.158,0.902-0.58,0.958
		c-0.158,0.021-0.316-0.17-0.489-0.172c-0.304-0.003-0.57-0.05-0.763-0.311c-0.214-0.285-0.152-1.626,0.064-1.919
		c0.007-0.009,0.019-0.018,0.029-0.018c0.891-0.012,0.465-0.264,0.708-0.458c0.082-0.066,0.249-0.029,0.302-0.091
		c0.105-0.125-0.072-1.044-0.006-1.307c0.033-0.128,0.205-0.305,0.354-0.25c0.053,0.02-0.066,0.238,0.021,0.171
		c0.085-0.067,0.102-0.339,0.171-0.448c0.069-0.104,0.207-0.067,0.271-0.18c0.117-0.208-0.146-0.954-0.19-1.21
		c-0.106-0.622,0.032-1.755-0.507-2.227c-0.131-0.113-0.382-0.143-0.529-0.263c-0.075-0.062-0.141-0.266-0.221-0.354
		c-0.096-0.109,0.072-0.523,0.277-0.577c0.091-0.023,0.324,0.359,0.529,0.19c0.008-0.007,0.012-0.02,0.008-0.031
		c-0.062-0.188-0.176-0.014-0.27-0.171c-0.047-0.08-0.018-0.294-0.074-0.463c-0.051-0.154-0.475-0.29-0.582-0.551
		c-0.041-0.104,0.109-0.11,0.084-0.208c-0.111-0.418-0.841-0.291-1.057-0.338c-0.229-0.051-0.412-0.245-0.602-0.273
		c-0.167-0.025-0.308,0.075-0.496,0.028c-0.189-0.046-0.321-0.278-0.502-0.289c-0.263-0.018-0.59,0.126-0.844,0.068
		c-0.292-0.067-0.349-0.891-1.216-0.84c-0.171,0.042-0.341,0.179-0.52,0.184c-0.243,0.008-1.13-0.618-1.515-0.644
		c-0.06-0.004-0.091,0.284-0.208,0.322c-0.161,0.054-0.628-0.058-0.755,0.072c-0.023,0.027,0.363,0.148,0.238,0.314
		c-0.247,0.325-0.641,0.733-0.506,1.181c0.091,0.304,0.232,0.533,0.535,0.659c0.109,0.045,0.59-0.117,0.482,0.125
		c-0.083,0.19-1.382,0.332-1.821,1.059c-0.26,0.43,0.086,0.824,0.155,1.259c0.104,0.672-0.041,1.226-0.238,1.852
		c-0.043,0.145-0.002,0.363-0.194,0.417c-0.071,0.02-0.046-0.093-0.044-0.123c0.019-0.228,0.282-1.395,0.058-1.426
		c-0.188-0.026-0.167,1.439-0.285,1.458c-0.233,0.034-0.278-0.506-0.262-0.641c0.015-0.133,0.122-0.231,0.111-0.369
		c-0.024-0.304-0.443-0.361-0.003-0.722c0.022-0.02,0.022-0.039,0.014-0.066c-0.047-0.154-0.293-0.298-0.262-0.486
		c0.026-0.162,0.568-0.448,0.198-0.523c-0.394-0.079-0.766,1.493-0.902,1.811c-0.026,0.061-0.046,0.089-0.097,0.122
		c-0.112,0.074-0.334-0.112-0.458-0.124c-0.081-0.008-0.161,0.373-0.196,0.447c-0.059,0.123-0.23-0.042-0.322,0.039
		c-0.227,0.199,0.249,0.86,0.07,1.114c-0.136,0.192-0.522,0.107-0.706,0.371c-0.125,0.183,0.159,0.487,0.23,0.644
		c0.035,0.079,0.118,1.474,0.098,1.579c-0.074,0.393-0.221,0.929-0.379,1.3c-0.104,0.248-0.432,0.461-0.468,0.722
		c-0.035,0.251,0.324,0.49,0.45,0.652c0.04,0.049-0.008,0.207,0.009,0.277c0.057,0.229,0.212,0.434,0.257,0.666
		c0.086,0.47-0.485,0.774-0.319,1.292c0.214,0.667,0.783,1.407,1.167,1.999c0.005,0.007,0.131,0.258,0.176,0.258
		c0.153,0.001,0.269-0.351,0.384-0.251c0.113,0.094-0.313,0.337-0.303,0.358c0.724,1.281,1.016,2.475,1.117,3.93
		c0.086,1.268-0.319,1.999-0.705,3.121c-0.189,0.558-0.218,1.133-0.461,1.673c-0.141,0.312-0.417,0.659-0.753,0.981l0.008,0.002
		C23.228,33.354,25.692,32.895,28.153,32.41"/>
	<path fill="#FFFFFF" d="M0.383,5.433c0.074,0.017,0.035,0.164,0.1,0.204c0.128,0.08,0.349,0.063,0.464,0.16
		c0.265,0.219,0.284,0.828,0.571,1.009c0.303,0.189,1.668,0.226,2.09,0.28c0.772,0.103,1.726,0.08,2.473,0.315
		c0.421,0.133,1.154,0.708,1.593,0.646c0.104-0.015,0.173-0.152,0.278-0.148c0.123,0.005,0.204,0.163,0.327,0.17
		c0.163,0.011,0.345-0.248,0.574-0.19C9.031,7.925,9.345,7.831,9.531,7.89c0.002,0,0.177,0.19,0.179,0.19
		c0.282,0.079,0.758-0.282,0.99,0.072c0.224,0.338,0.059,0.39,0.11,0.741c0.005,0.036-0.019,0.1,0.016,0.107
		c0.207,0.041,0.408,0.069,0.618,0.088C11.497,9.092,11.598,9.1,11.598,9.1c0.145,0.084,0.681,0.284,0.747,0.429l-0.117,0.235
		c0.014,0.094,0.274,0.19,0.271,0.284c0,0-0.19,0.245-0.19,0.246c-0.012,0.127,0.22,0.274,0.212,0.401
		c-0.014,0.316-0.384,0.482-0.242,0.905c0.103,0.308,0.823-0.388,1.041-0.161c0.099,0.102-0.326,0.973-0.192,1.224
		c0.062,0.115,0.408,0.385,0.522,0.407c0.023,0.004,0.056,0.012,0.088,0.017c-0.016-0.181-0.028-0.336,0-0.386
		c0.53-1.021,0.876-1.987,1.26-3.036c0.126-0.338,0.538-0.775,0.531-1.043c-0.004-0.124,0.091-1.139,0.212-1.172
		c0.058-0.014,0.089,0.075,0.109,0.117c0.06,0.124-0.107,0.318-0.125,0.436c-0.009,0.052,0.21,0.891,0.284,0.941
		c0.04,0.027,0.066-0.163,0.085-0.18c0.08-0.076,0.344-0.043,0.41-0.187c0.087-0.189,0.106-0.807,0.176-0.92
		c0.112-0.179,0.341,0.126,0.527,0.062c0.144-0.051,0.226-0.521,0.459-0.395c0.211,0.113,0.022,0.449-0.016,0.586
		c-0.022,0.078,0.124,0.046,0.078,0.133c-0.048,0.087-0.224-0.069-0.294,0.015c-0.062,0.076-0.062,0.387-0.1,0.508
		c-0.027,0.089-0.174,0.096-0.172,0.185c0.002,0.158,0.384,0.521,0.521,0.425c0.029-0.021,0.027-0.067,0.014-0.097
		c-0.197-0.448,0.105-0.471,0.213-0.699c0.031-0.063-0.051-0.233,0.041-0.256c0.164-0.039,0.572-0.301,0.67-0.433
		c-0.113-0.807,0.496-1.307,1.273-1.233c0.125,0.012,0.423,0.176,0.522,0.14c0.085-0.029-0.083-0.218-0.008-0.268
		c0.323-0.217,0.745-0.029,1.028-0.211c0.279-0.18,0.229-0.677,0.463-0.909c0.213-0.208,1.344-0.11,1.615-0.085
		c0.836,0.078,1.314,0.694,1.994,0.969c0.053,0.021,0.12,0.081,0.166,0.046c0.033-0.025,0.148-0.079,0.152-0.11
		c0.019-0.116-0.147-0.191-0.179-0.305c-0.02-0.071,0.077-0.953,0.215-0.97c0.489-0.062,0.372,0.216,0.597,0.378
		c0.03,0.021,0.039-0.103,0.057-0.121c0.169-0.168,0.129,0.191,0.212-0.136c0.003-0.01,0.014-0.017,0.024-0.018
		c0.225-0.029,0.262,0.048,0.423,0.089c0.07,0.018,0.108-0.115,0.181-0.119C27.825,4.8,28.88,5,29.216,4.656
		c0.258-0.267-0.547-0.418-0.641-0.505c-0.068-0.063-0.174-0.147-0.198-0.24c-0.013-0.045,0.04-0.12,0.063-0.177
		c-0.02-0.026-0.039-0.053-0.062-0.083c-0.187-0.044-0.404-0.179-0.577-0.157c-0.105,0.015-0.207,0.235-0.307,0.133
		c-0.334-0.342,0.117-0.267,0.162-0.5c0.011-0.05-0.821-1.374-0.971-1.451c-0.035-0.019-0.055-0.021-0.078-0.021
		c-0.125,0.074-0.243,0.148-0.356,0.215c-0.13,0.183-0.204,0.425-0.476,0.519c-0.215,0.074-0.189-0.446-0.576-0.39
		c-0.152,0.021-0.388,0.317-0.59,0.373c-0.176,0.048-0.439-0.185-0.55-0.174c-0.151,0.014-0.289,0.219-0.442,0.091
		c-0.029-0.025-0.162-1.223-0.166-1.395c-0.002-0.069,0.248-0.5,0.167-0.486c-0.193,0.034-1.179,0.313-1.3,0.397
		c-0.291,0.203-0.6,0.578-0.941,0.684c-0.548,0.172-1.212,0.019-1.747,0.181c-0.42,0.127-0.633,0.4-1.054,0.307
		c-0.116-0.026-0.508,0.507-0.597,0.59c-0.195,0.179-0.544,0.317-0.685,0.45c-0.286,0.27-0.348,0.614-0.578,0.918
		c-0.044,0.056-0.47-0.29-0.619-0.295c-0.232-0.009-0.115,0.328-0.36,0.343c-0.358,0.021-0.451-0.476-0.796-0.501
		c-0.157-0.012-0.746,0.628-1.471,0.464c-0.293-0.066-0.111-0.528-0.232-0.561c-0.372-0.101-0.76-0.43-1.016-0.779
		c-0.076-0.102-0.025-0.231-0.121-0.313c-0.323-0.278-0.388-0.133-0.686-0.396c-0.354-0.312-1.43-0.12-1.874,0.047
		C9.458,1.975,9.1,2.598,9.073,2.56C8.95,2.374,9.649,1.605,9.624,1.574C9.577,1.515,9.43,1.643,9.417,1.655
		c-0.285,0.25-0.504,0.526-0.766,0.656c-0.014,0.006-0.038,0.03-0.043,0.043C8.566,2.443,8.594,2.621,8.532,2.772
		C8.512,2.816,8.496,2.863,8.475,2.906C8.414,3.037,8.434,3.004,8.351,3.091C8.31,3.094,8.272,3.083,8.29,3.028
		C8.355,2.825,8.355,2.092,8.313,1.78c-0.046-0.337-0.28-0.333-0.41-0.42c-0.11-0.075,0.12-0.38-0.074-0.484
		C7.678,0.795,7.5,0.929,7.348,0.825C7.172,0.706,7.447,0.18,7.166,0.21C7.023,0.225,7.017,0.325,6.943,0.429
		C6.751,0.711,6.416,0.877,6.247,1.142C6.1,1.374,6.192,1.618,5.953,1.815C5.751,1.982,5.477,1.88,5.278,1.967
		C5.091,2.048,4.713,2.912,4.141,3.108C3.692,3.261,2.862,3.253,2.5,3.47C2.103,3.708,1.937,4.229,1.586,4.529
		C1.217,4.845,0.609,4.919,0.234,5.17c-0.057,0.037-0.136,0.14-0.218,0.219C0.173,5.706,0.131,5.374,0.383,5.433"/>
</g>
</svg>
