<?xml version="1.0" encoding="utf-8"?>
<!-- Generator: Adobe Illustrator 16.0.0, SVG Export Plug-In . SVG Version: 6.00 Build 0)  -->
<!DOCTYPE svg PUBLIC "-//W3C//DTD SVG 1.1//EN" "http://www.w3.org/Graphics/SVG/1.1/DTD/svg11.dtd">
<svg version="1.1" id="Layer_1" xmlns="http://www.w3.org/2000/svg" xmlns:xlink="http://www.w3.org/1999/xlink" x="0px" y="0px"
	 width="20px" height="32px" viewBox="0 0 20 32" enable-background="new 0 0 20 32" xml:space="preserve">
<path fill="#FFFFFF" d="M19.488,29.496c-0.014-0.035-0.026-0.072-0.014-0.089c-0.416-2.114-0.832-4.229-1.244-6.347
	c-0.194-0.987-0.477-1.997-0.585-2.996c-0.129-1.182-0.063-2.42-0.095-3.61c-0.068-2.475-0.141-4.951-0.22-7.426
	c-0.062-1.908-0.124-3.817-0.191-5.727c-0.015-0.417,0.078-2.01-0.081-2.295c-0.087-0.151-0.48-0.383-0.623-0.549
	C12.704,1.011,8.967,1.515,5.223,1.971c0.113,0.194,0.395,0.795,0.026,0.954C5.1,2.989,5.143,2.789,4.92,2.929l-0.28,0.176
	C4.55,3.064,4.742,2.569,4.427,2.811C4.293,2.912,4.61,3.445,4.603,3.535c-0.01,0.1-0.342,0.4-0.42,0.264
	c-0.03-0.055,0.311-0.34,0.039-0.432C3.947,3.275,4.021,3.828,4.106,3.914c0.086,0.084,0.447-0.039,0.47,0.155
	C4.585,4.14,4.219,4.507,4.168,4.437C4.124,4.375,4.204,4.008,4.031,4.029C3.992,4.033,4.009,4.101,3.998,4.138
	c-0.155,0.529,0.04,0.307,0.298,0.604C4.319,4.768,4.304,4.81,4.308,4.847c0.025,0.211-0.162,0.172-0.232,0.345
	C4.011,5.357,4.233,5.666,4.152,5.82C4.093,5.931,3.889,5.968,3.819,6.073c-0.04,0.058-0.07,0.418-0.13,0.438
	C3.679,6.517,3.438,5.954,3.207,6.25L3.32,6.449c0.036,0.313-0.299,0.309-0.396,0.506L2.778,7.255
	C2.743,7.271,2.035,7.156,2.431,7.4c0.115,0.07,0.626-0.072,0.651,0.137C3.11,7.765,2.395,7.486,2.287,7.736
	C2.172,8.004,2.851,7.962,2.862,7.987C3.001,8.324,2.131,8.81,2.041,8.771C1.994,8.75,1.94,8.675,1.896,8.708
	c-0.201,0.15,0.164,0.331,0.186,0.43C2.115,9.293,1.91,9.531,1.961,9.681C2,9.801,2.318,9.833,2.356,9.955
	c0.063,0.201-0.767,0.061-0.812,0.09c-0.029,0.02,0.008,0.068,0.013,0.105c0.076,0.689,0.388,0.178,0.554,0.467
	c0.019,0.033,0.072,0.066,0.057,0.1c-0.194,0.443-0.748-0.237-0.887-0.166c-0.043,0.023-0.125,0.02-0.128,0.066
	c-0.017,0.162,0.383,0.428,0.43,0.59c0.01,0.037-0.023,0.074-0.035,0.109c-0.058,0.188-0.316,0.043-0.29,0.279
	c0.107,0.978,0.104-0.719,0.211,0.26c0.007,0.066-0.262,0.402-0.224,0.446c0.302,0.372,0.27-0.874,0.611-0.278
	c0.079,0.139-0.528,0.515-0.397,0.572c0.529,0.234,0.539-0.732,0.782-0.403c0.132,0.183-0.373,0.505-0.384,0.678
	c-0.05,0.806,0.566,0.137,0.59,0.358c0.012,0.096-0.217,0.248-0.236,0.344c-0.021,0.098,0.119,0.449,0.057,0.522
	c-0.083,0.099-0.439-0.017-0.546,0.061c-0.203,0.147,0.41,0.43,0.421,0.482c0.04,0.163-0.227,0.448-0.227,0.448
	c-0.068,0.1-0.395,0.453-0.125,0.543c0.577,0.188,0.179-0.67,0.595-0.489C2.762,15.301,2,16.317,2.068,16.442
	c0.076,0.144,0.647,0.013,0.675,0.242c0.042,0.382-0.728,0.341-0.469,0.792c0.206,0.355,0.657-0.571,0.813-0.195
	c0.084,0.201-0.325,0.336-0.321,0.457c0.001,0.051,0.545,0.281,0.414,0.377c-0.016,0.01-0.974-0.135-0.528,0.27
	c0.212,0.192,0.556-0.078,0.747,0.021c0.051,0.027-0.128,0.423-0.034,0.533c0.083,0.098,0.419,0.047,0.483,0.156
	c0.118,0.199-0.304,0.184-0.344,0.25l0.035,0.312c-0.052,0.129-1.12,0.076-0.956,0.633c0.118,0.404,0.7-0.266,0.831-0.092
	c0.086,0.115-0.218,0.629-0.298,0.666c-0.068,0.032-0.435-0.106-0.474-0.053c-0.063,0.091,0.611,0.193,0.508,0.366
	c-0.1,0.166-0.398,0.223-0.52,0.374c-0.174,0.213-0.303,0.6-0.377,0.831c-0.049,0.151-0.303-0.284-0.458,0.104
	c-0.02,0.049-0.019,0.106-0.029,0.16c-0.079,0.428,0.223-0.023,0.286,0.196c0.049,0.169-0.319,0.209-0.375,0.286
	c-0.093,0.129,0.005,0.552-0.119,0.645c-0.121,0.094-0.526-0.228-0.558,0.059c-0.039,0.338,0.413,0.081,0.488,0.16
	c0.175,0.184-0.379,0.376-0.42,0.467c-0.128,0.273,0.267,0.486,0.263,0.707c-0.009,0.416-0.405-0.2-0.466,0.05
	c-0.082,0.335,0.427,0.483,0.357,0.698c-0.066,0.205-0.731,0.275-0.726,0.286c0.055,0.128,0.3,0.284,0.325,0.388
	c0.027,0.119-0.183,0.316-0.144,0.435c0.051,0.147,0.384,0.224,0.417,0.376c0.031,0.129-0.329,0.248-0.342,0.352
	c-0.004,0.047,0.059,0.082,0.104,0.094c0.445,0.115,1.718-0.184,2.23-0.238c0.062-0.008,0.125-0.014,0.186-0.021
	c1.921-0.211,3.84-0.436,5.758-0.671c0.562-0.069,1.921-0.417,2.413-0.304c0.345,0.08-0.503,1.786-0.393,2.156
	c0.001,0,0.214,0.182,0.215,0.182c0.064,0.105,0.05,0.299,0.146,0.402c0.201,0.209,0.549,0.289,0.74,0.535
	c0.41,0.527,0.377,1.1,0.781,1.58c0.178,0.211,0.178-0.105,0.376,0.045c0.093-0.085,0.187-0.148,0.284-0.131
	c0.047,0.008,0.065,0.106,0.109,0.09c0.062-0.022,0.091-0.377,0.135-0.438c0.108-0.149,0.451-0.218,0.524-0.385
	c0.145-0.325-0.374-0.282-0.149-0.4c0.069-0.037,0.427-0.032,0.485,0.039l-0.067,0.22c0.027,0.042,0.367-0.11,0.4-0.124
	c0.227-0.082,1.344-0.462,1.457-0.585c0.145-0.158-0.037-0.414,0.4-0.336c0.258,0.046,0.467,0.367,0.732,0.423
	c0.14,0.03,0.545-0.089,0.645-0.196c0.053-0.055-0.01-0.234,0.064-0.221c0.119,0.026,0.117,0.24,0.232,0.283
	c0,0.001,0.378-0.054,0.378-0.054l0.218,0.179l0.158-0.233c0.055-0.03,0.137,0.01,0.188-0.026L19.488,29.496"/>
</svg>
