<?xml version="1.0" encoding="utf-8"?>
<!-- Generator: Adobe Illustrator 16.0.0, SVG Export Plug-In . SVG Version: 6.00 Build 0)  -->
<!DOCTYPE svg PUBLIC "-//W3C//DTD SVG 1.1//EN" "http://www.w3.org/Graphics/SVG/1.1/DTD/svg11.dtd">
<svg version="1.1" id="Layer_1" xmlns="http://www.w3.org/2000/svg" xmlns:xlink="http://www.w3.org/1999/xlink" x="0px" y="0px"
	 width="8px" height="16px" viewBox="0 0 8 16" enable-background="new 0 0 8 16" xml:space="preserve">
<path fill="#FFFFFF" d="M1.165,1.792C1.126,2.023,0.899,2.36,0.823,2.577C0.774,2.716,0.333,3.193,0.369,3.284
	C0.453,3.49,0.837,3.578,0.951,3.771C1.065,3.961,0.83,3.983,0.785,4.049C0.725,4.132,0.872,4.383,0.837,4.48
	C0.809,4.557,0.661,4.497,0.604,4.555c-0.172,0.174,0.133,0.606,0.15,0.737C0.77,5.429,0.748,5.685,0.916,5.801
	c0.171,0.12,0.394-0.038,0.532,0.054c0.212,0.141,0.181,0.6,0.417,0.764c0.159,0.11,0.299-0.071,0.422-0.023
	c0.158,0.059,0.278,0.351,0.455,0.441C2.99,7.165,3.787,7.408,3.92,7.639C3.997,7.771,3.213,8.41,3.1,8.579
	c-0.112,0.163-0.08,0.33-0.238,0.469C2.827,9.076,2.76,9.137,2.76,9.137L2.663,9.253C2.81,9.314,2.469,9.559,2.464,9.566
	C2.378,9.804,2.78,9.77,2.517,9.999c-0.973,0.846-1.074,0.724-1.363,2c-0.02,0.087-0.123,0.168-0.094,0.253
	c0.012,0.041,0.69,1.034,0.224,0.713c-0.047-0.032,0.093,0.063,0.138,0.097c0.128,0.088,0.054,0.043,0.235,0.121
	c0.232,0.1,0.584,0.505,0.821,0.523c0.065,0.006,0.062-0.17,0.125-0.151c0.118,0.03,0.15,0.198,0.257,0.254
	c0.195,0.104,0.582,0.049,0.765,0.204c0.074,0.062,0.004,0.293,0.176,0.279c0.171-0.014,0.323-0.375,0.493-0.382
	c0,0,0.144,0.179,0.145,0.179c0.183-0.013,0.313-0.345,0.556-0.18c0.34,0.229-0.14,1.883,0.365,1.674
	c0.35-0.145,0.697-1.153,0.715-1.465c0.002-0.037,0.043-0.099,0.006-0.113c-0.033,0.045-0.158,0.052-0.158,0.052
	s0.107-0.073,0.158-0.052c0.139-0.184-0.013-0.599,0.127-0.826c0.027-0.047,0.092-0.086,0.084-0.141
	c-0.007-0.076-0.43-0.111-0.336-0.226c0.089-0.109,0.386-0.047,0.477-0.156c0.035-0.043-0.043-0.232,0.057-0.356
	c0.043-0.051,0.105-0.215,0.125-0.152c0.002,0-0.068,0.32-0.068,0.322c0.029,0.133,0.414-0.275,0.42-0.326
	c0.039-0.433-0.5,0.035-0.279-0.581c0.016-0.042,0.004-0.114,0.045-0.128c0.073-0.023,0.098,0.236,0.146,0.177
	c0.138-0.169-0.154-0.465-0.201-0.607c-0.011-0.034-0.067-0.091-0.032-0.102c0.039-0.013,0.603,0.116,0.618,0.021
	c0.019-0.119-0.234-0.134-0.258-0.252c-0.062-0.315,0.547-0.748,0.518-1.072C7.512,9.474,7.258,9.369,7.23,9.247
	c-0.05-0.204,0.168-0.429,0.145-0.611L7.229,8.459c0,0,0.167-0.28,0.166-0.28C7.367,8.093,7.178,8.231,7.127,8.155
	C7.078,8.08,7.229,7.99,7.217,7.9L7.07,7.724C7.088,7.617,7.353,7.583,7.317,7.43C7.313,7.423,7.309,7.418,7.305,7.411
	c-0.039-0.045-0.219,0.005-0.18-0.043c0.066-0.082,0.125-0.049,0.18,0.043c0.002,0.003,0.009,0.003,0.011,0.006
	C7.317,7.422,7.316,7.426,7.317,7.43c0.177,0.339,0.284,1.339,0.304,1.213c0.07-0.455-0.179-1.288-0.328-1.556
	C7.266,7.039,7.291,6.975,7.289,6.919c0-0.056,0-0.113-0.002-0.167C7.285,6.527,7.282,6.302,7.278,6.079
	c-0.007-0.471-0.126-0.984-0.5-1.297C6.744,4.752,6.695,4.672,6.666,4.706l0.143,0.253c-0.02,0.22-0.468-0.015-0.574,0.004
	C6.05,4.997,5.615,5.462,5.426,5.121c-0.07-0.124-0.085-1.085-0.062-1.22c0.027-0.147,0.177-0.366,0.27-0.483
	c0.02-0.024,0.051-0.107,0.061-0.076C5.73,3.456,5.602,3.584,5.641,3.697c0,0.004,0.418-0.406,0.439-0.484
	c0.031-0.115-0.057-0.311-0.059-0.431c-0.01-0.634,0.047-0.986-0.035-1.429c-0.245-0.109-0.843-0.151-1.021-0.19
	c-1.105-0.25-2.212-0.505-3.317-0.765c-0.21,0.218-0.534,0.535-0.569,0.859C1.061,1.429,1.194,1.624,1.165,1.792"/>
</svg>
