<?xml version="1.0" encoding="utf-8"?>
<!-- Generator: Adobe Illustrator 16.0.0, SVG Export Plug-In . SVG Version: 6.00 Build 0)  -->
<!DOCTYPE svg PUBLIC "-//W3C//DTD SVG 1.1//EN" "http://www.w3.org/Graphics/SVG/1.1/DTD/svg11.dtd">
<svg version="1.1" id="Layer_1" xmlns="http://www.w3.org/2000/svg" xmlns:xlink="http://www.w3.org/1999/xlink" x="0px" y="0px"
	 width="36px" height="37px" viewBox="0 0 36 37" enable-background="new 0 0 36 37" xml:space="preserve">
<path fill="#FFFFFF" d="M14.335,34.248c-0.131-0.2-0.289-1.07-0.285-1.074c0.063-0.074,0.818,0.066,0.937,0.076
	c0.937,0.076,1.873,0.148,2.81,0.219c3.906,0.291,7.814,0.534,11.727,0.723c1.145,0.055,2.289,0.107,3.435,0.153
	c0.262,0.013,1.146,0.046,1.146,0.045c0.278-7.28,0.735-14.548,1.011-21.83c0.064-1.702,0.129-3.401,0.193-5.103
	c0.012-0.334-0.068-1.518,0.23-1.508c0.039-1.06,0.08-2.119,0.119-3.18c0,0-0.123-0.006-0.183-0.008
	c-0.306-0.011-0.61-0.023-0.916-0.036c-0.792-0.03-1.587-0.065-2.379-0.102c-2.285-0.104-4.571-0.227-6.854-0.37
	C18.356,1.822,11.397,1.21,4.458,0.428C3.089,12.296,1.717,24.164,0.343,36.031c0.32,0.036,0.639,0.075,0.959,0.111
	c0.95,0.105,1.899,0.209,2.851,0.307c0.147,0.016,0.848,0.184,0.95,0.099c0.197-0.162-0.002-2.656,0.195-2.82
	c0.016-0.013,2.057,0.207,2.272,0.229c1.768,0.173,3.537,0.333,5.307,0.485c0.566,0.049,1.364-0.031,1.896,0.158
	C14.655,34.504,14.418,34.376,14.335,34.248"/>
</svg>
