<?xml version="1.0" encoding="utf-8"?>
<!-- Generator: Adobe Illustrator 16.0.0, SVG Export Plug-In . SVG Version: 6.00 Build 0)  -->
<!DOCTYPE svg PUBLIC "-//W3C//DTD SVG 1.1//EN" "http://www.w3.org/Graphics/SVG/1.1/DTD/svg11.dtd">
<svg version="1.1" id="Layer_1" xmlns="http://www.w3.org/2000/svg" xmlns:xlink="http://www.w3.org/1999/xlink" x="0px" y="0px"
	 width="39px" height="28px" viewBox="0 0 39 28" enable-background="new 0 0 39 28" xml:space="preserve">
<g>
	<g>
		<path fill="#FFFFFF" d="M38.646,21.776c-0.297,0.312-1.73,2.022-2.009,2.089c-0.022,0.005-0.091-0.499-0.302-0.121
			c-0.049,0.09,0.257,0.116,0.107,0.303c-0.244,0.309-0.967,0.684-0.967,0.684s0.364-0.291,0.234-0.31
			c-0.072-0.013-0.623,0.305-0.654,0.344c-0.037,0.048,0.003,0.298-0.123,0.384l-0.19-0.047c-0.16,0.057-0.436,0.316-0.544,0.416
			c-0.106,0.1-0.361,0.055-0.461,0.162c-0.027,0.027,0.016,0.08-0.005,0.113c-0.032,0.055-0.085,0.098-0.144,0.125
			c-0.083,0.041-0.203-0.034-0.28,0.022c-0.181,0.14-0.356,0.397-0.587,0.542c-0.231,0.145-0.516,0.211-0.738,0.365
			c-0.131,0.092-0.248,0.299-0.395,0.361c-0.06,0.025-0.138-0.088-0.189-0.049c-0.304,0.229,0.222,0.15,0.3,0.123
			c0.036-0.012-0.071,0.025-0.106,0.037c-0.125,0.042-0.215,0.074-0.342,0.115c-0.266,0.091-0.54,0.457-0.798,0.496
			c-0.036,0.005,0.031-0.067,0.054-0.094c0.072-0.082,0.639-0.457,0.506-0.547c-0.18-0.122-0.642-0.098-0.617,0.209
			c0.007,0.102,0.359-0.073,0.145,0.177c-0.281,0.327-0.533,0.312-0.765,0.031c-0.171-0.208,0.295-1.169,0.509-1.298
			c0.1-0.061,0.357,0.037,0.42-0.03c0.102-0.107-0.197-0.374,0.069-0.304c0.04,0.008,0.271-0.06,0.214-0.13
			c0,0-0.266-0.022-0.266-0.023c-0.152-0.233,0.418-0.09,0.422-0.105c0.076-0.269-0.18-0.403,0.21-0.562
			c0.093-0.037,0.435,0.017,0.496-0.057c0.019-0.02-0.243-0.221-0.181-0.276c0.176-0.163,0.311,0.21,0.411,0.198l0.272-0.207
			c0.006-0.045-0.121-0.031-0.113-0.075c0.037-0.146,0.547-0.077,0.65-0.11c0.353-0.113,0.341-0.628,0.475-0.617l0.068,0.201
			c0.033,0.01,0.041-0.051,0.061-0.076c0.219-0.285,0.92-0.43,1.256-0.568c0.756-0.312,1.187-0.801,1.652-1.423
			c0.065-0.085,0.288-0.815,0.543-0.649c0.287,0.189-0.382,0.334-0.543,0.649c-0.168,0.333,0.148,0.226,0.145,0.403l-0.229,0.08
			c-0.031,0.104,0.141,0.201,0.108,0.303c-0.024,0.073-0.071-0.168-0.148-0.174c-0.083-0.006-0.476,0.73-0.473,0.773
			c0.007,0.082,0.714-0.135,0.765-0.196c0.046-0.056-0.08-0.132-0.072-0.202c0.024-0.189,0.271-0.361,0.35-0.466
			c0.045-0.057-0.114-0.144-0.072-0.2c0.131-0.174,0.287,0.201,0.42-0.037l-0.073-0.201c0.22-0.079,0.083,0.197,0.302,0.119
			c0.089-0.032-0.114-0.252,0.079-0.257c0.137-0.004,0.325,0.208,0.415,0.191c0.244-0.046,0.572-0.741,0.656-0.808
			c0.059-0.047,0.239,0.027,0.207,0.097C38.756,21.721,38.646,21.776,38.646,21.776"/>
	</g>
	<path fill="#FFFFFF" d="M30.284,24.379c-0.021-0.119,0.841-0.926,0.831-1.074c-0.009-0.121-0.412-0.289-0.479-0.401
		c-0.063-0.105-0.064-0.239-0.098-0.358c-0.385-1.434-0.771-2.867-1.158-4.301c-0.367-0.252-0.248-0.836-0.266-1.267
		c-0.046-1.115-0.098-2.23-0.148-3.345c0,0-0.23-0.213-0.289-0.354c-0.152-0.375-0.205-0.915-0.331-1.324
		c-0.279-0.909-0.608-2.863-1.312-3.434c-0.539-0.437-0.156,0.583-0.66,0.228c-0.008-0.056-0.012-0.11-0.018-0.165
		c-0.005-0.055-0.012-0.109-0.016-0.164c-0.031-0.492-0.055-0.954-0.233-1.394c-0.028-0.073-0.419-0.803-0.46-0.861l-0.215-0.152
		c-0.09-0.177-0.126-0.791-0.095-0.988c0.019-0.125,0.192-0.279,0.187-0.404c-0.014-0.229-0.27-0.458-0.317-0.685
		c-0.038-0.171,0.104-0.418,0.042-0.582c-0.129-0.339-0.637-0.53-0.783-0.863c-0.139-0.318,0.018-0.775-0.133-1.089
		c-0.064-0.132-0.297-0.194-0.354-0.331c-0.099-0.235,0.048-0.512-0.181-1.002C22.834,0.423,21.867,0.773,20.89,1.1
		c-0.934,0.314-1.876,0.699-2.832,0.937c-0.225,0.055-0.548,0.029-0.754,0.132c-0.179,0.091-0.369,0.362-0.516,0.504
		c-0.922,0.901-1.568,2.042-2.102,3.209c-0.121,0.261-0.231,0.572-0.354,0.868c0.339,0.414-1.285,2.08-1.472,2.38
		c-0.08,0.125-0.52,0.497-0.444,0.68c0.072,0.173,0.138,0.101,0.289,0.16c0.126,0.049,0.05,0.267,0.134,0.271
		c0.068,0.003,0.188-0.617,0.34-0.397c0.053,0.075,0.21-0.165,0.283-0.074c0.035,0.043-0.071,0.197-0.021,0.168
		c0.293-0.168,0.122,0.08-0.014,0.241c-0.05,0.059-0.148,0.236-0.073,0.22c0.288-0.06,0.477-0.371,0.623-0.366
		c0.148,0.006-0.238,0.453-0.24,0.457c-0.047,0.093,0.021,0.426-0.177,0.654c-0.051,0.06-0.113-0.119-0.131-0.195
		c-0.01-0.041-0.064,0.053-0.092,0.083c-0.073,0.079-0.212,0.124-0.162,0.272c0.024,0.07,0.309,0.026,0.346,0.14
		c0.045,0.143,0.279,0.345,0.296,0.452c0.023,0.164,0.011,0.415,0.145,0.546c0.034,0.033,0.046-0.35,0.169-0.141
		c0.036,0.062-0.125,0.226-0.116,0.317c0.02,0.192,0.154,0.111,0.184,0.193c0.026,0.071-0.092,0.122-0.117,0.193
		c-0.229,0.674-0.651,0.213-0.816,0.413c-0.206,0.251-0.243,0.419-0.505,0.638c-0.169,0.14-0.354,0.455-0.424,0.673
		c-0.022,0.066,0.054,0.277-0.015,0.318c-0.052,0.031-0.112-0.114-0.195-0.025c-0.28,0.301-0.424,0.317-0.739,0.578
		c-0.097,0.079,0.118,0.23,0.003,0.272c-0.191,0.07-0.158-0.165-0.229-0.142c-0.251,0.085-0.496,0.051-0.75,0.125
		c-0.545,0.158-1.027,0.324-1.474,0.666c-0.103,0.078-0.199,0.173-0.333,0.185c-0.327,0.03-0.61-0.286-0.845-0.331
		c-0.492-0.094-1.332,0.041-1.818,0.154c-1.56,0.367-2.772,1.039-4.115,1.896l-0.031,0.01c0.004,0.01,0.016,0.023,0.018,0.031
		c0.156,0.312,0.113,0.727,0.278,1.034c0.055,0.104,0.187,0.161,0.234,0.271c0.015,0.035-0.008,0.075-0.009,0.113
		c-0.005,0.037-0.031,0.081-0.012,0.113c0.16,0.256,0.592,0.281,0.745,0.486l0.039-0.014c0.059-0.115,0.47,0.489,0.415,0.738
		c-0.101,0.451-0.611,0.527-0.679,1.021c-0.013,0.099-0.139,0.215-0.173,0.313c-0.001,0.009-0.033,0.338-0.04,0.342
		c-0.95,0.551-1.424,1.74-2.219,2.522c-0.052,0.052-0.111,0.11-0.176,0.177c0.236,0.848,0.445,1.59,0.454,1.594
		c0.138,0.083,0.928-0.239,1.101-0.285c1.101-0.285,2.2-0.578,3.298-0.874c4.392-1.187,8.763-2.45,13.111-3.79
		c0.374-0.115,2.708-0.945,2.895-0.905c0.365,0.077,0.444,0.579,0.638,0.694c0.158,0.092,0.599-0.266,0.828-0.039
		c0.002,0.001-0.012,0.228-0.011,0.229c0.001,0,0.261,0.027,0.262,0.027c0.112,0.105,0.165,0.87,0.251,1.043
		c0.064,0.135,0.508,0.65,0.643,0.693c0,0,0.307-0.1,0.309-0.099c0.088,0.009,0.132,0.136,0.219,0.153
		c0.201,0.039,0.443-0.136,0.645-0.097c0.193,0.037,0.396,0.433,0.396,0.433c1.105,0.26,2.211,0.516,3.316,0.766
		c0.18,0.039,0.777,0.08,1.021,0.189c-0.039-0.213-0.107-0.441-0.234-0.736c-0.082-0.189-0.953-0.883-0.589-1.156
		c0.136-0.102,0.133,0.398,0.137,0.405c0.159,0.262,0.407,0.229,0.681,0.815c0.447,0.968,0.057,2.424,0.177,2.506
		c0.108,0.071,0.179-0.584,0.217-0.637c0.066-0.094,0.487-0.178,0.505-0.283l-0.18-0.277C30.32,25.9,30.42,25.94,30.457,25.9
		c0.123-0.134,0.025-0.466,0.137-0.61l0.23-0.078l0.051-0.356C30.777,24.775,30.305,24.494,30.284,24.379"/>
</g>
</svg>
