<?xml version="1.0" encoding="utf-8"?>
<!-- Generator: Adobe Illustrator 16.0.0, SVG Export Plug-In . SVG Version: 6.00 Build 0)  -->
<!DOCTYPE svg PUBLIC "-//W3C//DTD SVG 1.1//EN" "http://www.w3.org/Graphics/SVG/1.1/DTD/svg11.dtd">
<svg version="1.1" id="Layer_1" xmlns="http://www.w3.org/2000/svg" xmlns:xlink="http://www.w3.org/1999/xlink" x="0px" y="0px"
	 width="9px" height="17px" viewBox="0 0 9 17" enable-background="new 0 0 9 17" xml:space="preserve">
<path fill="#FFFFFF" d="M0.648,4.465c0.15,0.314-0.007,0.771,0.133,1.089c0.146,0.333,0.654,0.524,0.782,0.863
	c0.062,0.164-0.079,0.41-0.041,0.582C1.57,7.225,1.825,7.455,1.839,7.684c0.007,0.125-0.167,0.279-0.186,0.404
	C1.622,8.285,1.658,8.898,1.747,9.075l0.216,0.151c0.041,0.06,0.432,0.79,0.46,0.862c0.179,0.44,0.202,0.902,0.233,1.395
	c0.004,0.055,0.011,0.109,0.016,0.164c0.006,0.055,0.01,0.109,0.017,0.164c0.505,0.356,0.122-0.664,0.661-0.227
	c0.703,0.57,1.032,2.524,1.312,3.434c0.126,0.41,0.179,0.949,0.33,1.324c0.059,0.141,0.29,0.354,0.29,0.354
	c1.202-0.379,2.405-0.764,3.604-1.153c0,0-0.138-0.116-0.221-0.149c-0.355-0.138-0.763-0.688-0.653-1.131
	c0.001-0.004,0.223-0.305,0.225-0.307c0.088-0.42-0.747-2.88-0.896-3.436c-0.072-0.267,0.143-0.226,0.186-0.406
	c0.051-0.229-0.129-0.522-0.108-0.759c0.015-0.184,0.197-0.352,0.22-0.535c0.024-0.213-0.092-0.442-0.074-0.656
	c0.018-0.198,0.203-0.44,0.182-0.636C7.736,7.453,7.616,7.428,7.601,7.353c-0.047-0.221,0.096-0.484,0.07-0.709
	C7.624,6.229,7.245,5.846,7.304,5.408C7.371,4.921,7.72,5.064,7.987,4.817c0.076-0.072,0.049-0.291,0.105-0.382
	C8.3,4.113,8.815,3.872,8.769,3.389c0,0-0.184-0.274-0.184-0.275c0-0.085,0.198-0.099,0.177-0.18
	C8.678,2.603,8.116,2.393,8.032,2.061C7.951,1.727,8.341,1.281,8.271,0.944C8.244,0.823,7.833,0.473,7.929,0.304
	C7.735,0.41,7.276,0.511,7.155,0.555C6.207,0.903,5.257,1.248,4.307,1.59C2.904,2.092,1.512,2.618,0.113,3.132
	c0.229,0.49,0.081,0.768,0.181,1.003C0.352,4.271,0.584,4.333,0.648,4.465"/>
</svg>
