<?xml version="1.0" encoding="utf-8"?>
<!-- Generator: Adobe Illustrator 16.0.0, SVG Export Plug-In . SVG Version: 6.00 Build 0)  -->
<!DOCTYPE svg PUBLIC "-//W3C//DTD SVG 1.1//EN" "http://www.w3.org/Graphics/SVG/1.1/DTD/svg11.dtd">
<svg version="1.1" id="Layer_1" xmlns="http://www.w3.org/2000/svg" xmlns:xlink="http://www.w3.org/1999/xlink" x="0px" y="0px"
	 width="26px" height="29px" viewBox="0 0 26 29" enable-background="new 0 0 26 29" xml:space="preserve">
<path fill="#FFFFFF" d="M2.533,2.515c0,0-0.041,0.326-0.042,0.327c-0.092,0.082-0.29-0.06-0.366,0.036
	C2.041,2.982,2.2,3.663,2.213,3.811c0.058,0.598,0.383,2.316,0.27,2.801C2.355,7.167,1.164,7.485,0.805,7.846
	C0.536,8.115,0.676,8.567,0.519,8.84c-0.083,0.147-0.346,0.208-0.418,0.36c-0.025,0.052,0,0.115,0,0.172
	c0,0.114,0.001,0.229,0.001,0.344c0,0.646,0.3,0.258,0.692,0.498c0.11,0.067,0.415,0.585,0.442,0.713
	c0.093,0.438-0.271,0.665-0.363,1.002c-0.095,0.344,0.207,0.736,0.172,1.061c-0.01,0.106-0.207,0.237-0.197,0.341
	c0.022,0.241,0.342,0.512,0.303,0.833c-0.014,0.115-0.222,1.147-0.197,1.202c0.041,0.088,1.088,0.791,1.227,0.856
	c0.286,0.134,0.665,0.088,0.943,0.235c0.22,0.114,0.369,0.359,0.583,0.482c0.45,0.253,1.155,0.34,1.533,0.709
	c0.331,0.324,0.322,0.824,0.731,1.111c0.275,0.193,0.677,0.557,0.998,0.65c0.113,0.034,0.267-0.072,0.381-0.039
	c0.519,0.148,1.129,0.879,1.313,1.367c0.234,0.619,0.141,1.281,0.442,1.891c0,0-0.022,0.633,0.171,0.845s0.505,0.102,0.602,0.472
	c0.086,0.329-0.383,0.748-0.349,1.117c0.032,0.348,0.214,0.941,0.375,1.251c0.059,0.112,0.217,0.179,0.27,0.294
	c0.103,0.222,0.053,0.518,0.163,0.736c0.395,0.789,2.026-0.307,2.222,1.361c4.454-0.522,8.905-1.086,13.35-1.694h0.003
	c-0.048-0.323-0.15-0.647-0.205-0.968c-0.053-0.3,0.229-0.67,0.071-0.982c-0.093-0.185-0.302-0.286-0.417-0.459
	c-0.123-0.18-0.029-0.485-0.154-0.697c-0.07-0.123-0.277-0.119-0.305-0.244c-0.032-0.142,0.123-0.234,0.104-0.373
	c-0.018-0.132-0.148-0.151-0.169-0.27c-0.022-0.128,0.068-0.237,0.034-0.373c-0.039-0.156-0.22-0.217-0.207-0.404
	c0.033-0.511,0.273-1.105,0.288-1.549c0.005-0.17-0.12-0.365-0.079-0.529c0.098-0.406,0.348-0.682,0.275-1.117
	c-0.043-0.274-0.168-0.414-0.246-0.687c-0.149-0.506,0.047-1.11,0.128-1.608c0.061-0.373,0.555-0.401,0.575-0.832
	c0.018-0.327-0.346-0.453-0.354-0.789c-0.012-0.398,0.095-0.896,0.114-1.315c0.017-0.303,0.632-1.705,0.394-1.871
	c-0.104-0.073-0.317-0.086-0.391-0.183c-0.072-0.098-0.045-0.234-0.195-0.287c-0.056-0.02-0.094,0.105-0.104,0.118
	c-0.194,0.287-0.618,0.212-0.793,0.549c-0.183,0.355-0.146,0.698-0.297,1.048c-0.035,0.082-0.348,0.199-0.426,0.288
	c-0.139,0.16-0.484,1.074-0.793,0.403c-0.033-0.075,0.064-0.156,0.066-0.238c0.006-0.666,0.354-1.165,0.564-1.818
	c0.043-0.14-0.148-0.272-0.035-0.417c0.166-0.216,0.617-0.191,0.807-0.421c0.09-0.106,0.051-0.464,0.027-0.755
	c-0.031-0.005-0.064-0.012-0.088-0.017c-0.114-0.021-0.461-0.291-0.522-0.406c-0.134-0.25,0.29-1.122,0.192-1.224
	c-0.219-0.228-0.938,0.469-1.041,0.161c-0.143-0.423,0.227-0.589,0.242-0.905c0.007-0.127-0.225-0.274-0.213-0.401
	c0-0.001,0.189-0.246,0.189-0.246c0.002-0.094-0.257-0.19-0.271-0.284l0.117-0.235C22.729,6.53,22.194,6.33,22.05,6.246
	c0,0-0.103-0.008-0.154-0.013c-0.211-0.019-0.411-0.047-0.618-0.088c-0.035-0.007-0.011-0.071-0.017-0.107
	c-0.051-0.351,0.114-0.402-0.109-0.741c-0.232-0.354-0.707,0.007-0.99-0.072c-0.002,0-0.177-0.19-0.179-0.19
	c-0.187-0.058-0.501,0.035-0.678-0.01c-0.229-0.058-0.411,0.201-0.574,0.19c-0.123-0.007-0.204-0.165-0.327-0.17
	c-0.104-0.004-0.174,0.133-0.277,0.148c-0.439,0.061-1.172-0.513-1.594-0.646c-0.747-0.235-1.701-0.213-2.473-0.315
	c-0.422-0.054-1.788-0.09-2.091-0.28c-0.287-0.181-0.306-0.79-0.571-1.009c-0.116-0.097-0.336-0.08-0.464-0.16
	c-0.066-0.041-0.026-0.187-0.1-0.205c-0.251-0.058-0.21,0.273-0.367-0.043c-0.059,0.056-0.119,0.102-0.175,0.098
	c-0.288-0.02-0.665-0.25-0.965-0.346C9.312,2.282,8.898,1.889,8.884,1.936C8.727,2.462,9.092,1.851,8.977,2.202
	C8.92,2.374,8.195,2.84,8.098,2.67C8.007,2.508,8.396,2.13,8.44,1.986c0.029-0.09-0.115-0.228-0.14-0.304
	C8.18,1.329,8.989,0.844,8.527,0.398C8.466,0.34,8.437,0.46,8.381,0.446c-0.062-0.017-0.051-0.12-0.161-0.15
	C8.02,0.242,7.467,0.865,7.425,0.878C7.228,0.936,6.988,1.207,6.82,1.174c-0.027-0.005,0.05-0.268-0.041-0.208
	c-0.467,0.304-0.66,0.698-1.145,0.901c-0.728,0.305-1.88,1.037-2.549,0.481C3.025,2.295,2.955,2.246,2.919,2.18
	c-0.032,0.041-0.09,0.119-0.124,0.166C2.708,2.463,2.6,2.445,2.533,2.515"/>
</svg>
