<?xml version="1.0" encoding="utf-8"?>
<!-- Generator: Adobe Illustrator 16.0.0, SVG Export Plug-In . SVG Version: 6.00 Build 0)  -->
<!DOCTYPE svg PUBLIC "-//W3C//DTD SVG 1.1//EN" "http://www.w3.org/Graphics/SVG/1.1/DTD/svg11.dtd">
<svg version="1.1" id="Layer_1" xmlns="http://www.w3.org/2000/svg" xmlns:xlink="http://www.w3.org/1999/xlink" x="0px" y="0px"
	 width="10px" height="10px" viewBox="0 0 10 10" enable-background="new 0 0 10 10" xml:space="preserve">
<path fill="#FFFFFF" d="M9.398,3.743C9.127,3.044,8.854,2.347,8.582,1.65C8.453,1.32,8.16,0.413,8.1,0.402
	C7.824,0.353,7.164,0.744,6.893,0.841C6.154,1.108,5.179,1.327,4.607,1.774C4.592,1.788,3.949,1.799,3.819,1.94
	C3.728,2.041,3.917,2.133,3.74,2.195C3.564,2.257,3.653,2.063,3.52,2.046C3.177,2.003,0.968,2.839,0.471,2.992
	c0.387,1.434,0.773,2.867,1.158,4.301C1.661,7.412,1.663,7.545,1.726,7.65c0.067,0.112,0.47,0.281,0.479,0.402
	C2.215,8.2,1.353,9.007,1.374,9.127c0.02,0.115,0.493,0.396,0.591,0.476c0.025-0.181,0.551-0.472,0.663-0.565
	C2.783,8.91,2.808,8.62,2.949,8.476c0.126-0.13,0.385-0.147,0.5-0.286c0.096-0.115,0.136-0.387,0.278-0.436
	C3.941,7.68,3.764,7.92,3.874,7.929c0.133,0.011,0.655-1.084,0.7-1.122c0.206-0.172,0.17,0.047,0.31,0.09
	c0.204,0.064,0.372-0.231,0.498-0.288c0.116-0.054,0.302,0.026,0.417-0.034c0.101-0.054,0.129-0.264,0.233-0.309
	C6.234,6.175,6.513,6.32,6.561,6.305l0.156-0.284c0.125-0.1,0.428-0.069,0.531-0.19c0.121-0.14-0.414-0.371-0.332-0.449
	c0.258-0.244,0.32,0.801,0.789,0.285C7.766,5.6,7.699,5.44,7.785,5.411c0.117-0.044,0.451-0.018,0.49-0.064
	c0.078-0.092-0.057-0.289,0.043-0.356c0.115-0.08,0.271,0.235,0.453,0.063c0.062-0.062,0.006-0.2,0.076-0.256
	c0.195-0.154,0.506,0.044,0.682-0.02c0,0-0.207-0.326-0.184-0.502C9.389,3.94,9.637,4.353,9.398,3.743"/>
</svg>
