<?xml version="1.0" encoding="utf-8"?>
<!-- Generator: Adobe Illustrator 16.0.0, SVG Export Plug-In . SVG Version: 6.00 Build 0)  -->
<!DOCTYPE svg PUBLIC "-//W3C//DTD SVG 1.1//EN" "http://www.w3.org/Graphics/SVG/1.1/DTD/svg11.dtd">
<svg version="1.1" id="Layer_1" xmlns="http://www.w3.org/2000/svg" xmlns:xlink="http://www.w3.org/1999/xlink" x="0px" y="0px"
	 width="22px" height="36px" viewBox="0 0 22 36" enable-background="new 0 0 22 36" xml:space="preserve">
<path fill="#FFFFFF" d="M21.419,23.18c-0.053-0.137-0.197-0.258-0.232-0.396c-0.015-0.059,0-0.119,0-0.18
	c0.001-0.061,0.001-0.119,0.001-0.18s0.02-0.123,0-0.18C21.062,21.9,20.56,21.6,20.36,21.293c-0.193-0.297,0.304-0.373,0.33-0.592
	c0.025-0.182-0.358-0.408-0.344-0.592c0.016-0.203,0.398-0.256,0.444-0.395c0.112-0.334-0.3-1.989-0.367-2.432
	c-0.632-4.189-1.266-8.378-1.898-12.566l0.003-0.011c-0.686-0.416-0.65-1.454-1.076-2.099c-0.077-0.117-0.265-0.119-0.368-0.199
	c-0.249-0.192-0.544-0.815-0.6-1.115c-0.07-0.38,0.01-0.728-0.028-1.117c-0.005-0.039-0.014-0.079-0.02-0.118h-0.002
	C11.99,0.666,7.539,1.23,3.085,1.752c-0.15,0.264,0.688,0.62,0.909,0.755c0.285,0.174,0.187,0.48,0.382,0.709
	C4.894,3.821,5.73,3.669,5.835,4.656c0.029,0.277-0.061,0.953-0.173,1.207C5.579,6.051,5.322,6.16,5.237,6.347
	C5.09,6.671,5.268,7.143,5.125,7.438C4.969,7.766,4.411,7.829,4.138,7.987C3.944,8.1,3.831,8.378,3.63,8.477
	C3.381,8.6,2.067,8.662,1.971,8.882c-0.722,1.676,0.921,1.71,0.727,2.823c-0.058,0.329-0.456,0.602-0.551,0.923
	c-0.104,0.351-0.084,0.731-0.205,1.099c-0.044,0.127-1.079,0.483-1.229,0.778c-0.069,0.131,0.824,1.093,0.043,1.177
	c0,0-0.121,0.066-0.151,0.124c-0.16,0.295-0.101,0.763-0.093,1.083c0.014,0.434,0.059,0.863,0.259,1.26
	c0.067,0.136,0.247,0.256,0.292,0.398c0.04,0.129-0.077,0.306-0.036,0.434c0.044,0.145,0.228,0.26,0.292,0.397
	c0.071,0.15,0.046,0.385,0.139,0.523c0.315,0.467,1.103,0.705,1.53,1.012c0.164,0.117,0.233,0.365,0.389,0.494
	c0.468,0.385,1.291,0.5,1.553,1.111c0.097,0.225,0.061,0.512,0.169,0.73c0.039,0.082,0.163,0.107,0.191,0.193
	c0.106,0.332-0.073,1.1,0.577,1.326c0.374,0.133,0.575-0.477,0.853-0.637c0.144-0.082,1.469,0.5,1.604,0.664
	c0.18,0.221-0.231,0.572-0.244,0.781c-0.009,0.17,0.159,0.35,0.149,0.52c-0.045,0.773-1.196,1.842-0.615,2.648
	c0.173,0.24,0.529,0.604,0.777,0.764c0.126,0.08,0.331,0.066,0.448,0.158c0.095,0.076,0.117,0.217,0.208,0.297
	c0.188,0.166,0.782,0.17,0.897,0.316c0.111,0.143-0.162,0.268,0.053,0.422c0.288,0.209,0.268-0.18,0.494-0.168
	c0.092,0.002,0.119,0.143,0.197,0.188c0.128,0.078,0.334,0.066,0.451,0.158c0.181,0.141,0.234,0.455,0.421,0.588
	c0.171,0.125,0.578,0.072,0.718,0.229c0.144,0.16,0.025,0.643,0.111,0.844c0.12,0.289,0.52,0.48,0.621,0.775
	c0.157,0.455-0.366,0.516-0.301,1.006l0.27,0.07l0.042,0.316c0.101,0.223,0.409,0.352,0.511,0.576
	c0.044,0.096-0.021,0.229,0.042,0.314c0.032,0.047,0.504,0.26,0.556,0.248c0.294-0.078-0.422-0.363-0.156-0.516
	c0.247-0.143,0.389,0.494,0.598,0.562c0.204,0.068,0.259-0.127,0.445,0.047c0,0-0.068-0.062-0.102-0.094
	c-0.189-0.176-0.207-0.246-0.242-0.502c-0.008-0.059,0.562-1.008,0.64-1.055c0.745-0.434,2.044,0.682,2.868,0.562
	c0.051-0.008,0.043-0.096,0.065-0.143c0.471-1.021-0.848-0.783-0.355-1.854c0.117-0.256,0.382-0.074,0.581-0.193l0.139-0.234
	c0.289-0.244,0.745-0.215,1.072-0.373c0.061-0.029,0.144-0.064,0.154-0.131c0.076-0.455-0.568-0.514-0.564-0.883
	c0.004-0.363,0.396-0.809,0.52-1.152c0,0-0.472-0.336-0.365-0.52l0.271-0.113c0.001-0.002-0.229-0.918-0.227-0.934
	c0.018-0.104,0.238-0.078,0.259-0.182c0.065-0.328-0.251,0.104-0.108-0.244c0.052-0.125,0.283-0.172,0.342-0.293
	c0.016-0.033,0.008-0.078-0.016-0.105c-0.257-0.312-0.383-0.266-0.195-0.725c0.124-0.305,0.104,0.053,0.252-0.039
	c0.064-0.039-0.023-0.211,0.05-0.223c0.048-0.006,0.068,0.062,0.102,0.092c0.033,0.033,0.062,0.119,0.101,0.094
	c0.051-0.037,0.02-0.123,0.029-0.184c0.053-0.342,0.16-0.281,0.292-0.512c0.068-0.121-0.021-0.322,0.019-0.436
	c0.08-0.227,0.367-0.275,0.452-0.391c0.044-0.061-0.167-0.332-0.147-0.41c0.023-0.107,0.186-0.143,0.217-0.248l-0.049-0.314
	C21.188,23.912,21.711,23.943,21.419,23.18"/>
</svg>
