<?xml version="1.0" encoding="utf-8"?>
<!-- Generator: Adobe Illustrator 16.0.0, SVG Export Plug-In . SVG Version: 6.00 Build 0)  -->
<!DOCTYPE svg PUBLIC "-//W3C//DTD SVG 1.1//EN" "http://www.w3.org/Graphics/SVG/1.1/DTD/svg11.dtd">
<svg version="1.1" id="Layer_1" xmlns="http://www.w3.org/2000/svg" xmlns:xlink="http://www.w3.org/1999/xlink" x="0px" y="0px"
	 width="24px" height="11px" viewBox="0 0 24 11" enable-background="new 0 0 24 11" xml:space="preserve">
<path fill="#FFFFFF" d="M1.515,7.473l0.323-0.086l0.079-0.352c0.102-0.211,0.354-0.35,0.455-0.562
	c0.081-0.168,0.032-0.471,0.291-0.519C2.839,5.922,3.017,6.19,3.201,6.031C3.378,5.88,3.38,5.474,3.517,5.284l0.212-0.168
	C3.729,5.07,3.634,5.078,3.622,5.034C3.59,4.918,3.58,4.665,3.698,4.683c0.457,0.063,0.024,0.18,0.271,0.368
	c0.259,0.193,1.636-0.008,1.631-0.335C5.6,4.626,5.386,4.645,5.383,4.554c0-0.09,0.203-0.078,0.212-0.169
	c0.007-0.065-0.197,0.007-0.189-0.058C5.414,4.287,5.71,4.024,5.75,4.011C5.751,4.01,6.098,4.025,6.099,4.024
	C6.267,3.941,6.273,3.576,6.464,3.48c0.439-0.222,0.691,0.297,1.05,0.371c0.118,0.022,0.779-0.298,0.799-0.227
	C8.392,3.9,8.157,3.835,8.162,4.002c0.005,0.276,0.344,0.006,0.35,0.012c0.021,0.03-0.008,0.076-0.013,0.114
	C8.496,4.166,8.454,4.227,8.487,4.242C8.589,4.288,8.733,4.07,8.807,4.15c0,0.001-0.071,0.354-0.071,0.354
	C8.768,4.581,9.062,4.55,9.114,4.619c0.131,0.172-0.069,0.355,0.147,0.513c0.383,0.012,1.286-0.03,1.539,0.224
	c0.172,0.174-0.572,0.828,0.295,1.025c0.281,0.063,0.593-0.281,0.913-0.152c0.144,0.056,0.219,0.279,0.361,0.338
	c0.001,0,0.288-0.01,0.289-0.01c0.047-0.002,0.101-0.027,0.145-0.006c0.067,0.035,0.14,0.181,0.14,0.181s0.087-0.487,0.281-0.526
	c0.064-0.014,0.803,0.365,0.825,0.424c0.044,0.121-0.21,0.584-0.316,0.801c0.087,0.242,0.157,0.505,0.114,0.592
	c-0.055,0.109-0.318,0.111-0.375,0.221c-0.055,0.107,0.099,0.327,0.039,0.433l-0.293,0.196c-0.227,0.256,0.172,0.102,0.14,0.182
	c0,0-0.293,0.195-0.293,0.197c-0.158,0.244,0.032,0.745,0.186,0.943c0.165,0.211,0.646,0.088,0.651-0.19l-0.172-0.282
	c0.077-0.19,0.359,0.35,0.516-0.041c0.021-0.051-0.002-0.109-0.004-0.165c0-0.054-0.058-0.155-0.004-0.165
	c0.059-0.01,0.063,0.1,0.096,0.148c0.232,0.357,0.545,0.898,1.026,0.964c0.481,0.063-0.35-0.709-0.091-0.752
	c0.253-0.04,0.394,0.597,0.527,0.733c0.201,0.205,0.623-0.152,0.842-0.141c0.131,0.006,0.736,0.488,0.755,0.44
	c0.04-0.102-0.216-0.311,0.05-0.126c0.037,0.024,0.067,0.09,0.113,0.077c0.076-0.022-0.088-0.544,0.039-0.458
	c0.21,0.146,0.235,0.787,0.693,0.682c0.039-0.01,0.047-0.072,0.045-0.111c-0.064-0.663-0.542-0.701-0.57-0.991
	c-0.006-0.048,0.012-0.103-0.016-0.144c-0.168-0.255-0.412,0.107-0.612-0.074c-0.081-0.074-0.083-0.219-0.172-0.281
	c-0.112-0.077-0.341-0.029-0.467-0.083c-0.378-0.159-0.825-0.632-0.813-1.074c0.002-0.065,0.369,0.583,0.418,0.638
	c0.09,0.104,1.314,0.608,1.328,0.602c0.57-0.342-0.608-0.877-0.774-1.102c-0.22-0.299-0.179-0.816-0.417-1.098
	c-0.088-0.104-0.285-0.02-0.254-0.258c0.008-0.053,0.28-0.596,0.168-0.607c-0.113-0.012-0.225,0.361-0.201,0.061
	c0.008-0.072-0.127-0.125-0.102-0.192c0.015-0.035,0.295-0.017,0.211-0.174c-0.035-0.065-0.658-0.247-0.284-0.36l0.275,0.141
	c0.155-0.099-0.377-0.282-0.136-0.405c0.094-0.048,0.228,0.047,0.361-0.108c0.201-0.233-0.828-0.387-0.746-0.443
	c0.079-0.055,0.515,0.092,0.542,0.059c0.067-0.077-0.281-0.546-0.345-0.564c-0.054-0.015-0.105,0.045-0.16,0.049
	c-0.032,0.003-0.063-0.018-0.095-0.026c-0.032-0.01-0.073-0.003-0.097-0.026l-0.062-0.205c-0.016-0.008-0.481,0.11-0.468-0.04
	c0.031-0.388,0.691,0.036,0.947-0.105l0.131-0.149c-0.015-0.017-0.544-0.056-0.492-0.186c0.096-0.246,0.333,0.229,0.431-0.019
	c0.007-0.02-0.536-0.284-0.284-0.36c0.143-0.042,0.158,0.175,0.301,0.133c0.068-0.021-0.107-0.151-0.062-0.205
	c0.036-0.042,0.124-0.006,0.16-0.049c0.205-0.239-0.717-0.024-0.29-0.283c0.083-0.049,0.155-0.18,0.247-0.149
	c0.18,0.064,0.115,0.383,0.379,0.387c0.031,0.001-0.171-0.647-0.154-0.789c0.008-0.065,0.09-0.204,0.128-0.15
	c0.05,0.074-0.002,0.747,0.267,0.588c0.064-0.039,0.496-0.646,0.48-0.706c-0.002-0.004-0.557-0.271-0.22-0.713
	c0.111-0.145,0.355,0.031,0.43-0.02c0-0.001,0.093-0.254,0.095-0.254c0.088-0.074-0.049,0.658-0.051,0.686
	c0,0.036-0.002,0.112,0.033,0.103c0.166-0.053,0.51-0.793,0.572-0.959c0.02-0.052,0.005,0.11,0.008,0.165
	c0.007,0.133-0.185,0.368-0.167,0.442c0.021,0.086,0.261-0.018,0.255,0.07c-0.006,0.062-0.837,0.543-0.434,0.7
	c0.148,0.059,0.402-0.065,0.562-0.04c0.129,0.02-0.234,0.116-0.359,0.155c-0.107,0.033-0.773,0.158-0.807,0.248
	c-0.026,0.067,0.088,0.138,0.062,0.204c0,0.001-0.209,0.175-0.209,0.176c-0.084,0.167-0.23,0.992-0.168,1.165l0.223,0.155
	c0.06,0.09,0.066,0.459,0.155,0.51c0.311,0.178,0.074-0.558,0.085-0.583c0.056-0.146,0.104-0.088,0.16-0.049
	c0.039,0.028,0.326-0.238,0.294-0.089c-0.052,0.232-0.206,0.303-0.281,0.42c-0.042,0.066,0.282,0.223,0.124,0.407
	c-0.294,0.344-0.586-0.072-0.701,0.169c-0.033,0.073-0.029,0.843,0.051,0.864c0.057,0.016,0.125-0.045,0.146-0.1l-0.143-0.18
	C16.813,5.613,17,5.695,17.072,5.609c0.022-0.025-0.055-0.233,0.081-0.275c0.439-0.134,0.172,0.299,0.383,0.357l0.098-0.253
	l0.062,0.204c0.076,0.051,0.279-0.063,0.272,0.027c-0.015,0.188-0.468,0.172-0.276,0.531c0.115,0.216,0.49-0.264,0.229,0.078
	c-0.246,0.322-0.441-0.353-0.694-0.16c-0.229,0.176-0.226,0.813-0.042,1.016c0.078,0.084,0.025-0.74,0.137-0.709
	c0,0,0.028,0.287,0.029,0.287c0.096,0.059,0.258-0.5,0.355-0.182c0.008,0.031-0.189,0.502,0.123,0.408
	c0.139-0.043-0.041-0.211,0.1-0.254l0.062,0.203c0.108,0.03,0.251-0.186,0.321-0.098c0.002,0-0.178,0.277-0.178,0.277
	c0.023,0.08,0.162-0.107,0.241-0.074c0.032,0.015,0.009,0.074,0.03,0.102c0.029,0.035,0.068,0.066,0.111,0.078
	c0.289,0.078,0.686-0.479,0.564-0.033c-0.089,0.327-0.706,0.32-0.936,0.258l-0.062-0.203c-0.092-0.01-0.131,0.132-0.212,0.176
	c-0.073,0.041-0.234-0.011-0.24,0.073c-0.025,0.315,0.062,0.178,0.115,0.064c0.062-0.149,0.043-0.083,0,0
	c-0.013,0.036-0.03,0.079-0.055,0.14c-0.156,0.398,0.417-0.072,0.418-0.072c0.033,0.009,0.088-0.006,0.099,0.026
	c0.041,0.136-0.129,0.54-0.249,0.632c-0.016,0.012-0.443-0.037-0.404,0.123c0.02,0.076,0.689,0.732,0.751,0.727
	c0.556-0.066-0.455-0.296,0.279-0.15c0.152,0.031,0.801,0.561,0.888,0.342c0.086-0.221-0.135-0.188-0.15-0.344
	c-0.004-0.051,0.146-0.461,0.229-0.405c0.24,0.165-0.296,0.449,0.177,0.576c0.23,0.062,0.168-0.905,0.406-0.979
	c0,0-0.012,0.109-0.019,0.163c-0.024,0.181-0.12,0.472-0.083,0.649c0.059,0.289,0.438,0.068,0.498,0.18
	c0.026,0.046-0.082,0.062-0.125,0.094c-0.264,0.199-0.506,0.344-0.252,0.691c0.113,0.158,0.129-0.259,0.414-0.24
	c0.377,0.025-0.008,0.304,0.086,0.42c0.088,0.108,0.313-0.312,0.376-0.188c0.146,0.294-0.558,0.643-0.351,0.848
	c0.051,0.049,0.238-0.174,0.195,0.051c-0.014,0.065-0.151,0.088-0.131,0.152l0.192,0.051c0.001,0,0.183-0.278,0.183-0.278
	c0.067-0.081,0.525-0.274,0.735-0.241c0.011-0.025,0.032-0.081,0.046-0.115c0.119-0.309,0.924-0.484,1.234-0.611
	c0.119-0.553-0.239-0.168,0.212-0.736c0.165-0.209-0.2-0.941,0.194-1.067c0.037-0.013-0.006,0.075-0.008,0.113
	c-0.003,0.038-0.043,0.101-0.008,0.114c0.262,0.107,0.312-0.85,0.258-0.863c-0.584-0.15,0.031,0.004-0.258-0.254
	c-0.07-0.061-0.309,0.062-0.275-0.023c0.061-0.162,0.373,0.046,0.437-0.027c0.023-0.029-0.05-0.059-0.073-0.088
	c-0.158-0.191-0.037,0.01,0.088-0.141c0.021-0.025,0.021-0.097,0.031-0.123c-0.75,0.241-1.504,0.48-2.256,0.717
	c-0.135,0.043-0.757,0.332-0.871,0.272c-0.021-0.011-0.375-1.114-0.415-1.236c-0.421-1.249-0.847-2.491-1.31-3.725
	c-0.223-0.594-0.447-1.188-0.668-1.782c-0.09-0.238-0.18-0.476-0.27-0.714c-0.021-0.06-0.064-0.179-0.064-0.179
	C12.025,1.825,6.129,3.511,0.196,5.061c0.103,0.396,0.646,2.874,0.789,3.021C1.167,8.271,1.417,7.549,1.515,7.473"/>
</svg>
