<?xml version="1.0" encoding="utf-8"?>
<!-- Generator: Adobe Illustrator 15.1.0, SVG Export Plug-In . SVG Version: 6.00 Build 0)  -->
<!DOCTYPE svg PUBLIC "-//W3C//DTD SVG 1.1//EN" "http://www.w3.org/Graphics/SVG/1.1/DTD/svg11.dtd">
<svg version="1.1" id="Layer_1" xmlns="http://www.w3.org/2000/svg" xmlns:xlink="http://www.w3.org/1999/xlink" x="0px" y="0px"
	 width="40px" height="34px" viewBox="0 0 40 34" enable-background="new 0 0 40 34" xml:space="preserve">
<path fill="#FFFFFF" d="M0.383,5.433c-0.252-0.059-0.21,0.273-0.367-0.044C0.098,5.31,0.177,5.207,0.234,5.17
	c0.375-0.251,0.983-0.325,1.352-0.641C1.937,4.229,2.103,3.708,2.5,3.47c0.362-0.217,1.192-0.209,1.641-0.362
	c0.572-0.196,0.95-1.06,1.137-1.141C5.477,1.88,5.751,1.982,5.953,1.815C6.192,1.618,6.1,1.374,6.247,1.142
	c0.169-0.265,0.504-0.431,0.696-0.713c0.074-0.104,0.08-0.204,0.223-0.219c0.281-0.03,0.006,0.496,0.182,0.615
	c0.152,0.104,0.33-0.03,0.481,0.051C8.023,0.98,7.793,1.285,7.903,1.36c0.13,0.087,0.364,0.083,0.41,0.42
	C8.355,2.092,8.355,2.825,8.29,3.028C8.272,3.083,8.31,3.094,8.351,3.091c0.083-0.087,0.063-0.054,0.124-0.185
	c0.021-0.043,0.037-0.09,0.057-0.134c0.062-0.151,0.034-0.329,0.076-0.418c0.005-0.013,0.029-0.037,0.043-0.043
	c0.262-0.13,0.481-0.406,0.766-0.656c0.013-0.012,0.16-0.14,0.207-0.081c0.025,0.031-0.674,0.8-0.551,0.986
	C9.1,2.598,9.458,1.975,9.541,1.944c0.444-0.167,1.52-0.359,1.874-0.047c0.298,0.263,0.363,0.118,0.686,0.396
	c0.096,0.082,0.045,0.211,0.121,0.313c0.256,0.349,0.644,0.678,1.016,0.779c0.121,0.033-0.061,0.495,0.232,0.561
	c0.725,0.164,1.314-0.476,1.471-0.464c0.345,0.025,0.438,0.522,0.796,0.501c0.245-0.015,0.128-0.352,0.36-0.343
	c0.149,0.005,0.575,0.351,0.619,0.295c0.23-0.304,0.292-0.648,0.578-0.918c0.141-0.133,0.49-0.271,0.685-0.45
	c0.089-0.083,0.481-0.616,0.597-0.59c0.421,0.093,0.634-0.18,1.054-0.307c0.535-0.162,1.199-0.009,1.747-0.181
	c0.341-0.106,0.65-0.481,0.941-0.684c0.121-0.084,1.106-0.363,1.3-0.397c0.081-0.014-0.169,0.417-0.167,0.486
	c0.004,0.172,0.137,1.37,0.166,1.395c0.152,0.128,0.291-0.077,0.441-0.091c0.111-0.011,0.375,0.222,0.551,0.174
	c0.201-0.056,0.438-0.352,0.59-0.373c0.387-0.056,0.361,0.464,0.576,0.39c0.271-0.094,0.346-0.336,0.476-0.519
	c0.112-0.067,0.231-0.141,0.356-0.215c0.022,0,0.043,0.002,0.078,0.021c0.149,0.077,0.981,1.401,0.971,1.451
	c-0.045,0.233-0.496,0.158-0.162,0.5c0.1,0.102,0.201-0.118,0.307-0.133c0.174-0.022,0.391,0.113,0.577,0.157
	c0.022,0.03,0.042,0.057,0.062,0.083c-0.022,0.057-0.076,0.132-0.062,0.177c0.023,0.093,0.13,0.177,0.198,0.24
	c0.094,0.087,0.899,0.238,0.641,0.505C28.88,5,27.825,4.8,27.355,4.828c-0.072,0.004-0.11,0.137-0.181,0.119
	c-0.161-0.041-0.198-0.118-0.423-0.089c-0.01,0.001-0.021,0.008-0.023,0.018c-0.084,0.327-0.043-0.032-0.213,0.136
	c-0.018,0.018-0.027,0.142-0.057,0.121c-0.225-0.162-0.107-0.44-0.598-0.378c-0.137,0.017-0.234,0.899-0.215,0.97
	c0.033,0.114,0.199,0.189,0.18,0.305c-0.004,0.031-0.119,0.085-0.152,0.11c-0.046,0.035-0.113-0.025-0.166-0.046
	c-0.68-0.275-1.158-0.891-1.994-0.969C23.243,5.1,22.111,5.002,21.898,5.21c-0.233,0.232-0.184,0.729-0.463,0.909
	c-0.283,0.182-0.705-0.006-1.027,0.211c-0.075,0.05,0.093,0.239,0.008,0.268c-0.099,0.036-0.397-0.128-0.522-0.14
	c-0.777-0.074-1.386,0.426-1.273,1.233c-0.098,0.132-0.506,0.394-0.67,0.433c-0.092,0.023-0.01,0.193-0.041,0.256
	c-0.108,0.228-0.41,0.251-0.213,0.699c0.013,0.03,0.015,0.076-0.014,0.097c-0.137,0.096-0.519-0.267-0.521-0.425
	c-0.002-0.089,0.145-0.096,0.172-0.185c0.038-0.121,0.038-0.432,0.1-0.508c0.07-0.084,0.246,0.072,0.294-0.015
	c0.046-0.087-0.1-0.055-0.078-0.133c0.038-0.137,0.227-0.473,0.016-0.586c-0.233-0.126-0.315,0.344-0.459,0.395
	c-0.186,0.064-0.415-0.241-0.527-0.062c-0.07,0.113-0.089,0.731-0.176,0.92c-0.066,0.144-0.33,0.111-0.41,0.187
	c-0.019,0.017-0.045,0.207-0.085,0.18c-0.074-0.05-0.293-0.889-0.284-0.941c0.018-0.118,0.185-0.312,0.125-0.436
	c-0.02-0.042-0.051-0.131-0.109-0.117c-0.121,0.033-0.216,1.048-0.212,1.172c0.007,0.268-0.405,0.705-0.531,1.043
	c-0.384,1.049-0.73,2.015-1.26,3.036c-0.028,0.05-0.016,0.205,0,0.386c-0.032-0.005-0.065-0.013-0.088-0.017
	c-0.114-0.022-0.46-0.292-0.522-0.407c-0.134-0.251,0.291-1.122,0.192-1.224c-0.218-0.227-0.938,0.469-1.041,0.161
	c-0.142-0.423,0.228-0.589,0.242-0.905c0.008-0.127-0.224-0.274-0.212-0.401c0-0.001,0.19-0.246,0.19-0.246
	c0.003-0.094-0.257-0.19-0.271-0.284l0.117-0.235c-0.066-0.145-0.602-0.345-0.747-0.429c0,0-0.101-0.008-0.154-0.012
	C11.234,9.069,11.033,9.041,10.826,9c-0.035-0.007-0.011-0.071-0.016-0.107c-0.051-0.351,0.114-0.403-0.11-0.741
	C10.468,7.798,9.992,8.159,9.71,8.08c-0.002,0-0.177-0.19-0.179-0.19c-0.186-0.059-0.5,0.035-0.678-0.011
	C8.624,7.821,8.442,8.08,8.279,8.069c-0.123-0.007-0.204-0.165-0.327-0.17C7.847,7.895,7.778,8.032,7.674,8.047
	C7.235,8.109,6.502,7.534,6.081,7.401C5.334,7.166,4.38,7.189,3.608,7.086c-0.422-0.054-1.787-0.091-2.09-0.28
	c-0.287-0.181-0.306-0.79-0.571-1.009C0.832,5.7,0.611,5.717,0.483,5.637C0.418,5.597,0.457,5.45,0.383,5.433l27.77,26.977
	c0.365-0.072,1.957-0.527,2.213-0.442c0.042,0.015,0.092,0.482,0.1,0.525c2.081-0.507,4.157-1.033,6.229-1.573l0.015-0.004
	c-0.026-0.109-0.003-0.258,0.069-0.252c0.033,0.002,0.089,0.084,0.084,0.05c-0.049-0.515,0.148-0.796,0.302-1.182
	c0.048-0.118,0.263-0.082,0.264-0.114c0.011-0.096-0.182-0.18-0.125-0.26c0.148-0.215,0.21,0.141,0.239-0.336
	c0.008-0.119,0.143,0.089,0.132,0.043c-0.131-0.623-0.307-1.313,0.082-1.93c0.013-0.031,0.024-0.06,0.037-0.076
	c0.01-0.016,0.024-0.023,0.035-0.036c0.19-0.226,0.612-0.376,0.688-0.654c0.094-0.353-0.154-0.558-0.117-0.892
	c0.025-0.209,0.357-0.293,0.365-0.34c0.023-0.158-0.406-0.256-0.201-0.461c0.929-0.912,0.631-0.09,1.002,0.305
	c0.002,0-0.135,0.141-0.141,0.148l0.014,0.021c0.189-0.163,0.418-0.251,0.498-0.53c0.15-0.518-0.094-0.918-0.147-1.393
	c-0.041-0.373,0.062-0.838,0.053-1.219c0-0.002,0-0.002,0-0.004l-0.012-0.007c-1.446-1.342-1.457-5.842-3.718-6.074
	c-0.422-0.042-0.385,0.381-0.619,0.53c-0.208,0.132-0.523,0.167-0.764,0.283c-0.168,0.08-0.053,0.3-0.178,0.396
	c-0.119,0.093-0.307,0.06-0.414,0.158c-0.052,0.047,0.326-0.055,0.301,0.115c-0.021,0.124-0.434,1.351-0.443,1.356
	c-0.152,0.105-0.085-0.189-0.202-0.121c-0.271,0.154-0.158,0.901-0.58,0.957c-0.157,0.021-0.315-0.17-0.489-0.172
	c-0.304-0.002-0.57-0.05-0.763-0.311c-0.214-0.285-0.151-1.626,0.063-1.919c0.008-0.009,0.02-0.018,0.029-0.018
	c0.891-0.012,0.465-0.264,0.709-0.458c0.081-0.066,0.248-0.029,0.301-0.091c0.105-0.125-0.071-1.044-0.006-1.307
	c0.033-0.128,0.205-0.305,0.354-0.25c0.053,0.02-0.065,0.238,0.021,0.171s0.103-0.339,0.172-0.448
	c0.068-0.104,0.207-0.067,0.271-0.18c0.117-0.208-0.146-0.954-0.19-1.21c-0.105-0.622,0.032-1.755-0.507-2.227
	c-0.131-0.113-0.382-0.143-0.528-0.263c-0.076-0.062-0.142-0.266-0.222-0.354c-0.096-0.109,0.072-0.523,0.277-0.577
	c0.091-0.023,0.323,0.359,0.528,0.19c0.009-0.007,0.013-0.02,0.009-0.031c-0.062-0.188-0.177-0.014-0.271-0.171
	c-0.047-0.08-0.018-0.294-0.074-0.463c-0.051-0.154-0.475-0.29-0.582-0.551c-0.041-0.104,0.109-0.11,0.084-0.208
	c-0.11-0.418-0.84-0.291-1.057-0.338C31.113,8.162,30.93,7.968,30.74,7.94c-0.168-0.025-0.309,0.075-0.496,0.028
	c-0.189-0.046-0.321-0.278-0.502-0.289c-0.264-0.018-0.59,0.126-0.844,0.068c-0.293-0.067-0.35-0.891-1.217-0.84
	c-0.17,0.042-0.341,0.179-0.52,0.184c-0.212,0.007-0.912-0.467-1.344-0.606c-0.064-0.021-0.122-0.034-0.172-0.038
	c-0.06-0.004-0.09,0.284-0.207,0.322c-0.162,0.054-0.629-0.058-0.756,0.072c-0.022,0.027,0.363,0.148,0.238,0.314
	c-0.247,0.325-0.641,0.733-0.506,1.181c0.091,0.304,0.232,0.533,0.535,0.659c0.109,0.045,0.59-0.117,0.482,0.125
	c-0.084,0.19-1.383,0.332-1.822,1.059c-0.26,0.43,0.086,0.824,0.156,1.259c0.104,0.672-0.041,1.226-0.238,1.852
	c-0.043,0.145-0.002,0.363-0.194,0.417c-0.071,0.02-0.046-0.093-0.044-0.123c0.02-0.228,0.281-1.395,0.059-1.426
	c-0.188-0.026-0.168,1.439-0.285,1.458c-0.233,0.034-0.278-0.506-0.263-0.641c0.015-0.133,0.122-0.231,0.111-0.369
	c-0.024-0.304-0.442-0.361-0.003-0.722c0.021-0.02,0.021-0.039,0.014-0.066c-0.047-0.154-0.293-0.298-0.262-0.486
	c0.025-0.162,0.568-0.448,0.197-0.523c-0.394-0.079-0.766,1.493-0.901,1.811c-0.026,0.061-0.046,0.089-0.097,0.122
	c-0.112,0.074-0.334-0.112-0.459-0.124c-0.08-0.008-0.16,0.373-0.195,0.447c-0.059,0.123-0.23-0.042-0.322,0.039
	c-0.227,0.199,0.249,0.86,0.07,1.114c-0.137,0.192-0.522,0.107-0.706,0.371c-0.125,0.183,0.159,0.487,0.23,0.644
	c0.035,0.079,0.119,1.474,0.098,1.579c-0.074,0.393-0.221,0.929-0.379,1.299c-0.104,0.248-0.432,0.462-0.468,0.723
	c-0.035,0.251,0.324,0.49,0.45,0.652c0.04,0.049-0.008,0.207,0.009,0.277c0.057,0.229,0.212,0.434,0.257,0.666
	c0.086,0.469-0.485,0.773-0.319,1.291c0.214,0.668,0.783,1.407,1.167,1.999c0.005,0.007,0.131,0.259,0.177,0.259
	c0.152,0,0.268-0.352,0.383-0.252c0.113,0.094-0.312,0.338-0.303,0.358c0.725,1.281,1.016,2.476,1.117,3.931
	c0.086,1.268-0.318,1.998-0.705,3.12c-0.189,0.558-0.218,1.134-0.461,1.673c-0.141,0.312-0.417,0.659-0.753,0.981l0.008,0.002
	c2.472-0.438,4.935-0.897,7.396-1.382"/>
</svg>
