<?xml version="1.0" encoding="utf-8"?>
<!-- Generator: Adobe Illustrator 16.0.0, SVG Export Plug-In . SVG Version: 6.00 Build 0)  -->
<!DOCTYPE svg PUBLIC "-//W3C//DTD SVG 1.1//EN" "http://www.w3.org/Graphics/SVG/1.1/DTD/svg11.dtd">
<svg version="1.1" id="Layer_1" xmlns="http://www.w3.org/2000/svg" xmlns:xlink="http://www.w3.org/1999/xlink" x="0px" y="0px"
	 width="34px" height="39px" viewBox="0 0 34 39" enable-background="new 0 0 34 39" xml:space="preserve">
<path fill="#FFFFFF" d="M0.515,3.446C0.396,3.64,0.556,3.897,0.622,4.105c0.124,0.393,0.493,1.056,0.463,1.463
	C1.07,5.786,0.898,6,0.895,6.217c-0.004,0.245,0.185,0.5,0.169,0.744c-0.001,0.009-0.13,0.316-0.13,0.326
	C0.918,7.488,1.079,7.723,1.099,7.923c0.028,0.28-0.088,0.584-0.041,0.859c0.016,0.091,0.375,1.211,0.405,1.271
	c0.046,0.09,0.188,0.111,0.223,0.207c0.065,0.17-0.014,0.541,0.1,0.746C2,11.395,2.344,11.781,2.414,12.269
	c0.051,0.37-0.111,0.822-0.027,1.181c0,0,0.153,0.207,0.153,0.208c0.219,0.763-0.049,1.681,0.097,2.463
	c0.044,0.237,0.244,0.354,0.314,0.523c0.093,0.222-0.146,1.367-0.079,1.72c0.028,0.146,0.19,0.278,0.238,0.419
	c0.102,0.29,0.065,0.686,0.187,0.958c0.12,0.268,0.445,0.455,0.55,0.729c0.072,0.189-0.028,0.446,0.027,0.643
	c0.068,0.246,0.266,0.463,0.254,0.74c-0.02,0.483-0.099,0.547,0.045,1.07c-0.195,0.311-0.056,0.736-0.326,1.088
	c-0.229,0.293-1.049,0.676-1.005,1.113c0.021,0.221,0.62,1.006,0.797,1.148c0.359,0.283,0.94,0.193,1.161,0.701
	c0.205,0.468,0.137,2.704,0.17,3.357C5.111,33.065,5.25,35.8,5.39,38.534c5.39-0.24,10.774-0.596,16.148-1.066
	c1.831-0.161,3.661-0.335,5.489-0.523c0.567-0.058,1.134-0.117,1.698-0.178c0.252-0.027,0.502-0.053,0.754-0.082
	c0.062-0.006,0.189-0.021,0.189-0.021c-0.301-0.61-0.209-1.272-0.441-1.892c-0.186-0.487-0.795-1.219-1.314-1.367
	c-0.114-0.033-0.268,0.074-0.381,0.039c-0.321-0.094-0.723-0.456-0.998-0.65c-0.408-0.287-0.4-0.786-0.73-1.11
	c-0.378-0.37-1.083-0.456-1.533-0.71c-0.215-0.122-0.363-0.367-0.583-0.482c-0.278-0.146-0.657-0.101-0.943-0.234
	c-0.138-0.066-1.185-0.769-1.226-0.857c-0.025-0.055,0.183-1.086,0.196-1.201c0.039-0.322-0.282-0.594-0.304-0.834
	c-0.009-0.104,0.188-0.234,0.197-0.341c0.035-0.324-0.268-0.716-0.172-1.061c0.093-0.338,0.457-0.565,0.363-1.003
	c-0.027-0.127-0.332-0.645-0.441-0.713c-0.393-0.238-0.691,0.148-0.693-0.497c0-0.114,0-0.229,0-0.345c0-0.057-0.025-0.119,0-0.172
	c0.072-0.152,0.334-0.213,0.418-0.36c0.156-0.273,0.018-0.726,0.285-0.995c0.359-0.36,1.551-0.679,1.678-1.233
	c0.113-0.485-0.211-2.204-0.269-2.801c-0.014-0.148-0.173-0.828-0.089-0.933c0.076-0.096,0.274,0.046,0.366-0.036
	c0.001,0,0.042-0.327,0.042-0.327c0.067-0.07,0.175-0.052,0.262-0.169c0.035-0.046,0.092-0.125,0.125-0.166
	c-0.019-0.034-0.031-0.071-0.021-0.117c0.076-0.446,1.479-1.279,1.746-1.687c0.318-0.489,0.76-0.9,1.181-1.335
	c0.325-0.335,0.528-0.894,0.796-1.286c0.371-0.543,0.966-1.225,1.473-1.648c0.324-0.269,0.715-0.553,1.078-0.767
	c0.267-0.155,0.609-0.177,0.829-0.383c0.181-0.17,0.576-0.245,0.81-0.369c0.719-0.381,1.445-0.946,1.873-1.465
	c0.072-0.089,0.312,0.074,0.268-0.115l0.014-0.033c-0.138-0.01-0.273-0.018-0.4-0.008c-0.325,0.025-0.645,0.336-0.971,0.34
	c-0.588,0.007-0.601-0.728-1.174-0.716c-0.814,0.016-1.641,0.53-2.465,0.51c-0.447-0.01-0.318-0.978-0.75-0.884
	c-0.803,0.173-1.414,1.263-2.221,1.431c-0.162,0.034-1.053-0.095-1.174-0.199c-0.124-0.107-0.078-0.407-0.197-0.518
	c-0.208-0.193-0.721-0.062-0.957-0.225c-0.203-0.14-0.28-0.608-0.502-0.704c-0.113-0.048-0.246,0.024-0.369,0.037
	c-0.107,0.01-0.471-0.01-0.553,0.054c-0.201,0.155,0.145,0.972-0.356,0.787c-0.19-0.07-0.482-1.197-0.698-1.332
	c-0.178-0.112-0.586,0.158-0.781,0.072c-0.404-0.18,0.552-0.329,0.165-0.552C19.86,4.946,17.8,4.669,17.449,4.69
	C17.305,4.7,17.1,4.791,16.963,4.839c-0.561,0.197-0.163,0.155-0.326,0.35c-0.184,0.218-1.184,0.59-1.463,0.439
	c-0.208-0.114-0.208-0.598-0.412-0.72C14.364,4.667,13.62,5,13.191,4.809c-0.079-0.035-0.076-0.176-0.158-0.204
	c-0.264-0.09-0.641,0.115-0.918,0.064c-0.157-0.028-0.708-0.253-0.806-0.374c-0.146-0.18-0.597-3.216-0.863-3.482
	c-0.132-0.131-0.663-0.168-0.848-0.214C9.546,0.585,9.123,0.44,9.092,0.469C8.968,0.583,9.379,2.766,9.24,2.925
	C9.224,2.942,7.709,3.014,7.547,3.022C5.728,3.123,3.908,3.209,2.088,3.281C1.585,3.3,1.083,3.311,0.582,3.328l0,0.009
	C0.582,3.337,0.537,3.41,0.515,3.446"/>
</svg>
