<?xml version="1.0" encoding="utf-8"?>
<!-- Generator: Adobe Illustrator 16.0.0, SVG Export Plug-In . SVG Version: 6.00 Build 0)  -->
<!DOCTYPE svg PUBLIC "-//W3C//DTD SVG 1.1//EN" "http://www.w3.org/Graphics/SVG/1.1/DTD/svg11.dtd">
<svg version="1.1" id="Layer_1" xmlns="http://www.w3.org/2000/svg" xmlns:xlink="http://www.w3.org/1999/xlink" x="0px" y="0px"
	 width="43px" height="20px" viewBox="0 0 43 20" enable-background="new 0 0 43 20" xml:space="preserve">
<path fill="#FFFFFF" d="M7.337,13.261c0.234,0.008,2.393,0.047,2.414,0.068c0.02,0.021-0.02,1.531-0.022,1.697
	c-0.02,1.571-0.039,3.143-0.059,4.713c7.371,0.184,14.746,0.166,22.115-0.061c2.467-0.076,4.936-0.147,7.404-0.236
	c0.803-0.029,1.607-0.061,2.41-0.095c0.434-0.019,1.299-0.058,1.299-0.058s-0.059-0.066-0.088-0.102
	c-0.154-0.176-0.467-0.139-0.506-0.184c-0.07-0.08,0.084-0.432,0.051-0.537c-0.061-0.197-0.379-0.314-0.441-0.51l0.07-0.219
	c-0.035-0.043-0.92-0.464-0.93-0.482c-0.006-0.009-0.068-0.713-0.129-0.85c-0.223-0.497-0.512-0.357-0.541-0.934
	c-0.113-0.453-0.523-0.635-0.535-0.828c-0.014-0.279,0.211-0.656,0.195-0.974c-0.025-0.473-0.285-0.752-0.385-1.157
	c-0.027-0.113,0.168-0.701,0.123-0.756c-0.096-0.114-0.342,0.168-0.408-0.086c-0.07-0.249,0.205-0.418,0.213-0.547
	c0.021-0.31-0.264-0.129-0.338-0.304c-0.084-0.199,0.207-0.557,0.123-0.756c-0.045-0.104-0.365-0.089-0.414-0.194
	c-0.045-0.095,0.197-0.38-0.02-0.426c-0.084-0.018-0.299,0.244-0.398,0.126c-0.07-0.085,0.088-0.217,0.066-0.324
	c-0.045-0.221-0.271-0.338-0.193-0.634c0.062-0.224,0.189-0.486,0.125-0.755c-0.055-0.228-0.354-0.4-0.43-0.622
	c-0.055-0.155,0.043-0.387-0.027-0.534C38,6.529,37.689,6.459,37.584,6.297c-0.074-0.114-0.031-0.304-0.1-0.423
	c-0.092-0.162-0.33-0.245-0.418-0.41c-0.098-0.19,0.109-0.461,0.051-0.645c-0.061-0.193-0.371-0.321-0.42-0.517
	c-0.041-0.168,0.109-0.473,0.129-0.649c0.018-0.168-0.41-0.303-0.41-0.303s-0.527,0.072-0.715-0.077c0,0-0.092-0.317-0.092-0.317
	c-0.074-0.123-0.262-0.183-0.33-0.308l-0.008-0.215c-0.109-0.09-0.359-0.009-0.479-0.087c-0.062-0.042-0.021-0.171-0.086-0.211
	c-0.164-0.102-1.189-0.28-1.436-0.374c-0.295-0.114-0.406-0.362-0.648-0.513c-0.42-0.267-0.902,0.137-1.332,0.15
	c-0.227,0.006-1.373-0.1-1.496-0.065c-0.416,0.115-0.072,0.538-0.695,0.554c-0.289,0.007-1.455-0.639-1.75-0.817
	c-0.168-0.102-0.4-0.477-0.559-0.524c-0.062-0.019-0.127,0.002-0.191,0.003c-0.062,0-0.125,0.003-0.188,0.004
	c-0.189,0.002-0.379,0.006-0.566,0.009C17.45,0.7,9.051,0.556,0.665,0.136C0.477,4.413,0.288,8.69,0.102,12.966
	C2.512,13.086,4.925,13.185,7.337,13.261"/>
</svg>
