<?xml version="1.0" encoding="utf-8"?>
<!-- Generator: Adobe Illustrator 16.0.0, SVG Export Plug-In . SVG Version: 6.00 Build 0)  -->
<!DOCTYPE svg PUBLIC "-//W3C//DTD SVG 1.1//EN" "http://www.w3.org/Graphics/SVG/1.1/DTD/svg11.dtd">
<svg version="1.1" id="Layer_1" xmlns="http://www.w3.org/2000/svg" xmlns:xlink="http://www.w3.org/1999/xlink" x="0px" y="0px"
	 width="9px" height="18px" viewBox="0 0 9 18" enable-background="new 0 0 9 18" xml:space="preserve">
<path fill="#FFFFFF" d="M1.162,3.243c0.07,0.338-0.319,0.782-0.238,1.116c0.083,0.332,0.645,0.543,0.729,0.873
	c0.021,0.082-0.177,0.096-0.177,0.18c0,0.001,0.184,0.276,0.184,0.276c0.047,0.483-0.469,0.725-0.675,1.047
	c-0.058,0.09-0.029,0.31-0.106,0.381C0.611,7.364,0.263,7.221,0.195,7.707c-0.059,0.438,0.32,0.821,0.367,1.236
	c0.026,0.224-0.117,0.487-0.071,0.709c0.016,0.074,0.136,0.101,0.145,0.175c0.021,0.196-0.164,0.438-0.181,0.636
	c-0.018,0.215,0.098,0.444,0.074,0.657c-0.022,0.183-0.205,0.351-0.22,0.535c-0.021,0.235,0.16,0.528,0.108,0.758
	c-0.042,0.181-0.257,0.14-0.185,0.407c0.148,0.555,0.983,3.015,0.896,3.435c-0.002,0.003-0.224,0.304-0.225,0.307
	c-0.109,0.442,0.297,0.993,0.654,1.132c0.083,0.033,0.221,0.148,0.221,0.148c0.737-0.23,4.851-1.393,5.183-1.664
	c0.163-0.133,0.065-0.369,0.295-0.453c0.037-0.014,0.094-0.006,0.111-0.041c0-0.001-0.041-0.328-0.041-0.328
	c0.066-0.237,0.199-0.121,0.331-0.24c0.522-0.469,0.262-0.668,1.063-0.745c-0.133-0.35,0.156-0.788,0.076-1.13
	c-0.013-0.046-0.092-0.127-0.158-0.209l-0.008-0.003c0,0-0.479-0.149-0.631-0.333c-0.12-0.146-0.025-0.49-0.154-0.629
	c-0.252-0.268-0.828-0.244-1.071-0.625c-0.171-0.267-0.133-0.753-0.233-1.057c-0.135-0.405-0.354-0.801-0.528-1.19
	c-1.33-3.006-2.657-6.014-3.979-9.023L2.018,0.158C1.953,0.355,1.895,0.546,1.793,0.604C1.634,0.697,1.28,0.436,1.114,0.516
	C1.05,0.546,0.698,1.058,0.699,1.128l0.217,0.147C1.01,1.532,0.757,1.962,0.789,2.238c0.012,0.106,0.163,0.207,0.113,0.301
	C0.889,2.561,0.858,2.583,0.82,2.604C0.725,2.771,1.136,3.122,1.162,3.243"/>
</svg>
