<?xml version="1.0" encoding="utf-8"?>
<!-- Generator: Adobe Illustrator 16.0.0, SVG Export Plug-In . SVG Version: 6.00 Build 0)  -->
<!DOCTYPE svg PUBLIC "-//W3C//DTD SVG 1.1//EN" "http://www.w3.org/Graphics/SVG/1.1/DTD/svg11.dtd">
<svg version="1.1" id="Layer_1" xmlns="http://www.w3.org/2000/svg" xmlns:xlink="http://www.w3.org/1999/xlink" x="0px" y="0px"
	 width="22px" height="25px" viewBox="0 0 22 25" enable-background="new 0 0 22 25" xml:space="preserve">
<path fill="#FFFFFF" d="M0.07,6.472c1.019,5.46,2.035,10.921,3.052,16.38c0,0,0.177-0.359,0.35-0.393
	c0.213-0.041,0.481,0.352,0.739,0.291c0.19-0.043,0.491-0.48,0.678-0.457c0.093,0.012,0.249,0.312,0.328,0.369
	c0.148,0.105,0.425,0.092,0.555,0.217c0.269,0.26,0.431,0.828,0.724,1.051c0.477,0.366,1.24-0.283,1.71-0.019
	c0.22,0.124,0.421,0.533,0.644,0.631c0.673,0.291,0.681-0.626,1.255-0.586c0.091,0.005,0.124,0.147,0.209,0.174
	c0.053,0.018,0.114,0,0.171,0s0.115,0,0.172,0c0.059,0,0.117-0.015,0.173,0.001c0.128,0.033,0.265,0.235,0.396,0.243
	c0.009,0,0.248-0.161,0.288-0.17c0.079-0.017,0.379-0.036,0.433-0.092c0-0.001,0.098-0.347,0.098-0.349
	c0.069-0.088,0.916-0.819,1.04-0.768c0.244,0.104,0.26,0.818,0.473,0.988c0.387,0.307,0.89,0.093,1.465,0.77
	c0,0,0.121,0.074,0.188,0.067c0.174-0.018,0.994-0.425,1.086-0.569c0.136-0.207-0.094-0.698,0.062-0.887
	c0.071-0.086,0.243-0.002,0.329-0.074c0.313-0.256-0.315-0.943-0.34-1.124c-0.006-0.053,0.486-1.712,0.631-1.78
	c0.176-0.087,0.65,0.215,0.691,0.389c0.037,0.167-0.227,0.301,0.001,0.381c0.031,0.012,0.063,0.051,0.093,0.033
	c0.346-0.203,0.014-0.662,0.559-0.565c0.074,0.014-0.107-0.116-0.129-0.188c0-0.001,0.01-0.33,0.01-0.33
	c-0.033-0.085-0.175-0.088-0.211-0.172c-0.119-0.262,0.125-0.188,0.172-0.367c0.092-0.352-0.214-0.775,0.086-1.113
	c0.109-0.124,0.457-0.099,0.543-0.236c0.135-0.215,0.044-0.64,0.318-0.841c0.241-0.179,0.338,0.267,0.559,0.196
	c0.172-0.055,0.43-0.345,0.575-0.465c0.61-0.506,0.74-1.281,1.373-1.757c0.042-0.032,0.109-0.62,0.091-0.681
	c0-0.001-0.236-0.271-0.236-0.271c0-0.003,0.153-0.435,0.158-0.516c0.006-0.084-0.09-0.439-0.064-0.496
	c0.072-0.162,0.169,0.104,0.242-0.059c0.029-0.07-0.125-0.111-0.133-0.188c-0.01-0.119,0.086-0.229,0.084-0.35
	c0-0.171-0.109-0.348-0.125-0.519c-0.055-0.56,0.508-1.414,0.206-1.919l-0.212-0.168c-0.046-0.127,0.094-0.322,0.057-0.454
	c-0.066-0.235-0.453-0.409-0.494-0.648c-0.05-0.268,0.473-0.362,0.635-0.487c-0.51-2.064-1.415-5.602-2.127-8.417
	c-1.053,0.64-2.191,1.454-3.113,2.259c-0.664,0.579-1.076,1.754-1.788,2.155c-0.435,0.246-1.185,0.045-1.557,0.269
	c-0.236,0.144-1.721,1.187-1.759,1.192c-0.413,0.063-0.847-0.235-1.156-0.457c-0.113-0.08,0.193,0.203,0.313,0.269
	c0.042,0.023,0.16,0.094,0.111,0.091c-0.164-0.009-0.291-0.142-0.446-0.154c-0.129-0.01-0.142,0.059-0.259,0.137
	c-0.082,0.055-0.2-0.1-0.282-0.109C9.711,5.825,9.361,6.224,9.294,6.26C9.212,6.304,9.11,6.201,9.046,6.166
	C9.031,6.159,9.062,6.279,9,6.279c-0.077,0-0.039-0.12-0.097-0.112C8.808,6.183,8.686,6.25,8.589,6.217
	C8.538,6.199,8.935,6.089,8.976,6.074c0.07-0.028,0.028-0.135,0.093-0.17c0.269-0.144,1.217-0.204,1.088-0.57
	c-0.052-0.148-0.348,0.092-0.41,0.082C9.593,5.392,9.65,5.161,9.474,5.171c-0.042,0.002-0.063,0.031-0.058,0.07
	c0.044,0.25-0.139,0.442-0.44,0.427C8.664,5.653,8.577,5.427,8.338,5.308C8.082,5.18,7.719,5.314,7.446,5.162
	c-0.095-0.053-0.321-0.273-0.43-0.265C6.9,4.907,6.629,5.102,6.378,4.995C6.346,4.981,6.324,4.941,6.313,4.895L6.299,4.899
	C4.227,5.439,2.15,5.965,0.07,6.472"/>
</svg>
