<?xml version="1.0" encoding="utf-8"?>
<!-- Generator: Adobe Illustrator 16.0.0, SVG Export Plug-In . SVG Version: 6.00 Build 0)  -->
<!DOCTYPE svg PUBLIC "-//W3C//DTD SVG 1.1//EN" "http://www.w3.org/Graphics/SVG/1.1/DTD/svg11.dtd">
<svg version="1.1" id="Layer_1" xmlns="http://www.w3.org/2000/svg" xmlns:xlink="http://www.w3.org/1999/xlink" x="0px" y="0px"
	 width="74px" height="67px" viewBox="0 0 74 67" enable-background="new 0 0 74 67" xml:space="preserve">
<path fill="#FFFFFF" d="M73.626,33.548l0.272-0.127c0.016-0.102-0.297-0.287-0.314-0.393c-0.027-0.146,0.199-0.4,0.146-0.535
	c-0.024-0.061-0.337-0.029-0.384-0.074c-0.09-0.086-0.053-0.312-0.129-0.411c-0.059-0.079-0.379-0.188-0.396-0.282
	c-0.025-0.12,0.17-0.207,0.162-0.326c-0.017-0.203-0.602-0.473-0.619-0.688c-0.004-0.046,0.079-0.064,0.085-0.111
	c0.009-0.059-0.009-0.125-0.045-0.172c-0.119-0.156-0.479-0.178-0.562-0.41c-0.063-0.18,0.075-0.446,0.044-0.634
	c-0.063-0.382-0.271-0.822-0.553-1.114c-0.215-0.222-0.742-0.408-0.891-0.668c-0.147-0.258-0.113-1.512-0.139-1.875
	c-0.111-1.504-0.223-3.005-0.335-4.508c-0.048-0.65-0.034-2.897-0.249-3.357c-0.108-0.234-0.891-0.014-1.006-0.033
	c-0.668-0.104-0.102-0.053-0.445,0.138c-0.07,0.039-0.451,0.082-0.462-0.073c-0.002-0.046,0.116-0.079,0.083-0.109
	c-0.029-0.032-0.288,0-0.369-0.083c-0.084-0.083-0.113-0.21-0.203-0.302c0,0-0.383-0.087-0.559-0.173
	c-0.062-0.031-0.104,0.112-0.174,0.116c-0.116,0.009-0.457-0.113-0.559-0.173c-0.389-0.234-0.635-0.146-0.835-0.263
	c-0.126-0.074-0.165-0.345-0.299-0.403c-0.056-0.025-0.126,0.038-0.18,0.012c-0.109-0.055-0.083-0.277-0.202-0.305
	c-0.088-0.02-0.088,0.157-0.27,0.018c-0.092-0.07-0.186-0.257-0.292-0.298c0-0.001-0.271,0.017-0.271,0.017
	c-0.159-0.081-0.243-0.396-0.561-0.284c-0.145,0.051-0.004,0.423-0.156,0.432c-0.046,0.002-0.051-0.102-0.096-0.1
	c-0.035,0.003,0.026,0.078,0.006,0.105c-0.085,0.111-0.223,0.17-0.35,0.231c-0.117,0.057-0.69,0.091-0.814,0.045
	c-0.187-0.064-0.342-0.509-0.57-0.496c-0.046,0.003-0.403,0.339-0.752,0.357c-0.045,0.002-0.103-0.024-0.135,0.007
	c0,0.001-0.074,0.319-0.074,0.319c-0.113,0.097-0.748-0.277-0.83-0.272c-0.054,0.002-0.314,0.302-0.437,0.339
	c-0.196,0.057-0.552,0.025-0.72,0.14c-0.123,0.083-0.125,0.353-0.251,0.435c-0.101,0.064-0.364-0.057-0.454,0.02
	c-0.075,0.068-0.079,0.325-0.16,0.43c-0.088,0.112-0.437-0.487-0.477-0.506c-0.057-0.026-0.121,0.005-0.183,0.008
	c-0.001,0-0.362,0.016-0.362,0.016l-0.1-0.207c-0.108-0.089-0.377-0.082-0.462-0.191c-0.063-0.082,0.058-0.35-0.019-0.422
	c-0.273-0.259-0.354,0.377-0.434,0.442c-0.083,0.064-0.877-0.047-0.909-0.07c-0.171-0.113-0.071-0.63-0.386-0.618
	c-0.555,0.021-0.207,0.467-0.516,0.757c-0.045,0.042-0.344-0.036-0.362,0.014l0.188,0.203c0,0.002-0.349,0.582-0.429,0.649
	c-0.055,0.046-0.117-0.083-0.174-0.125c-0.318-0.229-0.029-1.027-0.32-1.016c-0.09,0.002-0.171,0.322-0.26,0.324
	c-0.116,0.004-0.169-0.229-0.279-0.201c-0.189,0.052-0.232,0.542-0.62,0.442c-0.21-0.053-0.071-0.431-0.198-0.521
	c-0.043-0.029-0.105,0.002-0.158,0.005c-0.105,0.004-0.211,0.007-0.316,0.01c-0.053,0.001-0.118,0.039-0.158,0.004
	c-0.233-0.194,0.426-0.307-0.378-0.515c-0.405-0.105-0.774,1.135-1.61,0.676c-0.266-0.147,0.102-0.463-0.017-0.632
	c-0.106-0.154-0.584-0.066-0.729-0.194c-0.235-0.209,0.132-0.687-0.11-0.841c-0.016-0.01-1.253,0.108-1.35,0.136
	c-0.248,0.069-0.254,0.319-0.623,0.434c-0.29,0.092-0.512-0.458-0.732-0.514c-0.211-0.052-0.502,0.13-0.72,0.118
	c-0.464-0.028-0.862-0.476-1.271-0.51c-0.328-0.028-0.812,0.211-1.17,0.014c-0.215-0.118-0.018-0.575-0.098-0.737
	c-0.152-0.311-0.522-0.334-0.725-0.521c-0.08-0.075-0.006-0.249-0.092-0.316c-0.16-0.122-0.227,0.66-0.445,0.635
	c-0.168-0.016-0.377-0.329-0.541-0.312c-0.113,0.012-0.162,0.171-0.268,0.213c-0.643,0.255-1.171-0.912-1.622-1.156
	c-0.121-0.065-0.548,0.002-0.627-0.104c-0.037-0.051,0-0.125,0-0.187c0-0.046,0-0.093,0-0.14c0-0.683,0-1.367,0-2.051
	c0-2.305,0-4.609,0-6.913c0-0.75,0-1.497,0-2.245c0-0.177,0-0.352,0-0.528c0-0.036,0.031-0.089,0-0.106c-0.055-0.03-0.127,0-0.19,0
	s-0.125,0-0.188,0c-0.253,0-0.506-0.001-0.758-0.002c-1.073-0.001-2.146-0.009-3.219-0.021c-3.774-0.038-7.549-0.129-11.321-0.271
	c-0.298-0.01-0.218,1.173-0.23,1.508c-0.064,1.701-0.129,3.401-0.193,5.103c-0.274,7.281-0.731,14.549-1.01,21.829
	c0,0.002-0.884-0.032-1.146-0.045c-1.146-0.046-2.29-0.098-3.435-0.152c-3.913-0.189-7.821-0.432-11.727-0.723
	c-0.937-0.07-1.873-0.143-2.81-0.219c-0.119-0.011-0.874-0.15-0.937-0.076c-0.004,0.004,0.154,0.873,0.285,1.073
	c0.083,0.128,0.32,0.257,0.439,0.353c1.113,0.396,0.949,1.314,1.528,2.01c0.463,0.557,1.345,0.804,1.878,1.296
	c1.011,0.931,1.665,2.138,2.749,3.021c0.358,0.291,0.806,0.426,1.155,0.703c0.442,0.35,1.153,1.156,1.416,1.656
	c0.147,0.279,0.101,0.662,0.229,0.953c0.163,0.369,0.597,0.697,0.699,1.086c0.119,0.445-0.182,1-0.084,1.453
	c0.092,0.43,0.921,2.023,1.21,2.361c0.62,0.729,2.924,2.041,3.83,2.486c0.385,0.188,0.878,0.268,1.237,0.471
	c0.321,0.18,0.516,0.588,0.839,0.762c0.197,0.109,1.517,0.43,1.638,0.275c0.104-0.133,0.094-0.393,0.213-0.512
	c0.07-0.068,0.753-0.492,0.961-0.674c0.086-0.074,0.28-0.004,0.327-0.109c0.086-0.195-0.145-0.525-0.071-0.729
	c0.057-0.158,0.316-0.258,0.401-0.402c0.308-0.529,0.299-1.793,0.939-2.152c0.42-0.234,1.213,0.188,1.633-0.053
	c0.189-0.107,0.204-0.639,0.404-0.717c0.218-0.082,2.211,0.477,2.581,0.553c0.397,0.084,1.23,0.379,1.618,0.279
	c0.04-0.012,0.267-0.322,0.293-0.307c0.001,0-0.005,0.311-0.005,0.311c0.049,0.041,0.128,0.004,0.191,0.004
	c0.128,0.004,0.256,0.006,0.383,0.008c0.064,0,0.138-0.029,0.193,0.004c0.121,0.074,0.447,0.775,0.559,0.996
	c0.134,0.264,0.25-0.09,0.386-0.047c0.208,0.07,0.396,0.586,0.566,0.738c0.149,0.131,0.451,0.164,0.573,0.318
	c0.081,0.102,0.015,0.312,0.092,0.416c0.307,0.422,1.032,0.533,1.34,0.951c0.077,0.104,0.012,0.316,0.093,0.416
	c0.127,0.158,0.453,0.156,0.578,0.314c0.338,0.434,0.336,1.266,0.568,1.77c0.197,0.43,0.494,0.967,0.77,1.352
	c0.144,0.201,0.495,0.395,0.582,0.625c0.021,0.057-0.001,0.119-0.001,0.182c0,0.119-0.001,0.24-0.001,0.361
	c0,0.059-0.018,0.123,0,0.182c0.283,0.949,1.363,1.326,1.855,2.072c0.074,0.111,0.026,0.301,0.098,0.414
	c0.162,0.25,0.511,0.379,0.688,0.619c0.238,0.324,0.212,0.652,0.542,0.928c0.176,0.146,0.354,0.4,0.545,0.514
	c0.346,0.207,1.009,0.166,1.188,0.614c0.193,0.488-0.151,1.301,0.109,1.752c0.061,0.104,0.25,0.094,0.299,0.205
	c0.143,0.324-0.318,0.904-0.19,1.236c0.018,0.047,0.085,0.051,0.125,0.076c0.561,0.344,0.274,0.65,0.579,0.949
	c0.103,0.098,0.393,0.002,0.5,0.098c0.295,0.268,0.355,1.457,0.617,1.844c0.1,0.148,0.447,0.242,0.504,0.406
	c0.047,0.131-0.158,0.395-0.094,0.516c0.169,0.312,0.787,0.068,1.004,0.09c0.262,0.027,0.594,0.234,0.84,0.33
	c0.555,0.217,1.15,0.395,1.685,0.656c0.453,0.221,0.853,0.615,1.323,0.793c0.327,0.127,1.091,0.061,1.312,0.176l0.105,0.205
	c0.488,0.148,1.194-0.309,1.706-0.25c0.683,0.076,2.218,1.443,2.562,1.359c0.169-0.043,0.032-0.449,0.086-0.516
	c0.056-0.07,1.135-0.309,1.299-0.354c-0.096-0.846-0.51,0.006-0.709-0.078c-0.123-0.053-0.129-0.43-0.018-0.512
	c0.016-0.01,0.35,0.035,0.197-0.109c-0.136-0.131-0.383,0.01-0.509-0.188c-0.048-0.074-0.241-0.629-0.226-0.713
	c0.004-0.008,0.201-0.258,0.09-0.309c-0.066-0.033-0.123,0.125-0.196,0.107c-0.192-0.041-0.013-0.369-0.116-0.508
	c-0.029-0.041-0.062-0.08-0.105-0.1c-0.029-0.016-0.075,0.025-0.1,0.002c-0.057-0.055-0.053-0.248-0.109-0.305l-0.201,0.006
	c-0.188-0.354,0.229-0.562,0.174-0.826c-0.07-0.342-0.309-1.281-0.547-1.525c-0.096-0.098-0.291-0.082-0.406-0.193
	c-0.055-0.053,0.078-0.135,0.094-0.209l-0.006-0.207c0.145-0.004,0.264,0.508,0.404,0.195c0.059-0.129-0.631-0.293-0.523-0.809
	c0.061-0.281,0.51,0.168,0.594-0.121c0.024-0.084-0.257-0.439-0.215-0.508c0.055-0.09,0.236-0.025,0.295-0.113
	c0.01-0.014,0.13-0.758,0.125-0.777c-0.02-0.057-0.79,0.084-1.344-0.111c-0.023-0.01-0.659,0.016-0.621-0.049
	c0.038-0.062,0.137-0.041,0.189-0.043c0.156-0.004,0.551-0.223,0.176-0.213c-0.051,0.004-0.114,0.041-0.149,0.006
	c-0.054-0.053,0.197-0.035,0.194-0.109c-0.002-0.107-0.305-0.27-0.305-0.301c-0.008-0.273,0.266,0.061-0.006-0.205
	c-0.035-0.033-0.133-0.066-0.102-0.1c0.182-0.203,0.612,0.736,0.715,0.803c0.182,0.119,0.6-0.492,0.776-0.59
	c0.032-0.018,0.07-0.08,0.097-0.055l0.01,0.309c0.035,0.066,0.251,0.043,0.201,0.098l-0.297,0.008l0.007,0.207
	c-0.038,0.064-0.197,0.035-0.195,0.109c0.001,0.059,0.284-0.107,0.294-0.111c0.115-0.059,0.406-0.125,0.489-0.223
	c0.239-0.283,0.412-1.381,0.593-1.794c0.034-0.078,0.242-0.428,0.219-0.504c-0.023-0.086-0.176-0.039-0.264-0.061
	c-0.164-0.037-0.302-0.123-0.436-0.227c-0.33-0.258-0.054-0.438-0.115-0.514c-0.131-0.16-0.773,0.434-0.793-0.182
	c-0.01-0.303,0.278,0.096,0.299,0.096c0.048-0.002,0.051-0.088,0.096-0.107c0.213-0.098,0.42,0.072,0.593,0.084
	c0.153,0.014,0.33-0.238,0.484-0.223c0.39,0.037,0.081,0.41,0.407,0.398c0.084,0,0.41-0.697,0.464-0.791
	c0.115-0.195,0.508-0.395,0.569-0.588c0.01-0.037-0.036-0.068-0.055-0.104c-0.045-0.086,0.095-0.416-0.063-0.41
	c-0.121,0.004-0.604,0.971-0.935,0.412c-0.154-0.26,0.229-0.221,0.249-0.387c0.011-0.096-0.2-0.105-0.203-0.199
	c-0.008-0.203,0.364-0.014,0.392-0.014c0.182-0.02,0.445-0.328,0.576-0.332c0.191-0.006-0.134,0.705,0.313,0.504
	c0.354-0.158-0.11-0.828,0.257-0.939c0.047-0.016,0.102,0.051,0.104,0.098c0.002,0.072-0.191,0.145-0.188,0.215
	c0,0.025,0.093,0.574,0.203,0.51c0.115-0.068,0.642-0.521,0.673-0.646c0.025-0.105-0.101-0.199-0.11-0.307
	c-0.013-0.121,0.117-0.305,0.08-0.418c-0.036-0.115-0.248-0.188-0.305-0.297c-0.135-0.262,0.293,0.109,0.236-0.219
	c-0.025-0.145-0.506-0.432,0.036-0.311c0.12,0.025,0.13,0.207,0.208,0.301c0.059,0.074,0.266,0.131,0.301,0.197
	c0.053,0.094-0.053,0.328,0.018,0.412c0.167,0.199,1.574-0.502,1.73-0.695c0.068-0.086-0.451-0.395-0.506-0.393
	c-0.08,0.004-0.245,0.266-0.382,0.225c-0.053-0.018,0.31-0.305,0.274-0.428c-0.066-0.236-0.469-0.059-0.593-0.182
	c-0.063-0.062,0.021-0.33-0.018-0.414s-0.483-0.357-0.315-0.504c0.355-0.309,0.482,0.301,0.602,0.389
	c0.001,0,0.292-0.014,0.292-0.014l0.01,0.209c0.088,0.084,0.22-0.139,0.287-0.117c0.318,0.098-0.185,0.26-0.181,0.318
	c0.002,0.035-0.03,0.1,0.004,0.104c0.061,0.006,0.461-0.209,0.501-0.254c0.104-0.121-0.129-0.17-0.136-0.332
	c-0.006-0.125,0.17-0.279,0.08-0.367c-0.053-0.051-0.133,0.158-0.189,0.111c-0.004-0.002-0.057-0.34,0.035-0.311
	c0.354,0.107,0.204,0.623,0.469,0.703c0.252,0.076,0.64-0.602,0.959-0.354c0.131,0.1-0.215,0.268-0.18,0.318
	c0.027,0.039,0.461-0.117,0.346,0.088c-0.015,0.023-0.439,0.195-0.33,0.223c0.283,0.07,1.105-0.652,1.346-0.375
	c0.025,0.027-0.029,0.068-0.043,0.104c-0.06,0.145-1.049,0.74-0.979,0.717c0.581-0.184,1.144-0.66,1.72-0.898
	c0.076-0.031,0.409-0.156,0.438-0.252c0.009-0.033-0.721,0.33-0.768,0.336c-0.195,0.02-0.237-0.184-0.188-0.328
	c0.167-0.482,1.184-0.268,1.538-0.391c0.571-0.201,1.28-0.705,1.79-1.035c0.117-0.074,1.288-1.082,1.295-1.115
	c0.004-0.014-0.199-0.828-0.25-0.92c-0.049-0.092,0.199,0.053,0.296,0.086c0.103,0.037,0.405-0.164,0.469-0.236
	c0.165-0.188,0.124-0.391,0.306-0.539c0.135-0.111,0.355,0.055,0.426-0.133l-0.018-0.311l0.319-0.02
	c0.021-0.053-0.06-0.098-0.104-0.133c-0.109-0.088-0.198-0.264-0.338-0.256c-0.027,0-0.047,0.248-0.186,0.115
	c-0.338-0.318,0.225-0.41,0.158-0.531c-0.072-0.133-0.479,0.035-0.589-0.17c-0.107-0.199,0.197-0.322,0.167-0.426
	c-0.018-0.057-0.102-0.064-0.15-0.096c-0.328-0.205,0.039-0.152,0.021-0.418c-0.007-0.102-0.221-0.016-0.293-0.086
	c-0.035-0.031-0.076-0.057,0.023-0.105c0.371-0.186,0.635,0.395,0.852,0.26c0.339-0.215,0.215-0.879,0.815-0.783
	c0.058,0.01,0.099,0.064,0.149,0.096c0.291,0.18,0.082,1.115-0.15,1.363c-0.021,0.023-0.065,0.006-0.097,0.006
	c-0.032,0.004-0.099-0.025-0.097,0.008c0.004,0.047,0.057,0.088,0.104,0.098c0.229,0.035,0.62-0.217,0.85-0.266
	c0.24-0.051,0.596,0.111,0.772,0c0.03-0.02,0.073-0.092,0.093-0.059c0.025,0.049-0.025,0.105-0.037,0.158
	c-0.082,0.346-0.203,0.004-0.43,0.082c-0.278,0.096-0.656,0.494-0.822,0.68c-0.073,0.08-0.562,0.246-0.357,0.441
	c0.113,0.105,0.641-0.51,0.734-0.57c0.359-0.238,0.804-0.402,1.192-0.596c0.68-0.342,1.433-0.887,2.159-1.1
	c0.238-0.07,0.795,0.076,0.985-0.074c0.259-0.203-0.384-0.562-0.466-0.695c-0.136-0.213,0.34-1.09,0.486-1.184
	c0.16-0.105,0.281-0.086,0.369-0.012l0.013-0.018c0.592-0.953,0.3-1.33,0.013-2.299c-0.109-0.367,0.186-0.367,0.236-0.646
	c0.035-0.207-0.226-0.426-0.24-0.609c-0.017-0.211,0.213-0.207,0.26-0.334l-0.024-0.312c0.054-0.137,0.282-0.211,0.353-0.34
	c0.211-0.389,0.105-0.877,0.184-1.273l0.163-0.327C73.84,33.867,73.479,33.808,73.626,33.548"/>
</svg>
