<?xml version="1.0" encoding="utf-8"?>
<!-- Generator: Adobe Illustrator 16.0.0, SVG Export Plug-In . SVG Version: 6.00 Build 0)  -->
<!DOCTYPE svg PUBLIC "-//W3C//DTD SVG 1.1//EN" "http://www.w3.org/Graphics/SVG/1.1/DTD/svg11.dtd">
<svg version="1.1" id="Layer_1" xmlns="http://www.w3.org/2000/svg" xmlns:xlink="http://www.w3.org/1999/xlink" x="0px" y="0px"
	 width="40px" height="25px" viewBox="0 0 40 25" enable-background="new 0 0 40 25" xml:space="preserve">
<path fill="#FFFFFF" d="M39.014,13.622c-0.121-0.155-0.523-0.877-0.699-0.912c-0.117-0.021-0.186,0.168-0.301,0.203
	c-0.227,0.07-1.029-0.139-1.119-0.103c-0.229,0.098-0.137,0.528-0.02,0.673c0.025,0.029,0.109,0.078,0.072,0.089
	c-0.137,0.042-0.451-0.218-0.672-0.13l-0.203,0.229c-0.289-0.018-0.18-0.48-0.252-0.535c-0.029-0.021-0.918-0.219-0.98-0.258
	c-0.168-0.11-0.107-0.744-0.416-0.689c-0.002,0.001-0.178,0.203-0.178,0.203c-0.127,0.017-0.297-0.2-0.424-0.209
	c-0.316-0.021-0.553,0.253-0.885,0.042c-0.104-0.065-0.135-0.244-0.256-0.258c-0.066-0.007-0.32,0.136-0.496,0.146
	c-0.127,0.008-0.939,0.312-0.873-0.076c0.01-0.061,0.43-0.061,0.473-0.064c0.08-0.007,0.367-0.193,0.393-0.189l0.256,0.258
	c0,0,0.186-0.278,0.188-0.278c0.16-0.026,0.404,0.418,0.564,0.389l0.186-0.276c0.012-0.065-0.119-0.172-0.057-0.191
	c0.02-0.005,0.041,0.012,0.053,0.026c0.1,0.118,0.525,0.453,0.703,0.401c0.117-0.035,0.32-0.313,0.549-0.275
	c0.17,0.028,0.158,0.395,0.234,0.485c0.213,0.252,0.393,0.103,0.475,0.079c0.072-0.022,0.076,0.145,0.145,0.178
	c0.002,0.001,0.277,0.026,0.277,0.026c0.129,0.058,0.229,0.272,0.363,0.306c0.004,0.002,0.625-0.247,0.639-0.275
	c0.021-0.041-0.061-0.623-0.102-0.635l-0.332,0.1c-0.07-0.087,0.197-0.166,0.188-0.277c-0.027-0.285-0.49-0.019-0.557-0.054
	c-0.152-0.078,0.135-0.323-0.178-0.391c-0.252-0.053-0.754,0.087-1.139-0.1c-0.332-0.161-0.658-0.548-0.943-0.787
	c-0.074-0.062-0.4-0.12-0.4-0.255c0-0.449,1.801,1.661,2.398,0.871c0.037-0.049,0.111-0.22-0.018-0.254
	c-0.074-0.021-0.354,0.196-0.178,0c0.021-0.026,0.084-0.049,0.064-0.077c-0.027-0.047-0.102-0.042-0.152-0.063
	c-0.459-0.192,0.053-0.128,0.062-0.241c0.008-0.091-0.201-0.065-0.227-0.154c-0.02-0.063,0.068-0.168,0.133-0.151
	c0.133,0.036,0.215,0.332,0.371,0.333c0.066,0,0.066-0.158,0.133-0.153c0.104,0.011,0.252,0.474,0.385,0.181
	c0.24-0.53-0.246-0.532-0.375-0.737c-0.049-0.078,0.32-0.196,0.006-0.279c-0.033-0.009-0.076-0.052-0.098-0.025
	c-0.023,0.026,0.033,0.065,0.031,0.101c-0.006,0.046-0.012,0.108-0.053,0.127C35.686,9.75,35.189,9.584,35.24,9.43
	c0.047-0.146,0.535-0.11,0.412-0.195c-0.193-0.13-1.064-0.01-1.305-0.092c-0.244-0.084-0.389-0.473-0.623-0.59
	c-0.166-0.083-0.414-0.044-0.582-0.159c-0.189-0.13-0.309-0.405-0.51-0.515c-0.211-0.114-0.531-0.16-0.723-0.34
	c-0.1-0.093-0.113-0.281-0.203-0.384c-0.168-0.195-0.469-0.023-0.66-0.138C31,6.988,30.984,6.925,30.965,6.865
	c-0.031-0.035-0.07-0.08-0.115-0.123c-0.07,0.017-0.107,0.163-0.189,0.166c-0.055,0.003-0.15-0.041-0.139-0.098
	c0.059-0.278,0.207-0.188,0.328-0.068c0.008-0.003,0.016-0.01,0.025-0.008c0.053,0.016,0.072,0.071,0.09,0.131
	c0.023,0.023,0.041,0.043,0.053,0.05C31.16,7,31.414,6.904,31.566,6.975c0.164,0.076,0.234,0.354,0.395,0.438
	c0.25,0.131,0.455,0.169,0.723,0.34c0.141,0.089,0.242,0.387,0.398,0.437c0.129,0.043,0.385-0.082,0.521-0.044
	c0.033,0.009,0.02,0.067,0.029,0.101c0.066,0.219-0.033,0.014,0.195,0.053c0.092,0.017,0.707,0.709,0.736,0.669
	c0.031-0.047-0.004-0.111-0.004-0.166c-0.002-0.055-0.059-0.148-0.008-0.166c0.096-0.027,0.59,0.572,0.891,0.287
	c0.201-0.188-0.191-0.075-0.174-0.281c0.008-0.076-0.029-0.171,0.021-0.228c0.037-0.043,0.143,0.003,0.162-0.05
	c0.035-0.084-0.197-0.067-0.225-0.153c-0.023-0.078,0.109-0.252,0.07-0.355l-0.191-0.238c0.049-0.222,0.393,0.015,0.219-0.549
	c-0.016-0.055-0.625-0.141-0.701-0.157c-0.117-0.026-0.23-0.078-0.35-0.08l-0.244,0.074c-0.076-0.095,0.232-0.173-0.061-0.204
	c-0.002,0-0.324,0.099-0.326,0.099c-0.094-0.025,0.02-0.286-0.012-0.33c-0.098-0.14-0.369-0.147-0.488-0.298
	c-0.023-0.029-0.031-0.085-0.07-0.09c-0.062-0.007-0.547,0.294-0.621,0.298L32.23,6.224c-0.27-0.041-0.672,0.277-0.955,0.062
	c-0.088-0.064-0.021-0.228-0.09-0.307c-0.104-0.112-0.355-0.087-0.459-0.198c-0.174-0.193,0.219-0.334-0.123-0.574
	c-0.115-0.081-1.168,1.033-1.324,0.701c-0.025-0.055,0.086-0.109,0.068-0.168c0-0.001-0.297-0.209-0.297-0.209
	c-0.006-0.055,0.1-0.071,0.111-0.126c0.051-0.216-0.191-0.544-0.141-0.789l0.131-0.15c-0.027-0.094-0.209-0.373-0.066-0.534
	c0.016-0.019,0.553,0.088,0.484-0.143c-0.006-0.019-0.408-0.214-0.17-0.282c0.043-0.013,0.068,0.092,0.109,0.078
	c0.018-0.004,0.389-0.417,0.396-0.449c0.082-0.383-0.379-0.694-0.461-0.975c-0.01-0.029,0.039-0.015,0.098,0.014l-0.018-0.037
	c-0.129-0.037-0.256-0.073-0.383-0.11c0,0-0.072-0.146-0.139-0.182c-0.045-0.021-0.098,0.004-0.145,0.006
	c-0.002,0-0.289,0.011-0.289,0.011c-0.143-0.059-0.219-0.282-0.361-0.339c-0.32-0.129-0.633,0.217-0.914,0.153
	C26.428,1.479,27.172,0.824,27,0.65c-0.254-0.254-1.156-0.212-1.539-0.224c-0.039,0.314-0.086,1.222-0.162,1.265
	c-0.207,0.118-2.555-1.264-2.928-1.174c-0.037,0.009-0.008,0.076-0.01,0.113c-0.004,0.038-0.014,0.076-0.012,0.114
	c0.01,0.356-0.066,0.675-0.066,1.014c0,0.202,0.182,0.416,0.168,0.616c-0.018,0.29-0.688,1.847-0.951,1.919
	c-0.088,0.023-0.201-0.097-0.27-0.037c-0.223,0.19-0.074,0.921-0.317,1.079C20.768,5.43,20.3,5.01,20.152,5.099
	c-0.178,0.108-0.396,2.854-0.673,3.044c-0.125,0.085-0.736-0.065-0.896-0.08l-0.357-0.031c-0.03-0.034,0.065-0.08,0.056-0.124
	c-0.015-0.055-0.079-0.078-0.119-0.116c-0.139-0.139-0.536-0.41-0.751-0.209c-0.079,0.074,0.077,1.324-0.062,1.446
	c-0.41,0.359-0.11,0.28-0.169,0.704c-0.037,0.268-0.35,0.501-0.417,0.765c-0.082,0.32,0.037,0.677-0.094,1.012
	c-0.371,0.965-0.812,1.307-0.967,2.438c-0.028,0.2,0.202,0.091,0.281,0.187c0.21,0.247-0.217,0.354-0.183,0.557
	c0.043,0.258,0.246-0.004,0.09,0.307c-0.529,1.053-0.933,0.559-0.936,0.561c-0.395,0.189-0.724,0.694-1.124,0.824
	c-0.065,0.021-0.55-0.283-0.577-0.188c-0.077,0.289,0.035,0.32,0.042,0.535c0.026,0.648-0.549,0.354-0.618,0.369
	c-0.038,0.01-0.012,0.076-0.018,0.113c-0.038,0.253-0.487,0.17-0.688,0.274c-0.081,0.043-0.194,0.278-0.286,0.286
	c-0.229,0.024-0.667-0.42-0.875-0.338c-0.092,0.035-0.079,0.405-0.154,0.473c0,0-0.334,0.078-0.335,0.08
	c-0.317,0.213-0.375,0.852-1.126,0.48c-0.107-0.055-0.127-0.229-0.238-0.273c-0.109-0.043-0.31,0.141-0.42,0.098
	c-0.001,0-0.24-0.271-0.24-0.272c-0.091-0.065-0.309-0.046-0.382-0.13c-0.083-0.095-0.013-0.318-0.093-0.414
	c-0.001,0-0.3-0.15-0.3-0.15c-0.085-0.211,0.229-0.245-0.01-0.434c-0.531,0.691-1.029,1.488-1.638,2.113
	c-0.438,0.451-1.09,0.725-1.499,1.201c-0.162,0.19,0.093,0.353,0.028,0.537c-0.077,0.229-0.499,0.336-0.583,0.562
	c-0.021,0.057,0.006,0.119,0.008,0.178c0.004,0.061,0.008,0.121,0.011,0.182c0.002,0.059,0.036,0.125,0.009,0.178
	c-0.16,0.313-0.734,0.305-0.948,0.53c-0.149,0.155-0.073,0.562-0.208,0.694c-0.274,0.277-1.441,0.714-1.843,0.932
	c-0.208,0.113-0.426,0.262-0.575,0.443c-0.035,0.044-0.106,0.131-0.106,0.131c2.293-0.475,4.583-0.965,6.866-1.475
	c0.547-0.123,1.407-0.151,1.888-0.429c0.166-0.093,0.091-0.134,0.318-0.167c0.403-0.062,1.207-0.184,1.207-0.184
	c4.515-0.672,8.924-1.824,13.331-3.001c5.043-1.348,10.061-2.795,15.051-4.327c-0.027-0.05-0.066-0.105-0.139-0.176
	c-0.072-0.068,0.172,0.088,0.266,0.137c0.061-0.02,0.121-0.037,0.182-0.056c-0.025-0.03-0.064-0.088-0.115-0.184
	c-0.041-0.073-0.17-0.866-0.053-0.83c0.357,0.11,0.475,0.536,0.617,0.878c0.084-0.026,0.164-0.051,0.248-0.076
	C39.602,14.312,39.281,13.97,39.014,13.622"/>
</svg>
