<?xml version="1.0" encoding="utf-8"?>
<!-- Generator: Adobe Illustrator 16.0.0, SVG Export Plug-In . SVG Version: 6.00 Build 0)  -->
<!DOCTYPE svg PUBLIC "-//W3C//DTD SVG 1.1//EN" "http://www.w3.org/Graphics/SVG/1.1/DTD/svg11.dtd">
<svg version="1.1" id="Layer_1" xmlns="http://www.w3.org/2000/svg" xmlns:xlink="http://www.w3.org/1999/xlink" x="0px" y="0px"
	 width="43px" height="70px" viewBox="0 0 43 70" enable-background="new 0 0 43 70" xml:space="preserve">
<path fill="#FFFFFF" d="M38.603,69.545c0.241-0.032,0.022-0.301,0.075-0.414c0.074-0.158,0.441-0.176,0.528-0.331
	c0.022-0.042-0.005-0.096-0.005-0.144c0,0-0.011-0.286-0.011-0.287c0.054-0.949-1.103-0.461-1.091-1.161
	c0.003-0.264,0.336-0.529,0.332-0.795c-0.004-0.237-0.241-0.394-0.264-0.583c-0.014-0.114,0.249-0.264,0.256-0.381
	c0.003-0.047-0.079-0.074-0.07-0.119c0.01-0.057,0.063-0.102,0.115-0.121c0.001,0,0.37-0.002,0.371-0.002
	c0.154-0.081,0.266-0.441,0.383-0.572c0.09-0.1,0.246-0.154,0.326-0.262c0.133-0.179,0.115-0.52,0.222-0.709
	c0,0,0.216-0.174,0.216-0.176c0.105-0.285-0.179-0.66-0.008-0.964l0.217-0.175c0-0.002-0.123-0.344-0.121-0.344
	c0.056-0.162,0.506-0.291,0.627-0.421c0.115-0.124,0.141-0.38,0.271-0.487c0.275-0.225,1.465-0.343,1.605-0.783
	c0.053-0.164-0.799-1.268-0.945-1.349c-0.053-0.028-0.137,0.014-0.177-0.032c-0.031-0.035,0.017-0.092,0.024-0.138
	c0.024-0.138-0.125-1.051-0.168-1.246c-0.069-0.311-0.565-0.724-0.517-0.989c0.038-0.207-0.159-0.277-0.187-0.465
	c-0.03-0.208,0.113-0.623,0.113-0.623c-5.665-7.238-11.069-14.677-16.188-22.311c-1.358-2.025-2.696-4.063-4.014-6.117
	c-0.278-0.433-1.545-2.155-1.604-2.521c-0.067-0.416,0.303-1.194,0.409-1.609c0.318-1.252,0.637-2.505,0.956-3.758
	c1.124-4.422,2.249-8.845,3.373-13.268C17.183,4.242,10.755,2.429,4.377,0.451c0.121,0.57-0.725,1.138-0.718,1.233
	c0.008,0.103,0.344,0.251,0.396,0.347c0.137,0.249-0.008,1.942-0.095,2.21C3.78,4.792,3.257,5.231,2.992,5.732
	C2.8,6.093,3.004,6.449,2.831,6.801c-0.112,0.23-0.666,0.779-0.65,0.861c0.012,0.059,0.521-0.246,0.482,0.094
	C2.648,7.885,2.05,7.821,1.921,8.086C1.904,8.121,1.926,8.163,1.929,8.2c0.002,0.038,0.027,0.082,0.007,0.115
	c-0.062,0.1-0.347,0.017-0.312-0.098c0.073-0.23,0.18-0.026,0.251-0.258c0.014-0.042-0.073,0.053-0.11,0.079
	C1.536,8.201,1.507,8.367,1.341,8.577c-0.256,0.327-0.739,0.647-0.85,1.078c-0.062,0.243,0.116,0.561,0.09,0.812
	c-0.015,0.148-0.181,0.363-0.159,0.509c0.067,0.46,0.762,0.833,0.893,1.284c0.038,0.129-0.076,0.3-0.048,0.432
	c0.036,0.16,0.303,0.305,0.379,0.452c0.135,0.258,0.342,0.822,0.351,1.112C2,14.391,1.873,14.529,1.872,14.663
	c-0.005,0.362,0.104,0.99,0.023,1.347c-0.062,0.269-0.59,0.706-0.691,1.128c-0.154,0.639,0.168,1.241,0.066,1.859
	c-0.091,0.548-0.42,0.61-0.395,0.939c0.045,0.56,0.594,1.146,0.837,1.589c0.191,0.348,0.102,0.846,0.34,1.214
	c0.215,0.333,0.704,0.565,0.87,0.925c0.083,0.177-0.031,0.986-0.027,0.99c0.028,0.033,0.066-0.083,0.11-0.078
	c0.193,0.021,0.511,0.873,0.42,0.974c-0.038,0.044-0.124-0.044-0.171-0.013c-0.161,0.102-0.213,0.718-0.352,0.895
	c-0.056,0.071-0.257,0.071-0.224,0.155c0.165,0.4,0.294-0.205,0.447-0.312c0.062-0.044-0.016,0.161,0.021,0.228
	c0.071,0.125,0.259,0.255,0.362,0.356c0.225,0.221,0.213,0.687,0.434,0.874c0.215,0.182,0.081-0.338,0.275-0.03
	c0,0,0.234,0.288,0.235,0.289c0.062,0.078,0.378,0.581,0.519,0.481c0.045-0.031,0.002-0.11,0.003-0.165
	c0.001-0.055-0.004-0.11,0.003-0.165c0.041-0.342,0.052,0.269,0.246,0.071c0.029-0.031-0.247-0.352-0.24-0.402
	c0.019-0.125,0.409-0.227,0.363-0.339l-0.216-0.172c-0.018-0.091,0.178-0.291,0.2-0.385l-0.023-0.228
	c0.186-0.151,0.372,0.099,0.578-0.167c0.062-0.079,0.134,0.148,0.202,0.224c0.113,0.126,0.697,0.846,0.821,0.842
	c0.189-0.007,0.901-0.597,0.991-0.385c0.063,0.152-0.423,0.126,0.184,0.604c0.003,0.003,0.729,0.107,0.765,0.103
	c0.1-0.01,0.243-0.247,0.262-0.148c0.043,0.227-0.423,0.11-0.318,0.353c0.08,0.188,0.761-0.263,0.933-0.184
	c0.035,0.017,0.888,1.017,0.541,0.921c-0.057-0.015-0.493-0.761-0.651-0.841c-0.094-0.046-0.588,0.212-0.605,0.274
	c-0.013,0.047,0.149,0.102,0.136,0.149c-0.005,0.019-0.371-0.166-0.392-0.175c-0.312-0.152-0.622-0.306-0.933-0.459
	c-0.348-0.171-0.622,0.001-0.941-0.111c-0.121-0.042-0.225-0.302-0.352-0.32c-0.051-0.008-0.092,0.047-0.138,0.072
	c-0.251,0.13-0.533,0.013-0.603,0.049c0,0-0.17,0.284-0.17,0.284c-0.052,0.019-0.118-0.081-0.163-0.047
	c-0.124,0.088,0.36,0.516,0.374,0.549c0.107,0.254-0.289,0.491-0.204,0.716c0,0.001,0.289,0.23,0.289,0.23
	c0.031,0.041,0.048,0.093,0.049,0.142c0.001,0.054-0.064,0.104-0.044,0.154l0.247,0.069c0.145,0.132,0.059,0.644,0.06,0.822
	c0.007,0.634,0.074,0.342,0.225,0.695c0.027,0.062,0.117,0.163,0.056,0.195c-0.209,0.107-0.899-0.643-0.959-0.782l0.058-0.205
	c-0.123-0.179-0.586-0.188-0.542-0.596c0.03-0.275,0.311-0.464,0.311-0.465c0.019-0.064-0.136-0.082-0.136-0.15
	c0.002-0.075,0.136-0.104,0.141-0.181c0.026-0.317-0.506-0.448-0.657-0.188c-0.132,0.231-0.047,0.595-0.152,0.841
	c-0.104,0.241-0.455,0.468-0.317,0.794l0.217,0.173c0.076,0.098,0.053,0.172,0.051,0.291c-0.003,0.166-0.005,0.33-0.008,0.495
	c-0.001,0.055-0.002,0.111-0.002,0.165c-0.002,0.055,0.009,0.111-0.002,0.165c-0.051,0.229-0.271,0.46-0.287,0.692
	c-0.03,0.391,0.441,1.186,0.646,1.508c0.107,0.168,0.435,0.565,0.634,0.621c0.112,0.031,0.166-0.063,0.279-0.032l0.137,0.149
	c0.14,0.004,0.167-0.139,0.308-0.134c0.084,0.002,0.479,1.084,0.466,1.23c0,0.004-0.169,0.282-0.169,0.285
	c-0.01,0.09,0.186,0.197,0.11,0.25l-0.222-0.172c-0.156,0.063-0.244,0.543-0.367,0.67C5.772,36.996,5.74,36.19,5.312,36.74
	c-0.104,0.133,0.068,0.154,0.11,0.25c0.006,0.015-0.021,0.972-0.034,1.092c-0.015,0.145-0.22,0.482-0.171,0.613
	c0.118,0.318,0.732,0.731,0.897,1.02c0.172,0.301,0.078,0.757,0.252,1.058c0.072,0.124,0.316,0.188,0.368,0.321
	c0.023,0.059-0.004,0.126-0.006,0.191c-0.004,0.126-0.009,0.252-0.014,0.38c-0.002,0.063-0.02,0.128-0.006,0.188
	c0.069,0.322,0.417,0.581,0.484,0.901c0.038,0.177-0.133,0.477,0.004,0.659c0.111,0.149,0.447,0.123,0.569,0.264
	c0.286,0.332,0.189,0.99,0.466,1.33c0.152,0.188,0.592,0.205,0.714,0.41c0.025,0.041-0.005,0.096-0.007,0.145L8.924,45.85
	c0.02,0.066,0.163,0.082,0.145,0.148L8.87,46.054l0.054-0.204c-0.234,0.066-0.444,0.691-0.33,0.896
	c0.287,0.518,0.798,0.314,1.068,0.83c0.249,0.473-0.414,0.801-0.495,1.182c-0.038,0.178,0.15,0.398,0.125,0.578
	c-0.023,0.17-0.193,0.318-0.221,0.488c-0.022,0.139,0.105,0.322,0.065,0.454c-0.103,0.354-0.395,0.329-0.386,0.772l0.346,0.089
	c0.096,0.063,0.158,0.171,0.208,0.274c0.061,0.123,0.025,0.49,0.127,0.577c0.173,0.149,1.471,0.153,1.792,0.245
	c0.492,0.139,0.769,0.526,1.201,0.74c0.511,0.253,1.363,0.209,1.743,0.436c0.403,0.242,0.561,0.838,0.934,1.1
	c0.073,0.053,0.206-0.006,0.262,0.065c0.261,0.329-0.129,0.665,0.539,1.218c0.201,0.166,1.335,1.01,1.52,1.014
	c0.354,0.01,1.081-0.071,1.456,0.129c0.104,0.055,0.496,1.238,0.505,1.416c0.012,0.263-0.289,0.279-0.232,0.596l0.265,0.062
	c0.079,0.044,0.219,0.282,0.306,0.287c0.015,0.001,0.287-0.591,0.955-0.104c0.307,0.225,0.431,0.75,0.698,1.023
	c0.133,0.137,0.348,0.193,0.486,0.326c0.252,0.247,0.344,0.604,0.548,0.879c0.823,1.116,1.213,1.203,1.55,2.715
	c0.084,0.383,0.268,1.165,0.133,1.535c-0.041,0.114-0.209,0.152-0.246,0.269c-0.041,0.122,0.105,0.319,0.089,0.449
	c-0.01,0.088-0.331,0.573-0.134,0.616c0.06,0.013,0.209-0.385,0.27-0.373c0.102,0.023,0.589,0.772,0.384,0.837
	c-0.142,0.045-0.451-0.854-0.451-0.526l0.226,0.262c0.056,0.119,0.051,0.336,0.068,0.467c0.017,0.107,0.023,0.207,0.027,0.307
	l0.02,0.004c3.15,0.398,6.305,0.764,9.461,1.094c0.428,0.045,3.456,0.26,3.605,0.37c0.034,0.024,0.051,0.056,0.062,0.088l0.115-0.07
	C38,69.139,38.168,69.602,38.603,69.545"/>
</svg>
