<?xml version="1.0" encoding="utf-8"?>
<!-- Generator: Adobe Illustrator 16.0.0, SVG Export Plug-In . SVG Version: 6.00 Build 0)  -->
<!DOCTYPE svg PUBLIC "-//W3C//DTD SVG 1.1//EN" "http://www.w3.org/Graphics/SVG/1.1/DTD/svg11.dtd">
<svg version="1.1" id="Layer_1" xmlns="http://www.w3.org/2000/svg" xmlns:xlink="http://www.w3.org/1999/xlink" x="0px" y="0px"
	 width="13px" height="13px" viewBox="0 0 13 13" enable-background="new 0 0 13 13" xml:space="preserve">
<g>
	<g>
		<polygon fill="#FFFFFF" points="6.5,3.281 7.546,5.4 9.885,5.74 8.191,7.39 8.592,9.719 6.5,8.619 4.409,9.719 4.808,7.39 
			3.115,5.74 5.454,5.4 		"/>
	</g>
	<g>
		<path fill="#FFFFFF" d="M6.5,12.682c-3.409,0-6.182-2.773-6.182-6.182c0-3.409,2.773-6.182,6.182-6.182
			c3.408,0,6.182,2.773,6.182,6.182C12.682,9.908,9.908,12.682,6.5,12.682z M6.5,1.913c-2.529,0-4.587,2.058-4.587,4.587
			s2.058,4.586,4.587,4.586s4.586-2.057,4.586-4.586S9.029,1.913,6.5,1.913z"/>
	</g>
</g>
</svg>
