<?xml version="1.0" encoding="utf-8"?>
<!-- Generator: Adobe Illustrator 15.1.0, SVG Export Plug-In . SVG Version: 6.00 Build 0)  -->
<!DOCTYPE svg PUBLIC "-//W3C//DTD SVG 1.1//EN" "http://www.w3.org/Graphics/SVG/1.1/DTD/svg11.dtd">
<svg version="1.1" id="Layer_1" xmlns="http://www.w3.org/2000/svg" xmlns:xlink="http://www.w3.org/1999/xlink" x="0px" y="0px"
	 width="13px" height="13px" viewBox="0 0 13 13" enable-background="new 0 0 13 13" xml:space="preserve">
<path fill="none" stroke="#000000" stroke-width="0.01" stroke-miterlimit="10" d="M6.5,0.318c-3.409,0-6.182,2.773-6.182,6.182
	s2.773,6.182,6.182,6.182c3.408,0,6.182-2.773,6.182-6.182C12.682,3.091,9.908,0.318,6.5,0.318z M6.5,11.086
	c-2.529,0-4.587-2.057-4.587-4.586c0-1.919,1.185-3.566,2.861-4.25C5.308,2.033,5.89,1.913,6.5,1.913
	c2.529,0,4.586,2.058,4.586,4.587C11.086,9.029,9.029,11.086,6.5,11.086z M9.885,5.74l-1.693,1.65l0.4,2.328L6.5,8.619l-2.091,1.1
	l0.399-2.328L3.115,5.74L5.454,5.4l0.74-1.499L6.5,3.281L7.546,5.4L9.885,5.74z"/>
</svg>
