<?xml version="1.0" encoding="utf-8"?>
<!-- Generator: Adobe Illustrator 16.0.0, SVG Export Plug-In . SVG Version: 6.00 Build 0)  -->
<!DOCTYPE svg PUBLIC "-//W3C//DTD SVG 1.1//EN" "http://www.w3.org/Graphics/SVG/1.1/DTD/svg11.dtd">
<svg version="1.1" id="Layer_1" xmlns="http://www.w3.org/2000/svg" xmlns:xlink="http://www.w3.org/1999/xlink" x="0px" y="0px"
	 width="50px" height="34px" viewBox="0 0 50 34" enable-background="new 0 0 50 34" xml:space="preserve">
<path fill="#FFFFFF" d="M49.488,26.936c-0.018-0.162-0.186-0.43-0.186-0.535c-0.009-0.916-0.15-1.969-0.221-2.908
	c-0.025-0.354-0.483-1.025-0.328-1.297c0.025-0.043-0.354-0.719-0.396-0.748l-0.315-0.025c-0.025-0.104,0.254-0.07,0.266-0.174
	c0.01-0.107-0.562-0.791-0.762-0.979c-0.438-0.41-0.934-0.051-0.99-0.281c-0.066-0.262,0.723,0.041,0.723,0.031
	c0.016-0.117-0.15-0.18-0.227-0.271c-0.387-0.465-0.77-0.916-1.098-1.424c-1.165-1.818-2.902-3.305-3.922-5.209
	c-0.154-0.289-0.879-1.377-0.871-1.629c0.003-0.193,0.484-0.051,0.562,0.012c0.209,0.162-0.358,0.52,0.076,0.729
	c0.533,0.254,1.021-0.508,1.189,0.348c0.014,0.061-0.001,0.125-0.002,0.188c-0.004,0.125-0.006,0.25-0.01,0.375
	c0,0.062-0.01,0.125-0.004,0.188c0.08,0.719,0.406,1.658,0.938,2.166c0.066,0.064,0.612,0.746,0.68,0.699
	c0.111-0.072-0.525-0.674-0.745-0.904c-0.173-0.184-0.812-1.746-0.776-1.984c0.029-0.193,0.325-0.256,0.278-0.496
	c-0.109-0.572-1.935-2.01-2.411-2.486c-1.881-1.883-3.27-4.055-4.508-6.415c-0.148-0.282-0.379-0.549-0.494-0.845
	c-0.077-0.201-0.046-0.537-0.168-0.711c-0.043-0.061-0.163-0.002-0.209-0.059c-0.08-0.096-0.021-0.307-0.096-0.406
	c-0.068-0.09-0.725-0.375-0.614-0.533c0.132-0.186,0.413,0.318,0.45,0.251c0.053-0.096-0.133-0.179-0.164-0.282
	c-0.067-0.216,0.027-0.533-0.074-0.733c-0.131-0.253-0.172,0.079-0.277,0.065c-0.09-0.01-0.111-0.103-0.115-0.205l-0.024,0.023
	c-0.622,0.411-2.393-0.307-2.724-0.012l-0.044,0.224c-0.517,0.384-0.026,0.895,0.116,1.364c0.018,0.062,0.002,0.127,0.004,0.192
	c0.008,0.251-0.01,0.515,0.018,0.765c0.014,0.104,0.135,0.223,0.07,0.307c0,0-0.334,0.074-0.349,0.078
	c-0.919,0.209-0.431-0.094-0.646-0.604c-0.05-0.109-0.295-0.133-0.348-0.242c-0.068-0.143,0.223-0.139-0.139-0.193
	c-0.604-0.093-4.124,0.64-5.008,0.77c-2.351,0.349-4.704,0.679-7.058,0.99c-0.355,0.046-2.42,0.406-2.602,0.336
	c-0.428-0.164-0.33-0.544-0.566-0.955c-0.123-0.211-0.489-0.545-0.489-0.545C11.442,3.567,7.996,4.152,4.543,4.699
	C3.93,4.795,0.662,5.154,0.362,5.338C0.341,5.35,0.412,5.617,0.41,5.648c-0.008,0.131-0.149,0.42-0.108,0.543
	C0.35,6.326,0.958,6.822,1.086,6.916c0.19,0.137,0.699,0.1,0.736,0.412c0.029,0.24-0.21,0.527-0.167,0.766
	c0.03,0.158,0.202,0.268,0.35,0.355C2.14,8.422,2.423,8.533,2.411,8.607C2.389,8.709,2.033,8.797,1.972,8.887
	C1.889,9.016,2.146,9.186,1.943,9.314c-0.079,0.051-0.23-0.035-0.281,0.045C1.622,9.42,1.886,9.361,1.865,9.432
	c-0.004,0.021-0.047,0.045-0.101,0.07c0.03,0.016,0.046,0.031,0.024,0.047c-0.194,0.15-0.2-0.035-0.159,0.225
	C1.865,9.723,2.221,9.52,2.251,9.508c0.101-0.047,0.393-0.125,0.462-0.211L2.679,9.092c0.474-0.367,0.017-0.023,0.233-0.355
	c0.126-0.189,0.419-0.219,0.496-0.5c0.08-0.289-0.433-0.367-0.303-0.691c0.034-0.08,0.174,0.025,0.251,0.066
	c0.052,0.025,0.134,0.025,0.157,0.078C3.531,7.734,3.4,7.781,3.436,7.811C3.657,7.982,3.597,7.609,3.68,8.123
	C3.69,8.188,3.761,8.33,3.802,8.279c0.267-0.35,0.204-0.984,0.224-0.988C4.275,7.25,4.044,7.443,4.152,7.48
	C4.211,7.502,4.28,7.43,4.339,7.451c0.034,0.012-0.057,0.043-0.085,0.066C4.188,7.57,4.058,7.824,4.125,7.908
	c0.093,0.115,0.551,0.029,0.689,0.1C4.884,8.041,5.003,8.15,4.943,8.197c0,0-0.298-0.057-0.299-0.057
	C4.529,8.168,4.41,8.352,4.303,8.408C4.051,8.543,3.495,8.572,3.305,8.781C3.28,8.807,3.316,8.85,3.321,8.883
	c0.006,0.035-0.017,0.096,0.016,0.105C3.62,9.053,5.125,8.311,5.522,8.207c0.453-0.115,0.914-0.186,1.296-0.322
	c0.119-0.043,0.245-0.252,0.275-0.363c0.01-0.039,0.026-0.074,0.029-0.111c0.001-0.035-0.052-0.098-0.018-0.104
	C7.152,7.299,7.17,7.4,7.217,7.393c0.295-0.049,0.145-0.279,0.205,0.072c0,0,0.128,0.189,0.129,0.189
	c0.077,0.002,0.269-0.229,0.337-0.27C8.194,7.209,8.48,7.324,8.714,7.137C8.768,7.092,8.69,7.309,8.75,7.34
	c0.112,0.066,0.43-0.279,0.374-0.064C9.112,7.322,9.04,7.35,9.049,7.396l0.205,0.068c0.201,0.232,0.201,0.383,0.166,0.395
	C9.173,7.947,8.76,7.531,8.505,7.596C8.46,7.607,8.421,7.668,8.429,7.715c0.013,0.07,0.244,0.01,0.205,0.07
	C8.49,8.012,8.215,7.646,8.13,7.66C8.054,7.672,8.136,7.84,8.072,7.883C7.797,8.062,7.368,7.797,7.125,7.99
	C7.099,8.014,7.013,8.035,7.042,8.059c0.033,0.027,2.386,0.16,2.708,0.234c0.551,0.125,2.079,0.627,2.159,0.5
	c0.053-0.084-0.244,0.033-0.301-0.051c-0.062-0.09,0.077-0.223,0.038-0.324c-0.066-0.174-1.185,0.057-0.635-0.311
	c0.127-0.086,0.246,0.02,0.374-0.066c0.063-0.043-0.017-0.207,0.058-0.223l0.036,0.207c0.062,0.02,0.133-0.064,0.188-0.035
	c0.092,0.051-0.043,0.275,0.056,0.309c0.003,0.002,0.232-0.359,0.32-0.375c0.001,0,0.205,0.068,0.205,0.068
	c0.087-0.041,0.059-0.223,0.152-0.238c0.038-0.008-0.014,0.309-0.039,0.324c-0.105,0.07-0.276-0.014-0.375,0.068
	c-0.085,0.068-0.14,0.354-0.207,0.459c-0.072,0.113,0.708,0.176,0.9,0.154c0.529-0.053,0.291,0.037,0.562,0.428
	c0.019,0.023,0.033,0.039,0.047,0.051c0.021,0.004,0.042,0.012,0.062,0.016c0.077-0.021,0.133-0.178,0.268-0.135
	c0.011,0.004,0.215-0.078,0.113,0.084c-0.057,0.092-0.201,0.092-0.381,0.051c-0.02-0.004-0.041-0.012-0.062-0.016
	c-0.532-0.143-1.295-0.578-1.088-0.18c0.076,0.15,0.509,0.195,0.638,0.309c0.105,0.096,0.162,0.301,0.309,0.367
	c0.135,0.059,0.346-0.021,0.49,0.018c0.463,0.115,1.242,0.863,1.036,1.395c-0.143,0.373-0.449-0.066-0.528-0.221
	c-0.148-0.289-0.201-0.703-0.226-0.697c-0.269,0.047,0.241,1.016,0.397,1.09c0.203,0.096,1.285-0.459,1.564-0.502
	c0.099-0.016,0.31,0.076,0.397,0.029c0.209-0.109,0.406-0.826,0.731-0.773c0.104,0.018-0.117,0.41-0.109,0.443
	c0.022,0.123,1.039-0.688,1.183-0.814c0.207-0.186,0.522-0.621,0.764-0.727c0.068-0.027,0.136,0.08,0.208,0.066
	c0.088-0.016,0.6-0.424,0.659-0.129c0.009,0.045-0.114,0.094-0.075,0.121c0.218,0.16,0.263-0.305,0.221-0.361
	c-0.103-0.145-0.706-0.016-0.811-0.16c-0.178-0.246,0.54-0.01,0.544-0.035c0.016-0.061-0.091-0.098-0.095-0.158
	c-0.035-0.441,0.235-0.314,0.481-0.52l0.054-0.223c0.084-0.092,0.589,0.096,0.603,0.092l0.147-0.24
	c0.287-0.188,0.718-0.105,0.996,0.012c0.162,0.066,0.885,0.504,1.042,0.424c0.043-0.021,0.028-0.111,0.073-0.121
	c0.109-0.021,1.24,0.65,1.337,0.787c0.067,0.098,0.003,0.322,0.083,0.408c0.122,0.131,0.57,0.213,0.743,0.271
	c0.973,0.322,0.201,0.602,0.589,0.938c0.172,0.15,0.962,0.301,1.167,0.393c0.285,0.127,0.356,0.479,0.527,0.629
	c0.098,0.086,0.31,0.055,0.422,0.125c0.15,0.096,0.172,0.379,0.297,0.465c0.208,0.146,1.215-0.295,1.369-0.188
	c0.182,0.127,0.117,0.303,0.158,0.391l0.328,0.141c0.117,0.123,0.119,0.445,0.228,0.588c0.157,0.205,0.532,0.207,0.679,0.381
	c0.126,0.148,0.14,0.605,0.133,0.607c-0.212,0.047-0.02-0.209-0.232-0.16c-0.15,0.033,0.17,0.254,0.278,0.363
	c0.146,0.148-0.043,0.402,0.017,0.525c0.044,0.094,0.284,0.59,0.271,0.789l-0.146,0.244c-0.022,0.125,0.095,0.277,0.089,0.404
	c-0.01,0.213-0.287,0.594-0.227,0.791c0.046,0.156,0.074,0.496-0.037,0.748c-0.031,0.07-0.145,0.074-0.169,0.145
	c-0.07,0.189,0.224,0.346,0.3,0.463c0.123,0.188,0.015,1.211-0.098,1.396c-0.025,0.039,0.004-0.094,0.004-0.143
	c0-0.002,0.031-0.371-0.072-0.018c-0.182,0.621,0.459,0.656,0.746,0.963c0.088,0.096,0.089,0.453,0.304,0.463
	c0.092,0.004-0.075-0.248-0.185-0.383c-0.17-0.211-0.575-0.324-0.635-0.602c-0.021-0.09,0.159,0.008,0.451,0.221l0.258,0.26
	c0.06,0.027,0.138-0.08,0.193-0.043c0.023,0.018,0.237,0.506,0.332,0.141c0.075-0.291-0.07-0.676-0.008-0.951l0.147-0.244
	c-0.013-0.025-0.345,0.094-0.384,0.084c-0.037-0.008-0.379-0.135-0.404-0.156c-0.25-0.238,0.247-0.236,0.161-0.268
	c-0.079-0.025-0.33-0.174-0.228-0.346c0.061-0.096,0.496,0.051,0.529,0.123c0.021,0.043-0.096,0.08-0.072,0.121
	c0.053,0.09,0.436-0.008,0.523,0.096c0.16,0.189-0.07,0.533,0.134,0.605c0,0,0.311,0.037,0.312,0.037
	c0.126-0.158-0.308-0.572,0.035-0.748c0.2-0.102,0.511,0.486,0.541,0.619c0.043,0.197-0.688,1.131-0.744,1.506
	c0,0-0.034,0.234-0.049,0.326c0.035-0.01,0.068-0.014,0.09,0.016l-0.148,0.244c-0.049,0.041-0.206-0.021-0.191,0.043
	c0.016,0.072,0.271,0.012,0.215,0.057c-0.035,0.031-0.092-0.002-0.137-0.006c-0.045,0-0.108-0.039-0.137-0.004
	c-0.137,0.178,0.184,0.189-0.129,0.258c-0.125,0.027-0.182-0.037-0.274-0.098c-0.039-0.027-0.128-0.129-0.117-0.08
	c0.093,0.426,0.891,0.324,1.112,0.641c0.223,0.322,0.123,0.529,0.186,0.656c0.092,0.191,0.422,0.178,0.524,0.309
	c0.024,0.029,0.108,0.08,0.07,0.088c-0.045,0.01-0.073-0.088-0.119-0.078c-0.052,0.01,0.724,0.977,0.817,1.084
	c0.357,0.412,0.721,0.854,1.312,0.92c0.098,0.01,0.304-0.135,0.329-0.129c0.141,0.037-0.11,0.238,0.143,0.18
	c0.057-0.014-0.045-0.107-0.07-0.16c-0.064-0.148-0.188-0.605-0.328-0.699c-0.077-0.051-0.234,0.016-0.313-0.035
	c-0.04-0.027-0.122-0.252-0.165-0.279c-0.04-0.025-0.156-0.049-0.119-0.08c0.028-0.021,0.072,0.021,0.109,0.029
	c0.213,0.057,0.033,0.113,0.152,0.23c0.156,0.154,0.233-0.068,0.291-0.066c0,0,0.263,0.258,0.264,0.258l0.125-0.346
	c0.127-0.09,0.415,0.01,0.582-0.131c0.072-0.062,0.068-0.297,0.148-0.244c0.299,0.193-0.57,0.633-0.543,0.756l0.337,0.135
	c0.257,0.289-0.021,0.738,0.032,1.045c0.037,0.201,0.289,0.359,0.332,0.559c0.069,0.301-0.089,0.283,0.212,0.479l0.173-0.145
	c0.381-0.197,0.371-1.217,0.709-1.164c0.145,0.023-0.186,0.5-0.202,0.574c-0.147,0.629-0.475,0.648-0.536,0.912
	c0,0,0.092,0.002,0.138,0.004s0.092,0.002,0.138,0.004c0.133,0.004,0.469,0.156,0.575,0.115c0.223-0.088-0.246-0.473,0.194-0.045
	c0.154,0.146,0.078,0.34,0.114,0.5c0.03,0.123,0.278,0.229,0.288,0.354c0.006,0.049-0.074,0.076-0.074,0.123
	c-0.008,0.576,0.658,0.963,0.934,1.365c0.03,0.043,0.081,0.273,0.169,0.275c0.105,0.004,0.165-0.178,0.271-0.168
	c0.135,0.014-0.031,0.324-0.127,0.346c-0.074,0.018-0.18-0.119-0.219-0.055c-0.028,0.045,0.022,0.102,0.033,0.148
	c0.012,0.051-0.012,0.131,0.037,0.15c0.256,0.107,0.492-0.43,0.617-0.457c0.115-0.029,0.244,0.248,0.266,0.252
	c0,0,0.172-0.145,0.173-0.145c0.12,0.002,0.529,0.164,0.562,0.184c0.178,0.113,0.921-0.059,1.002,0.291l-0.174,0.145
	c-0.002,0.375,0.371,0.23,0.488,0.307c0.221,0.137,0.283,0.6,0.485,0.725c0.091,0.059,0.25-0.053,0.319,0.029l-0.027,0.322
	l0.244,0.152c0.098,0.115,0.103,0.379,0.218,0.473c0.409,0.336,1.165-0.023,1.575,0.463c0.152,0.182-0.16,0.402-0.324,0.395
	c-0.048-0.002-0.11-0.029-0.122-0.076c-0.011-0.045,0.103-0.084,0.075-0.123c-0.049-0.068-0.457-0.051-0.543-0.08
	c-0.096-0.031-0.268-0.23-0.368-0.227c-0.456,0.025-0.202,0.781,0.016,0.941c0.387,0.281,1.054,0.133,1.435-0.133
	c0.125-0.088,0.188-0.33,0.322-0.395c0.184-0.088,0.619,0.221,0.865,0.104c0.102-0.049,0.297-0.365,0.322-0.395
	c0.002,0,0.297-0.07,0.298-0.072c0.147-0.182-0.063-0.404,0.298-0.496c0.338-0.082,0.082,0.254,0.17,0.273
	c0.002,0.002,0.174-0.146,0.174-0.146c0.052,0,0.125,0.055,0.186,0.111c0.023-0.029,0.047-0.057-0.086-0.137
	c-0.059-0.035-0.212,0.117-0.197,0.049c0.078-0.357,0.275-0.217,0.438-0.088c-0.036-0.033-0.067-0.072-0.068-0.107
	c-0.019-0.371,0.542-0.768,0.468-1.066c-0.033-0.135-0.332-0.363-0.346-0.545c-0.011-0.123,0.115-0.227,0.123-0.348
	c0.008-0.145-0.162-0.357-0.125-0.498c0.032-0.115,0.203-0.156,0.245-0.271l-0.018-0.346c-0.004-0.059-0.034-0.121-0.009-0.174
	c0.047-0.102,0.322-0.098,0.367-0.199c0.057-0.125-0.256-0.57-0.016-0.684c0.291-0.133,0.213,0.529,0.283,0.512
	C49.715,28.41,49.521,27.238,49.488,26.936"/>
</svg>
