<?xml version="1.0" encoding="utf-8"?>
<!-- Generator: Adobe Illustrator 16.0.0, SVG Export Plug-In . SVG Version: 6.00 Build 0)  -->
<!DOCTYPE svg PUBLIC "-//W3C//DTD SVG 1.1//EN" "http://www.w3.org/Graphics/SVG/1.1/DTD/svg11.dtd">
<svg version="1.1" id="Layer_1" xmlns="http://www.w3.org/2000/svg" xmlns:xlink="http://www.w3.org/1999/xlink" x="0px" y="0px"
	 width="30px" height="29px" viewBox="0 0 30 29" enable-background="new 0 0 30 29" xml:space="preserve">
<path fill="#FFFFFF" d="M29.482,15.956l-0.034,0.02c0,0-0.204-0.001-0.297-0.036c-0.456-0.171-1.301-0.057-1.419-0.736
	c-0.031-0.179,0.053-0.56-0.08-0.735c-0.162-0.211-0.444-0.337-0.531-0.63l0.04-0.225c-0.069-0.09-0.232-0.06-0.317-0.139
	l-0.047-0.205c-0.182-0.053-0.856-0.082-1.021-0.298c-0.177-0.235-0.115-0.572-0.192-0.817c-0.131-0.414-0.672-0.693-0.826-1.102
	c-0.018-0.045-0.001-0.096-0.002-0.144c0-0.048,0-0.095-0.002-0.144c-0.001-0.048,0.017-0.1-0.003-0.143
	c-0.139-0.307-1.512-0.258-1.706-0.467c-0.057-0.058-0.025-0.377-0.096-0.409c-0.056-0.026-0.117,0.05-0.178,0.04
	c-0.266-0.037-0.253-0.505-0.408-0.553c-0.098-0.029-0.466,0.01-0.516-0.205c-0.063-0.279,0.029-0.309-0.141-0.616
	c-0.18-0.323-1.28-0.443-1.542-0.621c-0.372-0.253-0.476-0.861-0.896-1.094c-0.261-0.145-0.619-0.104-0.888-0.235
	c-0.151-0.074-0.283-0.285-0.445-0.333c-0.086-0.023-0.189,0.111-0.266,0.059c-0.281-0.196-0.361-0.718-0.665-0.932
	c-0.138-0.096-0.392-0.097-0.509-0.212c-0.133-0.131-0.12-0.443-0.223-0.599c-0.21-0.316-0.557-0.569-0.783-0.89
	c-0.07-0.099-0.1-0.249-0.212-0.299c-0.196-0.085-0.575,0.212-0.789,0.171c-0.127-0.023-0.742-0.385-0.835-0.468l-0.042-0.207
	c-0.047,0.01-0.025,0.104-0.067,0.121c-0.12,0.048-0.958-0.336-1.006-0.434c-0.148-0.3,0.826-1.676,0.917-2.138
	C11.341,0.787,9.224,1.26,7.104,1.715c-2.28,0.414-4.562,0.81-6.848,1.188c0,0,0.045,0.119,0.067,0.178
	c0.111,0.295,0.224,0.59,0.334,0.886c0.268,0.71,0.536,1.419,0.805,2.127c0.79,2.082,1.55,4.171,2.296,6.27
	c0.468,1.314,0.859,2.732,1.619,3.846c0.234,0.341,0.307,0.83,0.594,1.17c0.118,0.141,0.323,0.206,0.441,0.346
	c0.166,0.191,0.325,0.722,0.338,0.79c0.019,0.104-0.246,0.217-0.123,0.344c0.114,0.117,0.561,0.163,0.625,0.308
	c0.088,0.207-0.527,0.596-0.603,0.809c-0.013,0.031-0.187,1.996-0.17,2.111c0.031,0.24,0.137,0.702,0.264,0.908
	c0.165,0.27,0.619,0.441,0.634,0.839c0,0.005-0.125,0.342-0.125,0.343l0.129,0.189c0.089,0.551-0.391,1.184,0.033,1.695l0.204,0.068
	c0.372,0.283,0.501,0.63,0.583,1.061c0,0,0.366,0.334,0.489,0.544c0.236,0.411,0.138,0.79,0.566,0.955
	c0.181,0.069,2.247-0.29,2.602-0.337c2.354-0.311,4.708-0.641,7.058-0.989c0.884-0.13,4.403-0.862,5.008-0.77
	c0.361,0.056,0.07,0.052,0.139,0.193c0.053,0.11,0.298,0.134,0.348,0.243c0.215,0.509-0.273,0.811,0.646,0.602
	c0.015-0.003,0.349-0.078,0.349-0.078c0.064-0.082-0.057-0.202-0.07-0.305c-0.027-0.25-0.01-0.515-0.018-0.766
	c-0.002-0.065,0.014-0.131-0.004-0.192c-0.143-0.47-0.633-0.981-0.116-1.364l0.044-0.225c0.331-0.294,2.102,0.424,2.724,0.014
	l0.024-0.024c-0.004-0.123,0.019-0.261-0.004-0.302c-0.045-0.087-0.419-0.33-0.396-0.443c0.02-0.094,0.232,0.018,0.277-0.066
	c0.036-0.066-0.131-0.105-0.139-0.182c-0.018-0.13,0.146-0.302,0.117-0.43c-0.041-0.167-0.376-0.037-0.354-0.158
	c0.01-0.053,0.471-0.039,0.319-0.289L27.5,22.608c-0.002-0.113,0.343,0.13,0.428,0.041c0.039-0.038,0.103-0.477,0.012-0.504
	c-0.069-0.019-0.137,0.077-0.16,0.146c-0.021,0.065,0.119,0.205,0.05,0.203c-0.321-0.013-0.418-0.805-0.216-0.916
	c0.314-0.173,0.105,0.653,0.395,0.444c0.062-0.046,0.466-0.924,0.448-0.965c-0.127-0.292-0.694-0.186-0.918-0.213
	c-0.097-0.012-0.323,0.006-0.277-0.078c0.044-0.08,0.722-0.023,0.837-0.076c0.395-0.173-0.076-0.165-0.051-0.342
	c0.033-0.251,0.205,0.02,0.239-0.003l0.02-0.327c0.031-0.139,0.28-0.442,0.247-0.576c-0.096-0.396-0.398,0.165-0.436,0.189
	c-0.059,0.039,0.008-0.162-0.049-0.203c-0.085-0.059-0.342,0.105-0.312,0.008c0.054-0.168,0.757-0.137,0.579-0.502l-0.23-0.16
	c-0.008-0.035,0.068,0.02,0.104,0.031c0.193,0.054,0.123,0.213,0.268,0.312c0.09,0.063,0.219-0.224,0.224-0.269
	c0.046-0.43-0.546-0.363-0.53-0.412c0.016-0.055,0.111-0.076,0.11-0.133c-0.001-0.116-0.642-0.239-0.55-0.301
	c0.048-0.032,0.115,0.002,0.172,0.002c0.174,0.002,0.347,0.004,0.52,0.006c0.059,0,0.123,0.027,0.174,0.001
	c0.127-0.063,0.324-0.539,0.183-0.636c-0.021-0.015-0.233-0.018-0.372-0.049c-0.004,0.002-0.01,0-0.014-0.004
	c-0.078-0.02-0.127-0.05-0.082-0.104c0.022-0.03,0.041-0.049,0.062-0.072c0.006-0.045,0.012-0.098,0.023-0.164
	c0.008-0.039-0.016-0.104,0.021-0.113c0.18-0.043,0.479,0.276,0.709,0.152c0.469-0.253-0.423-0.645,0.328-0.617
	c0.08,0.003,0.302-0.336,0.287-0.393C29.711,15.883,29.59,15.938,29.482,15.956"/>
</svg>
