<?xml version="1.0" encoding="utf-8"?>
<!-- Generator: Adobe Illustrator 16.0.0, SVG Export Plug-In . SVG Version: 6.00 Build 0)  -->
<!DOCTYPE svg PUBLIC "-//W3C//DTD SVG 1.1//EN" "http://www.w3.org/Graphics/SVG/1.1/DTD/svg11.dtd">
<svg version="1.1" id="Layer_1" xmlns="http://www.w3.org/2000/svg" xmlns:xlink="http://www.w3.org/1999/xlink" x="0px" y="0px"
	 width="44px" height="29px" viewBox="0 0 44 29" enable-background="new 0 0 44 29" xml:space="preserve">
<g id="g24464" transform="translate(-39.879829,-147.67475)">
	<g id="g24287">
		<g id="g24298" transform="matrix(0.8088625,0,0,0.8088625,-45.258482,114.6595)">
			<polygon id="polygon11" fill="#FFFFFF" points="114.254,41.44 114.265,41.465 114.387,41.512 114.558,41.526 114.609,41.544 
				114.717,41.624 114.76,41.705 114.922,41.81 114.937,41.846 114.932,41.928 114.991,42.007 114.98,42.062 115.008,42.107 
				115.014,42.184 115.041,42.224 115.094,42.206 115.118,42.213 115.135,42.281 115.132,42.411 115.1,42.488 115.09,42.616 
				115.006,42.758 114.976,42.832 114.91,42.913 114.825,43.151 114.71,43.276 114.666,43.398 114.656,43.484 114.691,43.71 
				114.648,43.816 114.655,43.836 114.752,43.822 114.731,43.878 114.713,43.929 114.744,44.027 114.734,44.15 114.711,44.198 
				114.689,44.185 114.602,44.2 114.54,44.185 114.509,44.232 114.458,44.241 114.42,44.281 114.324,44.274 114.252,44.309 
				114.272,44.33 114.496,44.299 114.561,44.303 114.573,44.396 114.517,44.409 114.475,44.473 114.393,44.496 114.389,44.501 
				114.361,44.532 114.267,44.571 114.221,44.647 114.16,44.664 114.183,44.734 114.172,44.768 114.059,44.782 114.012,44.852 
				113.969,44.868 113.927,44.918 113.881,44.928 113.838,44.979 113.771,45 113.729,45.039 113.681,45.048 113.626,45.094 
				113.58,45.095 113.388,45.027 113.244,44.955 113.117,44.967 113.053,44.93 112.897,44.953 112.859,44.973 112.788,44.94 
				112.713,44.942 112.592,44.939 112.381,44.869 112.354,44.846 112.294,44.84 112.242,44.797 112.189,44.804 112.135,44.867 
				112.073,44.868 112.008,44.788 111.893,44.709 111.852,44.698 111.703,44.512 111.611,44.386 111.525,44.343 111.49,44.281 
				111.501,44.24 111.089,44.159 110.994,44.109 110.843,44.071 110.821,44.049 110.794,44.029 110.673,44.01 110.544,43.952 
				110.489,43.889 110.442,43.745 110.315,43.581 110.29,43.51 110.322,43.121 110.344,43.027 110.434,42.968 110.538,42.857 
				110.622,42.801 110.707,42.706 110.725,42.665 110.763,42.513 110.837,42.282 110.929,42.185 111.117,42.061 111.173,42.053 
				111.281,42.048 111.327,42.019 111.414,42.011 111.482,41.96 111.564,41.938 111.602,41.899 111.63,41.862 111.636,41.859 
				111.702,41.822 111.807,41.731 111.899,41.681 112.139,41.541 112.267,41.43 112.317,41.404 112.349,41.414 112.439,41.44 
				112.515,41.396 112.582,41.39 112.629,41.405 112.656,41.434 112.672,41.515 112.711,41.531 112.759,41.492 112.797,41.477 
				112.836,41.507 112.904,41.503 112.957,41.587 113.003,41.607 113.071,41.603 113.106,41.574 113.115,41.504 113.128,41.45 
				113.156,41.419 113.235,41.379 113.339,41.374 113.451,41.405 113.579,41.393 113.739,41.414 113.808,41.466 113.848,41.422 
				113.879,41.397 113.968,41.389 114.013,41.337 114.071,41.331 114.147,41.399 114.248,41.397 			"/>
			<polygon id="polygon13" fill="#FFFFFF" points="106.458,44.529 106.54,44.497 106.582,44.461 106.631,44.404 106.844,44.332 
				106.954,44.269 107.103,44.043 107.121,43.908 107.155,43.815 107.317,43.71 107.417,43.773 107.461,43.768 107.495,43.749 
				107.534,43.727 107.667,43.796 107.697,43.844 107.708,43.908 107.686,43.995 107.603,44.051 107.521,44.162 107.46,44.331 
				107.42,44.564 107.439,44.647 107.505,44.804 107.505,44.814 107.507,44.857 107.412,44.937 107.33,44.947 107.304,44.968 
				107.236,44.959 107.175,45.015 107.086,45.009 107.036,45.032 106.99,45.033 106.946,45.039 106.897,45.074 106.779,45.084 
				106.71,45.125 106.627,45.206 106.453,45.514 106.339,45.717 106.325,45.83 106.273,45.887 106.23,46.038 106.197,46.026 
				106.12,46.04 106.06,45.976 106.024,45.963 105.959,45.972 105.932,45.937 105.938,45.886 105.902,45.824 105.858,45.792 
				105.804,45.653 105.815,45.586 105.827,45.518 105.818,45.438 105.795,45.41 105.914,45.217 105.934,45.094 105.998,44.953 
				106.182,44.784 106.384,44.555 			"/>
			<polygon id="polygon25" fill="#FFFFFF" points="128.282,46.96 128.343,47.083 128.415,47.176 128.417,47.205 128.501,47.332 
				128.53,47.394 128.596,47.432 128.626,47.542 128.588,47.636 128.65,47.746 128.716,47.857 128.784,47.926 128.968,48.189 
				129.016,48.222 129.039,48.275 129.018,48.369 129.03,48.413 129.093,48.421 129.129,48.361 129.201,48.384 129.308,48.445 
				129.332,48.482 129.325,48.513 129.35,48.52 129.429,48.764 129.401,48.853 129.304,48.968 129.275,48.963 129.266,49.002 
				129.31,49.089 129.293,49.111 129.309,49.144 129.357,49.179 129.37,49.233 129.349,49.329 129.363,49.387 129.398,49.432 
				129.439,49.42 129.444,49.432 129.507,49.447 129.54,49.479 129.598,49.486 129.674,49.622 129.648,49.654 129.721,49.749 
				129.791,49.804 129.825,49.77 129.847,49.782 129.871,49.825 129.881,49.884 129.923,49.942 129.983,49.958 130.048,49.948 
				130.099,49.924 130.139,49.654 130.035,49.614 129.989,49.551 129.996,49.51 130.036,49.503 130.091,49.437 130.137,49.439 
				130.289,49.503 130.352,49.492 130.466,49.431 130.515,49.44 130.527,49.469 130.48,49.546 130.405,49.596 130.393,49.757 
				130.326,49.847 130.323,49.871 130.319,49.895 130.383,50.017 130.439,50.072 130.538,50.105 130.589,50.14 130.664,50.233 
				130.677,50.262 130.647,50.388 130.692,50.59 130.746,50.701 130.829,50.784 130.887,50.826 131,50.852 131.148,50.976 
				131.234,50.965 131.27,51.004 131.271,51.035 131.2,51.122 131.022,51.29 130.923,51.383 130.873,51.412 130.816,51.418 
				130.783,51.522 130.682,51.528 130.651,51.508 130.638,51.45 130.647,51.397 130.63,51.351 130.599,51.319 130.536,51.302 
				130.245,51.35 130.078,51.394 130.004,51.435 129.858,51.571 129.811,51.582 129.76,51.56 129.594,51.57 129.548,51.526 
				129.523,51.397 129.469,51.347 129.392,51.314 129.358,51.256 129.316,51.209 129.215,51.188 129.162,51.152 129.135,51.1 
				129.12,50.992 129.088,50.967 129.033,50.961 128.975,50.923 128.895,50.931 128.856,50.89 128.853,50.855 128.875,50.813 
				128.848,50.788 128.648,50.917 128.55,51.005 128.511,50.998 128.458,50.953 128.328,50.945 128.217,50.914 128.174,50.87 
				128.134,50.773 128.136,50.762 128.15,50.689 128.13,50.632 128.151,50.58 128.227,50.541 128.367,50.565 128.379,50.541 
				128.354,50.501 128.375,50.456 128.434,50.334 128.424,50.3 128.388,50.306 128.233,50.218 128.172,50.195 128.122,50.209 
				128.113,50.237 128.138,50.287 128.11,50.357 128.069,50.343 127.985,50.229 127.959,50.2 127.932,50.195 127.9,50.306 
				127.927,50.361 127.997,50.428 128.046,50.43 128.085,50.499 128.079,50.615 128.053,50.629 127.922,50.542 127.929,50.504 
				127.912,50.487 127.833,50.512 127.804,50.505 127.772,50.445 127.783,50.379 127.77,50.342 127.73,50.347 127.697,50.289 
				127.61,50.355 127.61,50.378 127.61,50.423 127.587,50.471 127.621,50.51 127.824,50.563 127.998,50.655 128.056,50.707 
				128.086,50.789 128.056,50.89 127.994,50.955 127.894,51 127.601,51.04 127.39,51.1 126.846,51.169 126.759,51.146 
				126.705,51.101 126.663,51.039 126.598,50.789 126.581,50.782 126.553,50.715 126.541,50.648 126.468,50.395 126.395,50.293 
				126.311,50.195 126.088,50.044 126.049,49.991 126.032,49.847 126.005,49.765 125.892,49.567 125.775,49.455 125.708,49.439 
				125.675,49.353 125.601,49.26 125.558,49.241 125.536,49.183 125.556,49.036 125.552,48.786 125.529,48.699 125.475,48.587 
				125.396,48.494 125.248,48.36 125.226,48.339 125.061,48.23 125.075,48.206 125.225,48.191 125.414,48.171 125.633,48.159 
				125.665,48.157 125.708,48.156 125.777,48.156 125.88,48.156 126.141,48.157 126.148,48.157 126.326,48.147 126.446,48.119 
				126.511,48.145 126.555,48.14 126.629,48.081 126.772,47.976 126.785,47.901 127.059,47.662 127.17,47.496 127.181,47.371 
				127.452,47.108 127.533,47.017 127.648,46.924 127.749,46.888 127.799,46.853 127.926,46.83 127.981,46.784 128.128,46.808 			
				"/>
			<polygon id="polygon27" fill="#FFFFFF" points="136.11,52.158 136.202,52.193 136.251,52.169 136.39,52.169 136.465,52.192 
				136.636,52.193 136.74,52.195 137.071,52.302 137.273,52.279 137.578,52.356 137.723,52.356 137.77,52.298 137.791,52.228 
				137.832,52.085 137.9,51.986 137.954,51.99 138.038,52.053 138.127,52.254 138.148,52.344 138.191,52.411 138.293,52.468 
				138.345,52.454 138.374,52.48 138.412,52.486 138.472,52.462 138.508,52.496 138.563,52.498 138.595,52.532 138.677,52.533 
				138.696,52.463 138.807,52.548 138.869,52.507 138.951,52.556 139.073,52.559 139.143,52.508 139.299,52.519 139.354,52.519 
				139.474,52.436 139.553,52.419 139.563,52.416 139.673,52.457 139.687,52.465 139.754,52.415 140.022,52.42 140.144,52.407 
				140.204,52.431 140.229,52.469 140.19,52.549 140.326,52.615 140.468,52.567 140.5,52.599 140.468,52.702 140.214,53.048 
				140.012,53.236 139.912,53.299 139.826,53.376 139.734,53.423 139.685,53.467 139.575,53.527 139.534,53.549 139.437,53.538 
				139.407,53.562 139.371,53.564 139.319,53.62 139.276,53.627 139.254,53.654 139.237,53.671 139.196,53.668 139.113,53.717 
				139.122,53.666 139.057,53.655 138.988,53.674 138.957,53.706 138.909,53.725 138.807,53.724 138.734,53.719 138.676,53.666 
				138.488,53.631 138.105,53.561 137.873,53.485 137.868,53.494 137.678,53.428 137.556,53.366 137.387,53.313 137.296,53.247 
				137.185,53.219 137.072,53.176 136.825,53.161 136.813,53.161 136.793,53.168 136.702,53.137 136.659,53.168 136.402,53.207 
				136.219,53.27 136.12,53.261 136.052,53.278 136.018,53.272 135.933,53.253 135.885,53.27 135.721,53.281 135.323,53.312 
				134.99,53.288 134.734,53.26 134.684,53.254 134.642,53.232 134.597,53.193 134.602,53.154 134.656,53.074 134.683,53.033 
				134.702,52.898 134.719,52.852 134.77,52.815 134.787,52.765 134.807,52.711 134.92,52.559 134.981,52.549 135.029,52.509 
				135.139,52.417 135.184,52.343 135.2,52.311 135.207,52.234 135.205,52.117 135.205,52.101 135.163,52.034 135.104,51.994 
				135.097,51.955 135.12,51.912 135.156,51.907 135.246,51.947 135.468,51.984 135.561,51.959 135.68,51.988 135.764,52.083 
				135.807,52.11 136.103,52.146 			"/>
			<polygon id="polygon29" fill="#FFFFFF" points="142.453,54.722 142.432,54.722 142.335,54.604 142.335,54.565 142.381,54.602 			
				"/>
			<polygon id="polygon31" fill="#FFFFFF" points="137.675,54.979 137.808,54.972 137.878,54.988 137.968,55.005 138.092,55.02 
				138.155,55.025 138.223,55.008 138.484,55.083 138.65,55.136 138.805,55.244 138.922,55.359 139.099,55.512 139.177,55.577 
				139.322,55.745 139.491,55.98 139.556,56.124 139.57,56.208 139.55,56.278 139.39,56.508 139.3,56.705 139.253,56.763 
				139.078,56.77 138.877,56.892 138.795,56.899 138.734,56.938 138.672,56.951 138.645,56.941 138.566,56.987 138.435,56.985 
				138.281,57.008 138.167,57.009 138.095,57.026 138.049,57.019 138.018,56.992 137.931,56.918 137.863,56.853 137.832,56.798 
				137.764,56.598 137.759,56.476 137.756,56.339 137.774,56.223 137.769,56.129 137.73,56.023 137.561,55.79 137.486,55.738 
				137.192,55.584 137.098,55.467 137.059,55.366 137.073,55.244 137.101,55.157 137.148,55.119 137.218,55.107 137.238,55.117 
				137.309,55.045 137.387,55.011 137.486,55 			"/>
			<g id="polygon35">
				<polygon fill="#FFFFFF" points="141.195,54.049 141.163,54.008 141.201,53.966 141.256,53.962 141.335,53.991 141.413,53.954 
					141.487,53.992 141.542,53.941 141.669,53.929 141.751,54.016 141.842,54.049 141.905,54.102 141.973,54.126 142.022,54.203 
					142.092,54.253 142.219,54.385 142.287,54.414 142.306,54.466 142.306,54.469 142.304,54.597 142.391,54.732 142.432,54.754 
					142.446,54.787 142.509,54.892 142.61,55.001 142.654,55.119 142.779,55.285 142.819,55.314 142.858,55.316 143.047,55.303 
					143.074,55.302 143.172,55.257 143.291,55.175 143.422,55.18 143.5,55.144 143.588,55.136 143.663,55.129 143.723,55.1 
					143.839,54.972 143.938,54.919 144.046,54.885 144.132,54.902 144.204,54.825 144.291,54.796 144.381,54.802 144.444,54.857 
					144.532,54.85 144.643,54.807 144.689,54.809 144.765,54.884 144.897,54.862 144.907,54.868 144.948,54.899 144.962,54.894 
					145.03,54.884 145.13,54.93 145.208,54.963 145.271,55.062 145.329,55.095 145.414,55.228 145.46,55.252 145.597,55.371 
					145.696,55.507 145.81,55.589 145.863,55.686 145.907,55.695 146.039,55.664 146.087,55.712 146.167,55.722 146.212,55.78 
					146.258,55.933 146.295,55.955 146.37,56.047 146.399,56.059 146.411,56.064 146.466,56.064 146.547,56.035 146.62,56.037 
					146.664,56.068 146.78,56.109 146.919,56.237 146.961,56.245 147.175,56.286 147.29,56.322 147.452,56.414 147.664,56.676 
					147.647,56.76 147.64,56.801 147.654,56.891 147.616,57.057 147.626,57.102 147.589,57.198 147.601,57.249 147.553,57.319 
					147.437,57.491 147.379,57.539 147.341,57.552 147.254,57.584 147.197,57.622 147.08,57.779 147.028,57.865 147.022,57.873 
					146.977,57.905 146.824,57.951 146.776,57.951 146.722,57.91 146.695,57.91 146.636,57.951 146.534,58.018 146.457,58.025 
					146.334,58.111 146.276,58.126 146.22,58.184 146.206,58.186 146.171,58.188 146.144,58.227 146.112,58.237 146.054,58.181 
					146.003,58.172 145.91,58.185 145.869,58.214 145.8,58.204 145.757,58.214 145.67,58.158 145.559,58.163 145.438,58.192 
					145.321,58.24 145.175,58.335 145.023,58.395 145.003,58.406 144.914,58.458 144.825,58.47 144.767,58.511 144.692,58.53 
					144.606,58.595 144.547,58.615 144.433,58.617 144.32,58.598 144.233,58.605 144.177,58.634 144.141,58.653 144.074,58.639 
					144.018,58.668 143.941,58.673 143.835,58.711 143.777,58.717 143.707,58.671 143.516,58.669 143.467,58.64 143.417,58.635 
					143.393,58.601 143.4,58.551 143.364,58.482 143.255,58.496 143.199,58.465 143.122,58.351 143.129,58.32 143.139,58.269 
					143.127,58.217 143.071,58.106 143.018,58.051 143.088,57.957 143.109,57.904 143.119,57.764 143.084,57.598 143.098,57.473 
					143.088,57.446 143.052,57.229 142.958,56.996 142.924,56.834 142.929,56.793 142.931,56.687 142.91,56.596 142.849,56.512 
					142.745,56.444 142.621,56.396 142.567,56.39 142.475,56.419 142.432,56.438 142.272,56.583 142.224,56.6 142.188,56.592 
					141.944,56.434 141.771,56.405 141.687,56.373 141.541,56.259 141.461,56.23 141.332,56.243 141.3,56.186 141.212,56.035 
					141.157,55.984 141.089,55.953 141.067,55.911 141.005,55.815 140.85,55.678 140.797,55.594 140.768,55.433 140.732,55.354 
					140.737,55.267 140.686,55.146 140.654,55.121 140.623,55.055 140.616,54.99 140.641,54.93 140.674,54.771 140.674,54.766 
					140.749,54.558 140.826,54.457 140.86,54.406 140.919,54.206 140.965,54.157 141.009,54.148 141.07,54.18 				"/>
			</g>
			<polygon id="polygon37" fill="#FFFFFF" points="141.676,58.454 141.799,58.42 141.922,58.418 142.037,58.482 142.065,58.518 
				142.096,58.576 142.159,58.627 142.188,58.671 142.168,58.778 142.091,58.966 142.062,59.051 142.062,59.111 142.043,59.145 
				142.094,59.15 142.156,59.111 142.179,59.113 142.213,59.157 142.26,59.142 142.264,59.176 142.244,59.22 142.173,59.287 
				142.139,59.343 142.106,59.36 142.044,59.361 141.963,59.338 141.934,59.357 141.883,59.355 141.79,59.402 141.698,59.415 
				141.649,59.381 141.618,59.305 141.567,59.276 141.513,59.349 141.446,59.325 141.386,59.329 141.186,59.439 141.152,59.424 
				141.12,59.34 140.992,59.465 140.939,59.485 140.872,59.475 140.77,59.424 140.753,59.346 140.645,59.275 140.594,59.191 
				140.599,59.162 140.689,59.07 140.751,59.034 140.837,58.93 140.918,58.906 140.978,58.885 141.062,58.89 141.135,58.832 
				141.2,58.772 141.26,58.747 141.425,58.627 141.491,58.543 141.562,58.536 			"/>
			<polygon id="polygon39" fill="#FFFFFF" points="149.127,64.763 149.121,64.712 149.125,64.698 149.167,64.522 149.165,64.425 
				149.153,64.391 149.106,64.333 148.998,64.198 148.903,64.051 148.76,63.879 148.736,63.855 148.643,63.756 148.605,63.696 
				148.589,63.611 148.57,63.529 148.517,63.433 148.507,63.334 148.49,63.278 148.42,63.063 148.405,62.807 148.376,62.708 
				148.39,62.674 148.41,62.624 148.41,62.529 148.466,62.295 148.469,62.288 148.637,62.005 148.643,62.003 148.771,61.94 
				149.019,61.952 149.053,61.955 149.202,62.013 149.267,62.025 149.429,62.133 149.523,62.145 149.62,62.194 149.7,62.174 
				149.876,62.293 149.981,62.377 150.004,62.44 150.031,62.459 150.079,62.464 150.076,62.558 150.096,62.607 150.465,62.839 
				150.5,62.843 150.562,62.851 150.891,63.073 150.931,63.099 151.011,63.208 151.068,63.254 151.134,63.256 151.202,63.297 
				151.262,63.309 151.301,63.336 151.389,63.469 151.453,63.498 151.721,63.411 151.799,63.411 151.962,63.476 152.04,63.481 
				152.19,63.563 152.245,63.558 152.345,63.568 152.508,63.638 152.67,63.676 152.783,63.732 152.881,63.751 152.976,63.807 
				153.032,63.845 153.109,63.865 153.266,63.949 153.353,63.995 153.417,64.053 153.462,64.048 153.51,64.07 153.684,64.203 
				153.785,64.212 153.807,64.215 153.976,64.345 154.02,64.362 154.051,64.379 154.336,64.514 154.445,64.565 154.566,64.599 
				154.635,64.645 154.737,64.705 154.785,64.763 154.814,64.797 154.949,64.898 155.048,64.93 155.144,65 155.21,65.05 
				155.304,65.183 155.396,65.227 155.495,65.314 155.581,65.355 155.669,65.434 155.943,65.702 155.968,65.734 155.995,65.77 
				156.089,65.944 156.132,65.975 156.191,66.057 156.253,66.081 156.342,66.166 156.42,66.282 156.439,66.386 156.362,66.61 
				156.347,66.702 156.386,66.803 156.368,66.91 156.398,66.96 156.386,67.033 156.352,67.24 156.352,67.494 156.383,67.569 
				156.411,67.595 156.504,67.62 156.531,67.576 156.557,67.564 156.595,67.583 156.631,67.586 156.656,67.588 156.695,67.545 
				156.705,67.535 156.713,67.535 156.778,67.528 156.836,67.472 156.874,67.472 156.938,67.537 156.969,67.537 156.971,67.501 
				157.046,67.504 157.069,67.504 157.115,67.47 157.183,67.499 157.229,67.492 157.253,67.516 157.264,67.523 157.383,67.76 
				157.48,68.013 157.475,68.086 157.441,68.175 157.445,68.31 157.458,68.469 157.488,68.537 157.505,68.576 157.567,68.646 
				157.661,68.655 157.773,68.689 157.796,68.725 157.791,68.844 157.815,68.894 157.929,68.972 158.169,69.223 158.363,69.334 
				158.395,69.36 158.418,69.38 158.501,69.411 158.593,69.469 158.716,69.493 158.842,69.571 158.96,69.59 159.073,69.679 
				159.116,69.79 159.084,69.909 159.019,70.02 158.976,70.194 158.973,70.203 158.827,70.346 158.68,70.527 158.533,70.655 
				158.426,70.718 158.284,70.862 157.994,71.051 157.955,71.077 157.75,71.304 157.521,71.471 157.396,71.601 157.299,71.671 
				157.253,71.691 156.953,71.821 156.911,71.838 156.495,71.985 156.357,72.096 156.137,72.203 155.954,72.355 155.799,72.401 
				155.623,72.454 155.529,72.458 155.357,72.526 155.145,72.541 155.005,72.514 154.894,72.461 154.763,72.451 154.68,72.413 
				154.582,72.417 154.541,72.439 154.494,72.461 154.317,72.509 154.14,72.664 153.942,72.76 153.912,72.789 153.814,72.985 
				153.749,73.045 153.52,73.156 153.504,73.159 153.417,73.176 153.13,73.321 153.042,73.446 152.973,73.509 152.906,73.596 
				152.834,73.654 152.711,73.709 152.549,73.731 152.404,73.779 152.269,73.837 152.241,73.866 152.239,73.922 152.205,74.028 
				152.134,74.05 152.101,74.059 151.92,74.284 151.827,74.366 151.798,74.419 151.813,74.637 151.779,74.769 151.712,74.9 
				151.555,75.057 151.534,75.144 151.525,75.18 151.45,75.313 151.372,75.54 151.332,75.569 151.216,75.547 151.129,75.713 
				150.88,76.006 150.757,76.088 150.686,76.136 150.605,76.155 150.57,76.146 150.552,76.093 150.574,75.924 150.552,75.878 
				150.332,75.738 150.209,75.602 150.113,75.544 149.956,75.52 149.849,75.482 149.813,75.467 149.705,75.392 149.463,75.18 
				149.398,75.148 149.217,75.112 149.045,75.033 148.695,74.914 148.661,74.902 148.594,74.839 148.517,74.617 148.439,74.475 
				148.32,74.327 148.27,74.195 148.232,73.943 148.238,73.808 148.28,73.745 148.302,73.712 148.249,73.618 148.247,73.576 
				148.297,73.499 148.323,73.42 148.316,73.33 148.375,73.171 148.368,73.132 148.403,73.06 148.395,72.905 148.425,72.683 
				148.422,72.596 148.444,72.487 148.517,72.125 148.504,71.893 148.55,71.712 148.438,71.254 148.397,71.203 148.338,71.13 
				148.321,71.058 148.35,70.928 148.298,70.843 148.28,70.778 148.222,70.701 148.195,70.628 148.159,70.406 148.232,70.28 
				148.224,70.237 148.185,70.196 148.142,70.191 148.089,70.208 148.04,70.165 147.997,70.155 147.978,70.15 147.942,70.085 
				147.949,69.996 147.932,69.916 147.86,69.754 147.881,69.612 147.872,69.566 147.767,69.37 147.799,69.303 147.792,69.281 
				147.749,69.247 147.752,69.134 147.72,68.979 147.696,68.948 147.667,68.909 147.642,68.827 147.582,68.745 147.555,68.639 
				147.563,68.605 147.507,68.556 147.406,68.535 147.324,68.46 147.198,68.412 147.169,68.383 147.152,68.317 147.151,68.313 
				147.196,68.209 147.184,68.148 147.137,68.095 147.115,68.02 147.003,67.936 146.98,67.875 146.963,67.728 146.942,67.682 
				146.896,67.653 146.836,67.615 146.824,67.586 146.918,67.465 146.911,67.409 146.968,67.291 146.951,67.19 146.965,67.115 
				147.015,67.042 147.144,66.946 147.319,66.774 147.425,66.632 147.443,66.613 147.599,66.458 147.669,66.354 147.741,66.299 
				147.831,66.26 147.903,66.255 147.954,66.253 148.041,66.277 148.084,66.272 148.146,66.226 148.205,66.212 148.21,66.183 
				148.183,66.091 148.207,66.045 148.265,65.987 148.285,65.941 148.345,65.888 148.354,65.883 148.369,65.792 148.405,65.755 
				148.415,65.7 148.548,65.618 148.488,65.548 148.501,65.48 148.537,65.415 148.538,65.415 148.596,65.398 148.63,65.371 
				148.625,65.316 148.728,65.33 148.728,65.282 148.785,65.207 148.879,65.084 148.911,65.06 149.097,64.963 149.131,64.804 			"/>
		</g>
	</g>
</g>
</svg>
