<?xml version="1.0" encoding="utf-8"?>
<!-- Generator: Adobe Illustrator 15.1.0, SVG Export Plug-In . SVG Version: 6.00 Build 0)  -->
<!DOCTYPE svg PUBLIC "-//W3C//DTD SVG 1.1//EN" "http://www.w3.org/Graphics/SVG/1.1/DTD/svg11.dtd">
<svg version="1.1" id="Layer_1" xmlns="http://www.w3.org/2000/svg" xmlns:xlink="http://www.w3.org/1999/xlink" x="0px" y="0px"
	 width="44px" height="29px" viewBox="0 0 44 29" enable-background="new 0 0 44 29" xml:space="preserve">
<path id="g24464" transform="translate(-39.879829,-147.67475)" fill="none" d="M47.157,148.179l0.009,0.021l0.099,0.038
	l0.138,0.011l0.041,0.014l0.087,0.065l0.035,0.065l0.131,0.085l0.012,0.029l-0.004,0.066l0.048,0.064l-0.009,0.044l0.022,0.036
	l0.005,0.062l0.022,0.032l0.043-0.015l0.02,0.006l0.014,0.055l-0.002,0.105l-0.026,0.062l-0.008,0.104l-0.068,0.115l-0.024,0.06
	l-0.053,0.065l-0.069,0.192l-0.093,0.102l-0.036,0.099l-0.008,0.069l0.028,0.183l-0.035,0.085l0.006,0.016l0.078-0.011l-0.017,0.045
	l-0.014,0.041l0.025,0.08l-0.008,0.1l-0.019,0.039l-0.018-0.011l-0.07,0.012l-0.05-0.012l-0.025,0.038l-0.042,0.007l-0.031,0.032
	l-0.078-0.005l-0.058,0.028l0.016,0.017l0.181-0.025l0.053,0.003l0.01,0.075l-0.045,0.01l-0.034,0.052l-0.066,0.019l-0.003,0.004
	l-0.022,0.025l-0.076,0.032l-0.037,0.062l-0.049,0.014l0.019,0.057l-0.009,0.027l-0.091,0.011l-0.038,0.057l-0.035,0.013
	l-0.034,0.041L46.855,151l-0.035,0.042l-0.054,0.017l-0.034,0.031l-0.039,0.007l-0.044,0.037l-0.037,0.001l-0.155-0.055
	l-0.117-0.058l-0.103,0.01l-0.052-0.03l-0.126,0.019l-0.031,0.016l-0.057-0.027l-0.061,0.002l-0.098-0.003l-0.17-0.057l-0.022-0.019
	l-0.049-0.005l-0.042-0.035l-0.043,0.006l-0.043,0.051l-0.05,0.001l-0.052-0.065l-0.093-0.063l-0.033-0.009l-0.121-0.15
	l-0.074-0.102l-0.069-0.035l-0.028-0.05l0.009-0.033l-0.333-0.065l-0.077-0.04l-0.122-0.031l-0.018-0.018l-0.021-0.016l-0.098-0.015
	l-0.104-0.047l-0.044-0.051l-0.038-0.117l-0.103-0.132l-0.02-0.058l0.026-0.314l0.018-0.076l0.073-0.048l0.084-0.089l0.068-0.045
	l0.068-0.077l0.015-0.033l0.031-0.123l0.06-0.187l0.074-0.079l0.152-0.1l0.045-0.006l0.087-0.004l0.038-0.023l0.07-0.006
	l0.055-0.041l0.066-0.018l0.031-0.032l0.022-0.03l0.005-0.002l0.054-0.03l0.085-0.074l0.074-0.041l0.194-0.113l0.104-0.09
	l0.041-0.021l0.026,0.008l0.073,0.021l0.062-0.036l0.054-0.005l0.038,0.012l0.022,0.023l0.013,0.065l0.031,0.013l0.039-0.032
	l0.031-0.012l0.031,0.024l0.055-0.003l0.043,0.068l0.037,0.016l0.055-0.003l0.028-0.023l0.007-0.057l0.011-0.043l0.022-0.025
	l0.064-0.032l0.084-0.004l0.091,0.025l0.104-0.01l0.129,0.017l0.056,0.042l0.033-0.036l0.025-0.02l0.072-0.006l0.037-0.042
	l0.047-0.005l0.062,0.055l0.082-0.001L47.157,148.179z M40.852,150.677l0.066-0.026l0.034-0.029l0.04-0.046l0.172-0.058l0.089-0.051
	l0.121-0.183l0.015-0.109l0.027-0.076l0.131-0.084l0.081,0.051l0.036-0.004l0.028-0.016l0.031-0.018l0.108,0.056l0.024,0.039
	l0.009,0.052l-0.018,0.07l-0.067,0.045l-0.066,0.089l-0.049,0.137l-0.033,0.188l0.016,0.067l0.053,0.127v0.008l0.002,0.035
	l-0.077,0.064l-0.066,0.008l-0.021,0.017l-0.055-0.007l-0.049,0.045l-0.072-0.005l-0.041,0.019l-0.037,0.001l-0.036,0.005
	l-0.04,0.028l-0.095,0.008l-0.056,0.033l-0.067,0.065l-0.141,0.249l-0.092,0.164l-0.012,0.091l-0.042,0.046l-0.035,0.122
	l-0.027-0.01l-0.062,0.011l-0.049-0.052l-0.029-0.01l-0.053,0.007l-0.022-0.028l0.005-0.042l-0.029-0.05l-0.036-0.025l-0.044-0.113
	l0.009-0.054l0.009-0.055l-0.007-0.065l-0.019-0.022l0.097-0.156l0.016-0.1l0.052-0.114l0.149-0.137l0.163-0.186L40.852,150.677z
	 M58.504,152.643l0.049,0.1l0.059,0.075l0.001,0.023l0.068,0.103l0.023,0.05l0.053,0.031l0.024,0.089l-0.031,0.076l0.05,0.089
	l0.053,0.09l0.055,0.056l0.149,0.212l0.039,0.027l0.019,0.043l-0.017,0.076l0.009,0.036l0.051,0.007l0.029-0.049l0.059,0.019
	l0.086,0.049l0.02,0.03l-0.006,0.025l0.021,0.006l0.063,0.197l-0.022,0.072l-0.079,0.093l-0.023-0.004l-0.007,0.032l0.036,0.07
	l-0.014,0.018l0.013,0.026l0.039,0.028l0.011,0.044l-0.017,0.078l0.011,0.047l0.028,0.036l0.033-0.009l0.004,0.009l0.051,0.012
	l0.026,0.026l0.047,0.006l0.062,0.11l-0.021,0.026l0.059,0.077l0.057,0.045l0.027-0.028l0.018,0.01l0.02,0.035l0.008,0.048
	l0.034,0.047l0.048,0.013l0.053-0.008l0.041-0.02l0.033-0.218l-0.084-0.032l-0.037-0.051l0.006-0.033l0.032-0.005l0.044-0.053
	l0.037,0.001l0.123,0.052l0.051-0.009l0.092-0.049l0.04,0.007l0.01,0.023l-0.038,0.062l-0.061,0.041l-0.01,0.13l-0.054,0.073
	l-0.002,0.02l-0.003,0.019l0.052,0.099l0.045,0.045l0.08,0.026l0.041,0.028l0.061,0.075l0.011,0.023l-0.024,0.102l0.037,0.164
	l0.043,0.09l0.067,0.067l0.047,0.034l0.091,0.021l0.12,0.1l0.069-0.009l0.029,0.032l0.001,0.025l-0.058,0.07l-0.144,0.136
	l-0.08,0.075l-0.041,0.023l-0.046,0.005l-0.027,0.084l-0.082,0.005l-0.025-0.017l-0.011-0.047l0.007-0.043l-0.014-0.037
	l-0.025-0.026l-0.051-0.014l-0.235,0.039l-0.135,0.036l-0.06,0.033l-0.118,0.11l-0.038,0.009l-0.041-0.018l-0.134,0.008
	l-0.037-0.036l-0.021-0.104l-0.043-0.04l-0.062-0.027l-0.027-0.047l-0.034-0.038l-0.082-0.017l-0.043-0.029l-0.022-0.042
	l-0.012-0.087l-0.026-0.021l-0.045-0.005l-0.047-0.031L59,155.855l-0.032-0.033l-0.002-0.028l0.018-0.034l-0.022-0.02l-0.162,0.104
	l-0.08,0.071l-0.031-0.005l-0.043-0.037l-0.105-0.006l-0.09-0.025l-0.035-0.035l-0.032-0.079l0.001-0.009l0.012-0.059l-0.016-0.046
	l0.017-0.042l0.062-0.032l0.113,0.02l0.01-0.02l-0.02-0.032l0.017-0.036l0.048-0.099l-0.008-0.028l-0.029,0.005l-0.125-0.071
	l-0.049-0.019l-0.041,0.011l-0.007,0.023l0.021,0.041l-0.023,0.057l-0.033-0.012l-0.068-0.092l-0.021-0.023l-0.021-0.004
	l-0.026,0.09l0.021,0.044l0.057,0.054l0.04,0.002l0.032,0.056L58.34,155.6l-0.021,0.011l-0.106-0.07l0.006-0.031l-0.014-0.014
	l-0.063,0.02l-0.024-0.005l-0.025-0.048l0.009-0.054l-0.011-0.03l-0.032,0.004l-0.027-0.047l-0.07,0.053v0.019v0.037l-0.019,0.039
	l0.027,0.032l0.165,0.043l0.141,0.074l0.047,0.042l0.024,0.066l-0.024,0.082l-0.05,0.052l-0.081,0.037l-0.237,0.032l-0.17,0.048
	l-0.44,0.056l-0.071-0.019l-0.043-0.037l-0.034-0.05l-0.052-0.202l-0.014-0.005l-0.023-0.054l-0.01-0.054l-0.059-0.205l-0.059-0.083
	l-0.068-0.08l-0.18-0.122l-0.032-0.043l-0.014-0.116l-0.022-0.066l-0.091-0.16l-0.095-0.09l-0.054-0.013l-0.026-0.07l-0.06-0.075
	l-0.035-0.015l-0.018-0.047l0.017-0.119l-0.003-0.202l-0.019-0.07l-0.044-0.09l-0.063-0.075l-0.12-0.108l-0.018-0.017l-0.133-0.088
	l0.011-0.02l0.121-0.012l0.153-0.017l0.177-0.01l0.026-0.001l0.035,0h0.056h0.083l0.211,0h0.005l0.144-0.008l0.097-0.023
	l0.053,0.021l0.035-0.004l0.06-0.048l0.116-0.085l0.01-0.061l0.222-0.193l0.09-0.134l0.009-0.101l0.219-0.212l0.066-0.074
	l0.093-0.075l0.082-0.029l0.041-0.028l0.103-0.019l0.044-0.037l0.119,0.019L58.504,152.643z M64.836,156.848l0.074,0.028l0.04-0.02
	h0.112l0.061,0.019l0.138,0.001l0.084,0.001l0.269,0.087l0.163-0.019l0.247,0.062h0.117l0.038-0.047l0.017-0.057l0.033-0.116
	l0.056-0.08l0.043,0.003l0.068,0.051l0.072,0.163l0.017,0.073l0.034,0.054l0.083,0.046l0.042-0.011l0.023,0.021l0.031,0.005
	l0.049-0.019l0.028,0.027l0.044,0.001l0.026,0.028l0.066,0l0.016-0.057l0.09,0.069l0.05-0.033l0.066,0.04l0.099,0.002l0.057-0.041
	l0.126,0.009h0.045l0.097-0.067l0.063-0.014l0.009-0.003l0.089,0.033l0.012,0.007l0.054-0.041L68,157.06l0.099-0.01l0.049,0.019
	l0.02,0.031l-0.031,0.065l0.11,0.053l0.114-0.039l0.026,0.026l-0.026,0.083l-0.205,0.28l-0.163,0.152l-0.081,0.051l-0.069,0.062
	l-0.075,0.038l-0.039,0.036l-0.089,0.048l-0.033,0.018l-0.079-0.009l-0.023,0.02l-0.029,0.001l-0.042,0.045l-0.035,0.006
	l-0.018,0.021l-0.014,0.014l-0.033-0.003l-0.067,0.04l0.008-0.042l-0.053-0.009l-0.057,0.015l-0.024,0.026l-0.039,0.015
	l-0.082-0.001l-0.06-0.004l-0.047-0.043l-0.152-0.028l-0.309-0.057l-0.188-0.062l-0.004,0.007l-0.153-0.053l-0.1-0.05l-0.137-0.043
	l-0.073-0.053l-0.089-0.022l-0.092-0.035l-0.2-0.012h-0.01l-0.017,0.005l-0.073-0.025l-0.034,0.025l-0.208,0.032l-0.148,0.051
	l-0.08-0.007l-0.055,0.014l-0.028-0.005l-0.068-0.015l-0.039,0.014l-0.133,0.009l-0.321,0.025l-0.27-0.02l-0.207-0.022l-0.04-0.005
	l-0.034-0.018l-0.036-0.031l0.004-0.032l0.043-0.065l0.022-0.033l0.015-0.109l0.015-0.037l0.041-0.03l0.014-0.041l0.017-0.044
	l0.092-0.123l0.049-0.008l0.039-0.033l0.088-0.074l0.037-0.06l0.013-0.026l0.006-0.062l-0.001-0.095v-0.013l-0.035-0.054
	l-0.047-0.033l-0.006-0.031l0.019-0.035l0.028-0.004l0.074,0.033l0.179,0.03l0.075-0.02l0.096,0.023l0.068,0.077l0.035,0.022
	l0.239,0.029L64.836,156.848z M69.966,158.922H69.95l-0.079-0.095v-0.032l0.037,0.03L69.966,158.922z M66.102,159.13l0.108-0.005
	l0.057,0.013l0.072,0.014l0.1,0.012l0.051,0.004l0.056-0.014l0.211,0.061l0.134,0.043l0.126,0.087l0.095,0.093l0.143,0.124
	l0.063,0.053l0.118,0.136l0.137,0.19l0.052,0.117l0.011,0.068l-0.016,0.057l-0.129,0.186l-0.073,0.16l-0.038,0.047l-0.142,0.005
	l-0.163,0.099l-0.065,0.006l-0.05,0.031l-0.05,0.011l-0.022-0.008l-0.063,0.038l-0.106-0.002l-0.124,0.019l-0.093,0.001
	l-0.058,0.014l-0.037-0.005l-0.024-0.022l-0.071-0.06l-0.055-0.052l-0.025-0.044l-0.055-0.162l-0.005-0.099l-0.002-0.111
	l0.015-0.094l-0.004-0.076l-0.032-0.085l-0.137-0.188l-0.061-0.042l-0.237-0.125l-0.076-0.094l-0.031-0.082l0.011-0.099l0.023-0.07
	l0.037-0.031l0.057-0.01l0.017,0.008l0.058-0.058l0.062-0.028l0.08-0.009L66.102,159.13z M68.948,158.378l-0.025-0.033l0.031-0.034
	l0.044-0.003l0.063,0.023l0.063-0.03l0.06,0.031l0.045-0.041l0.104-0.01l0.065,0.07l0.073,0.027l0.052,0.043l0.055,0.019l0.04,0.062
	l0.057,0.041l0.103,0.106l0.055,0.023l0.016,0.042v0.002l-0.002,0.104l0.071,0.109l0.033,0.018l0.011,0.026l0.051,0.085l0.081,0.088
	l0.036,0.095l0.101,0.134l0.033,0.023l0.031,0.001l0.152-0.01l0.022-0.001l0.079-0.036l0.097-0.066l0.105,0.004l0.063-0.029
	l0.07-0.007l0.062-0.005l0.048-0.023l0.094-0.104l0.08-0.043l0.088-0.028l0.07,0.014l0.058-0.062l0.07-0.023l0.073,0.005
	l0.051,0.044l0.07-0.006l0.09-0.035l0.037,0.002l0.062,0.061l0.106-0.018l0.008,0.005l0.033,0.025l0.012-0.004l0.055-0.008
	l0.081,0.037l0.062,0.027l0.051,0.08l0.048,0.026l0.068,0.108l0.038,0.019l0.11,0.097l0.08,0.11l0.092,0.066l0.043,0.078
	l0.036,0.007l0.106-0.025l0.038,0.039l0.065,0.008l0.036,0.047l0.037,0.124l0.03,0.018l0.061,0.074l0.023,0.01l0.01,0.004h0.044
	l0.066-0.023l0.059,0.001l0.035,0.025l0.094,0.033l0.113,0.104l0.033,0.006l0.174,0.033l0.093,0.029l0.131,0.074l0.172,0.212
	l-0.015,0.068l-0.005,0.033l0.011,0.073l-0.03,0.134l0.009,0.037l-0.031,0.078l0.01,0.042l-0.038,0.056l-0.094,0.14l-0.048,0.039
	l-0.029,0.01l-0.071,0.026l-0.046,0.03l-0.095,0.127l-0.042,0.069l-0.005,0.006l-0.036,0.026l-0.124,0.038h-0.038l-0.045-0.033
	h-0.021l-0.047,0.033l-0.083,0.054l-0.062,0.006l-0.1,0.069l-0.047,0.012l-0.045,0.047l-0.012,0.001l-0.028,0.001l-0.021,0.032
	l-0.025,0.008l-0.047-0.045l-0.042-0.007l-0.075,0.01l-0.033,0.023l-0.056-0.008l-0.034,0.008l-0.071-0.045l-0.089,0.004
	l-0.099,0.023l-0.095,0.039l-0.118,0.077l-0.122,0.048l-0.017,0.009l-0.072,0.042l-0.071,0.01l-0.047,0.033l-0.062,0.016
	l-0.069,0.052l-0.048,0.017l-0.093,0.001l-0.091-0.016l-0.07,0.006l-0.046,0.023l-0.028,0.015l-0.054-0.011l-0.046,0.023
	l-0.062,0.004l-0.085,0.03l-0.047,0.005l-0.057-0.037l-0.155-0.001l-0.04-0.023l-0.04-0.004l-0.02-0.028l0.006-0.041l-0.029-0.056
	l-0.088,0.011l-0.046-0.025l-0.062-0.092l0.005-0.025l0.009-0.042l-0.01-0.042l-0.046-0.09l-0.043-0.044l0.057-0.076l0.018-0.043
	l0.008-0.113l-0.027-0.134l0.011-0.101l-0.009-0.022l-0.028-0.175l-0.076-0.188l-0.027-0.131l0.004-0.033l0.001-0.085l-0.017-0.074
	l-0.05-0.068l-0.084-0.055l-0.1-0.039l-0.044-0.005l-0.074,0.023l-0.034,0.015l-0.131,0.117l-0.038,0.014l-0.029-0.007l-0.197-0.128
	l-0.14-0.023l-0.068-0.025l-0.117-0.092l-0.065-0.023l-0.104,0.01l-0.025-0.046l-0.071-0.122l-0.045-0.042l-0.055-0.025
	l-0.019-0.034l-0.049-0.078l-0.126-0.111l-0.043-0.068l-0.023-0.13l-0.029-0.063l0.005-0.071l-0.042-0.098l-0.026-0.02l-0.024-0.054
	l-0.006-0.053l0.021-0.048l0.026-0.128v-0.004l0.062-0.168l0.062-0.082l0.027-0.042l0.048-0.162l0.037-0.04l0.035-0.007l0.05,0.026
	L68.948,158.378z M69.338,161.941l0.1-0.028l0.1-0.001l0.093,0.052l0.023,0.029l0.024,0.047l0.051,0.041l0.023,0.036l-0.017,0.087
	l-0.062,0.152l-0.023,0.069v0.048l-0.016,0.027l0.042,0.004l0.049-0.032l0.02,0.001l0.027,0.036l0.038-0.012l0.003,0.028
	l-0.016,0.036l-0.059,0.054l-0.027,0.045l-0.026,0.014l-0.05,0l-0.065-0.019l-0.023,0.016l-0.042-0.002l-0.074,0.039l-0.074,0.01
	l-0.041-0.027l-0.024-0.062l-0.041-0.023l-0.044,0.059l-0.055-0.019l-0.048,0.003l-0.162,0.089l-0.027-0.012l-0.026-0.068
	l-0.104,0.102l-0.043,0.016l-0.054-0.008l-0.083-0.041l-0.014-0.063l-0.087-0.057l-0.041-0.068l0.004-0.023l0.073-0.075l0.05-0.029
	l0.069-0.084l0.065-0.019l0.049-0.017l0.067,0.004l0.06-0.047l0.053-0.048l0.048-0.021l0.134-0.097l0.054-0.068l0.057-0.005
	L69.338,161.941z M75.364,167.044l-0.004-0.041l0.003-0.012l0.034-0.143l-0.002-0.078l-0.01-0.027l-0.038-0.047l-0.087-0.109
	l-0.077-0.119l-0.116-0.139l-0.02-0.02l-0.074-0.08l-0.031-0.049l-0.013-0.068l-0.016-0.066l-0.042-0.078l-0.009-0.08l-0.014-0.045
	l-0.057-0.174l-0.013-0.207l-0.023-0.08l0.012-0.027l0.016-0.041v-0.076l0.046-0.189l0.003-0.006l0.135-0.229l0.006-0.002
	l0.104-0.051l0.2,0.01l0.028,0.002l0.119,0.047l0.053,0.01l0.131,0.088l0.076,0.01l0.079,0.039l0.064-0.016l0.143,0.096l0.085,0.068
	l0.019,0.051l0.022,0.016l0.038,0.004l-0.003,0.076l0.017,0.039l0.299,0.188l0.028,0.004l0.05,0.006l0.267,0.18l0.032,0.021
	l0.064,0.088l0.046,0.037l0.054,0.002l0.055,0.033l0.049,0.01l0.031,0.021l0.071,0.107l0.052,0.023l0.217-0.07h0.063l0.131,0.053
	l0.064,0.004l0.121,0.066l0.044-0.004l0.081,0.008l0.132,0.057l0.131,0.031l0.091,0.045l0.08,0.016l0.076,0.045l0.046,0.031
	l0.062,0.016l0.127,0.068l0.07,0.037l0.052,0.047l0.036-0.004l0.039,0.018l0.141,0.107l0.081,0.008l0.019,0.002l0.137,0.105
	l0.036,0.014l0.024,0.014l0.23,0.109l0.089,0.041l0.098,0.027l0.055,0.037l0.083,0.049l0.039,0.047l0.023,0.027l0.109,0.082
	l0.08,0.025l0.077,0.057l0.054,0.041l0.076,0.107l0.074,0.035l0.08,0.07l0.069,0.033l0.071,0.064l0.222,0.217l0.021,0.025
	l0.021,0.029l0.076,0.141l0.034,0.025l0.049,0.066l0.05,0.02l0.071,0.068l0.063,0.094l0.016,0.084l-0.062,0.182l-0.013,0.074
	l0.032,0.082l-0.015,0.086l0.024,0.041l-0.01,0.059l-0.027,0.168v0.205l0.024,0.061l0.023,0.021l0.075,0.02l0.021-0.035l0.021-0.01
	l0.031,0.016l0.029,0.002l0.02,0.002l0.032-0.035l0.008-0.008h0.007l0.053-0.006l0.047-0.045h0.03l0.052,0.053h0.025l0.002-0.029
	l0.061,0.002h0.018l0.038-0.027l0.055,0.023l0.037-0.006l0.02,0.02l0.009,0.006l0.097,0.191l0.078,0.205l-0.004,0.059l-0.027,0.072
	l0.003,0.109l0.011,0.129l0.024,0.055l0.014,0.031l0.05,0.057l0.076,0.008l0.091,0.027l0.019,0.029l-0.005,0.096l0.02,0.041
	l0.093,0.062l0.194,0.203l0.156,0.09l0.026,0.021l0.019,0.016l0.067,0.025l0.074,0.047l0.1,0.02l0.103,0.062l0.095,0.016
	l0.091,0.072l0.035,0.09l-0.025,0.096l-0.053,0.09l-0.035,0.141l-0.002,0.008l-0.118,0.115l-0.119,0.146l-0.118,0.104l-0.088,0.051
	l-0.114,0.117l-0.234,0.152l-0.032,0.021l-0.165,0.184l-0.186,0.135l-0.101,0.105l-0.079,0.057l-0.037,0.016l-0.243,0.105
	l-0.033,0.014l-0.336,0.119l-0.112,0.09l-0.178,0.086l-0.148,0.123l-0.125,0.037l-0.143,0.043l-0.076,0.004l-0.14,0.055
	l-0.171,0.012l-0.113-0.021l-0.09-0.043l-0.106-0.008l-0.066-0.031l-0.079,0.004l-0.033,0.018l-0.038,0.018l-0.143,0.039
	l-0.145,0.125l-0.16,0.078l-0.023,0.023l-0.08,0.158l-0.052,0.049l-0.186,0.09l-0.013,0.002l-0.07,0.014l-0.232,0.117l-0.07,0.102
	l-0.057,0.051l-0.055,0.07l-0.058,0.047l-0.1,0.045l-0.131,0.018l-0.117,0.039l-0.109,0.047l-0.022,0.023l-0.002,0.045l-0.027,0.086
	l-0.058,0.018l-0.026,0.008l-0.146,0.182l-0.075,0.066l-0.023,0.043l0.013,0.176l-0.028,0.107l-0.054,0.105l-0.127,0.127
	l-0.018,0.07l-0.007,0.029l-0.062,0.107l-0.062,0.184l-0.032,0.023l-0.094-0.018l-0.07,0.135l-0.202,0.236l-0.1,0.066l-0.057,0.039
	l-0.065,0.016l-0.028-0.008l-0.015-0.043l0.018-0.137l-0.018-0.037l-0.179-0.113l-0.099-0.109l-0.078-0.047l-0.127-0.02
	l-0.087-0.031l-0.028-0.012l-0.087-0.061l-0.196-0.172l-0.053-0.025l-0.146-0.029l-0.14-0.064l-0.282-0.096l-0.028-0.01
	l-0.054-0.051l-0.062-0.18l-0.064-0.115l-0.096-0.119l-0.041-0.107l-0.03-0.203l0.005-0.109l0.034-0.051l0.018-0.027l-0.042-0.076
	l-0.002-0.033l0.04-0.062l0.021-0.064l-0.005-0.072l0.048-0.129l-0.006-0.031l0.028-0.059l-0.007-0.125l0.024-0.18l-0.003-0.07
	l0.019-0.088l0.06-0.293l-0.012-0.188l0.037-0.146l-0.09-0.371l-0.033-0.041l-0.048-0.059l-0.014-0.059l0.023-0.105l-0.042-0.068
	l-0.015-0.053l-0.047-0.062l-0.022-0.059l-0.028-0.18l0.059-0.102l-0.007-0.035l-0.031-0.033l-0.035-0.004l-0.042,0.014l-0.04-0.035
	l-0.035-0.008l-0.015-0.004l-0.029-0.053l0.006-0.072l-0.014-0.064l-0.059-0.131l0.017-0.115l-0.007-0.037l-0.085-0.158l0.025-0.055
	l-0.005-0.018l-0.035-0.027l0.003-0.092l-0.026-0.125l-0.019-0.025l-0.023-0.031l-0.021-0.066l-0.048-0.066l-0.022-0.086
	l0.007-0.027l-0.045-0.039l-0.082-0.018l-0.066-0.061l-0.102-0.039l-0.023-0.023l-0.015-0.053v-0.004l0.036-0.084l-0.01-0.049
	l-0.038-0.043l-0.018-0.061l-0.09-0.068l-0.02-0.049l-0.014-0.119l-0.017-0.037l-0.038-0.023l-0.048-0.031l-0.01-0.023l0.076-0.098
	l-0.006-0.045l0.046-0.096l-0.014-0.082l0.012-0.061l0.04-0.059l0.104-0.078l0.142-0.139l0.086-0.115l0.015-0.016l0.126-0.125
	l0.057-0.084l0.058-0.045l0.073-0.031l0.059-0.004l0.041-0.002l0.07,0.02l0.034-0.004l0.051-0.037l0.048-0.012l0.004-0.023
	l-0.022-0.074l0.02-0.037l0.047-0.047l0.017-0.037l0.049-0.043l0.007-0.004l0.012-0.074l0.029-0.029l0.009-0.045l0.107-0.066
	l-0.048-0.057l0.01-0.055l0.029-0.053l0,0l0.047-0.014l0.028-0.021l-0.004-0.045l0.083,0.012v-0.039l0.047-0.061l0.075-0.1
	l0.026-0.02l0.15-0.078l0.027-0.129L75.364,167.044z"/>
</svg>
