<?xml version="1.0" encoding="utf-8"?>
<!-- Generator: Adobe Illustrator 16.0.0, SVG Export Plug-In . SVG Version: 6.00 Build 0)  -->
<!DOCTYPE svg PUBLIC "-//W3C//DTD SVG 1.1//EN" "http://www.w3.org/Graphics/SVG/1.1/DTD/svg11.dtd">
<svg version="1.1" id="Layer_1" xmlns="http://www.w3.org/2000/svg" xmlns:xlink="http://www.w3.org/1999/xlink" x="0px" y="0px"
	 width="17px" height="28px" viewBox="0 0 17 28" enable-background="new 0 0 17 28" xml:space="preserve">
<path fill="#FFFFFF" d="M2.188,15.239c0.068,0.443,0.479,2.1,0.367,2.434c-0.046,0.137-0.429,0.191-0.445,0.394
	c-0.014,0.185,0.37,0.411,0.345,0.593c-0.027,0.217-0.523,0.294-0.331,0.592c0.199,0.307,0.702,0.607,0.828,0.949
	c0.019,0.057,0,0.121,0,0.182c0,0.059,0,0.118-0.001,0.18c0,0.059-0.015,0.121,0,0.179c0.035,0.14,0.18,0.261,0.232,0.396
	c0.292,0.766-0.23,0.732-0.352,1.025l0.049,0.315c-0.031,0.105-0.192,0.142-0.217,0.249c-0.019,0.076,0.192,0.348,0.148,0.408
	c-0.084,0.117-0.372,0.166-0.452,0.393c-0.039,0.113,0.05,0.314-0.018,0.434c-0.133,0.231-0.239,0.17-0.293,0.514
	c-0.009,0.059,0.022,0.146-0.029,0.182c-0.038,0.027-0.067-0.061-0.101-0.092c-0.033-0.031-0.054-0.1-0.102-0.092
	c-0.073,0.011,0.015,0.183-0.05,0.223c-0.147,0.09-0.127-0.266-0.251,0.038c-0.188,0.459-0.061,0.412,0.195,0.724
	c0.024,0.027,0.031,0.073,0.017,0.105c-0.059,0.121-0.291,0.17-0.342,0.294c-0.143,0.348,0.173-0.085,0.108,0.245
	c-0.021,0.103-0.242,0.078-0.259,0.182c-0.002,0.014,0.228,0.932,0.226,0.934l-0.271,0.113c-0.107,0.182,0.365,0.518,0.365,0.518
	c-0.04-0.269,0.296,0.083,0.438,0.043c0.537-0.156-0.333-1.035,0.11-0.986c0.221,0.025,0.38,0.391,0.654,0.332
	c0.152-0.033,0.319-0.287,0.473-0.289c0.253-0.004-0.133,0.656,0.318,0.381c0.393-0.238,0.046-0.361-0.014-0.643
	c-0.01-0.047-0.014-0.151,0.032-0.141c0.336,0.082-0.094,0.029,0.238,0.205c0.188,0.101,0.598-0.255,0.825-0.236
	c0.494,0.039,1.066,0.34,1.398,0.639c0.049,0.045,0.126,0.108,0.185,0.077c0.371-0.199,0.153-0.673,0.369-0.922
	c0.092-0.106,0.369-0.108,0.488-0.188c0.13-0.086,0.225-0.324,0.368-0.384c0.199-0.083,0.377,0.409,0.508,0.456
	c0.095,0.033,0.434-0.148,0.503-0.085c0.042,0.036-0.01,0.109-0.014,0.165c-0.006,0.055-0.058,0.127-0.016,0.164
	c0.042,0.038,0.114-0.008,0.167-0.029c0.24-0.092,0.077-0.313,0.182-0.462c0.001,0,0.319-0.161,0.32-0.161
	c0.082-0.146-0.171-0.472-0.108-0.629c0.047-0.113,0.358-0.166,0.385-0.281l-0.16-0.261c0.019-0.031,0.503-0.038,0.591-0.245
	c0.046-0.109-0.484-0.35-0.24-0.391c0.314-0.053,0.468,0.516,0.545,0.662c0.072,0.138,1.259,0.493,1.336,0.471l0.096-0.18
	c0.002-0.002,0.336-0.059,0.336-0.059c0.321-0.207-0.159-1.496,0.27-1.886c0.176-0.159,0.424,0.155,0.732-0.239
	c0.228-0.293,0.055-0.753,0.245-1.02c0.087-0.119,0.769-0.479,0.819-0.689c0.065-0.279-0.566-1.018-0.312-1.242
	c0.612-0.547,1.189,0.098,1.299,0.085c0.275-0.034,0.632-0.665,0.875-0.815c0.143-0.086,0.475-0.215,0.641-0.229l0.268,0.058
	c0.051-0.1-0.137-0.188-0.143-0.299c0-0.002,0.104-0.345,0.104-0.346c-0.042-0.215-0.335,0.012-0.433-0.025
	c-0.086-0.035,0.04-0.219,0.043-0.225c0.32-0.619-0.646-0.379-0.016-0.975c-1.018-5.458-2.033-10.92-3.052-16.38
	c-0.009-0.043-0.059-0.512-0.101-0.525c-0.255-0.085-1.846,0.37-2.211,0.442C8.434,1.044,5.968,1.503,3.5,1.94L3.492,1.938
	c-0.6,0.576-1.4,1.078-2.005,1.171C1.312,3.137,0.692,3.14,0.775,2.875C0.776,2.87,0.782,2.829,0.762,2.827
	C0.574,2.8,0.422,2.741,0.293,2.663L0.29,2.673C0.922,6.862,1.556,11.051,2.188,15.239"/>
</svg>
