<?xml version="1.0" encoding="utf-8"?>
<!-- Generator: Adobe Illustrator 16.0.0, SVG Export Plug-In . SVG Version: 6.00 Build 0)  -->
<!DOCTYPE svg PUBLIC "-//W3C//DTD SVG 1.1//EN" "http://www.w3.org/Graphics/SVG/1.1/DTD/svg11.dtd">
<svg version="1.1" id="Layer_1" xmlns="http://www.w3.org/2000/svg" xmlns:xlink="http://www.w3.org/1999/xlink" x="0px" y="0px"
	 width="39px" height="20px" viewBox="0 0 39 20" enable-background="new 0 0 39 20" xml:space="preserve">
<path fill="#FFFFFF" d="M25.834,19.598c2.854-0.104,5.706-0.236,8.555-0.398c0.925-0.053,1.847-0.106,2.771-0.166
	c0.492-0.03,1.478-0.097,1.478-0.097c-0.253-3.457-0.508-6.915-0.761-10.372c-0.061-0.818-0.119-1.638-0.18-2.456
	c-0.016-0.203-0.143-0.692,0.024-0.815c0.027-0.02,0.109-0.043,0.079-0.059c-0.295-0.161-0.82,0.026-1.104-0.248
	c-0.087-0.084-0.036-0.321-0.11-0.419c-0.166-0.224-0.426-0.128-0.449-0.505c0,0,0.068-0.219,0.068-0.22
	c-0.094-0.155-1.23-0.74-1.068-1.108c0.025-0.06,0.121-0.062,0.16-0.117c0.102-0.151,0.035-0.401,0.131-0.542
	c0.043-0.062,0.199-0.06,0.242-0.123c0.061-0.09-0.032-0.267,0.062-0.325c0.077-0.045,0.453,0.214,0.496-0.031
	c0.02-0.118-0.053-0.234-0.078-0.351c-0.014-0.059-0.006-0.125-0.037-0.176c-0.062-0.095-0.291-0.094-0.346-0.192l-0.02-0.32
	c-0.246-0.209-0.386,0.317-0.646,0.254c-0.424-0.101-1.116-0.682-1.116-0.682s-0.865,0.04-1.298,0.058
	c-0.803,0.034-1.607,0.065-2.411,0.094c-2.469,0.089-4.937,0.161-7.405,0.237C15.501,0.744,8.127,0.763,0.757,0.578
	C0.624,6.967,0.493,13.354,0.363,19.742C8.853,19.952,17.348,19.905,25.834,19.598"/>
</svg>
