<?xml version="1.0" encoding="utf-8"?>
<!-- Generator: Adobe Illustrator 16.0.0, SVG Export Plug-In . SVG Version: 6.00 Build 0)  -->
<!DOCTYPE svg PUBLIC "-//W3C//DTD SVG 1.1//EN" "http://www.w3.org/Graphics/SVG/1.1/DTD/svg11.dtd">
<svg version="1.1" id="Layer_1" xmlns="http://www.w3.org/2000/svg" xmlns:xlink="http://www.w3.org/1999/xlink" x="0px" y="0px"
	 width="37px" height="21px" viewBox="0 0 37 21" enable-background="new 0 0 37 21" xml:space="preserve">
<path fill="#FFFFFF" d="M6.045,13.572c-0.011,0.066-0.094,0.103-0.154,0.131c-0.327,0.158-0.783,0.129-1.072,0.373
	c0,0-0.138,0.234-0.139,0.234c-0.199,0.119-0.463-0.062-0.58,0.193c-0.492,1.07,0.826,0.832,0.355,1.854
	c-0.022,0.047-0.014,0.137-0.065,0.144c-0.824,0.118-2.122-0.995-2.868-0.562c-0.077,0.046-0.647,0.994-0.639,1.053
	c0.035,0.257,0.053,0.326,0.243,0.504c0.033,0.03,0.101,0.093,0.101,0.093c0.099,0.728-0.146,0.452-0.229,0.888
	C0.954,18.694,1.5,18.658,1.31,18.861c-0.099,0.107-0.374-0.043-0.315,0.258c0.027,0.137,0.214,0.259,0.23,0.396
	c0.014,0.139-0.175,0.667-0.348,0.689c-0.254,0.035-0.473-0.364-0.659-0.339c-0.134,0.017-0.042,0.264-0.043,0.327
	c-0.007,0.219-0.089,0.653-0.089,0.653c1.735-0.257,3.47-0.522,5.203-0.802c0.272-0.044,1.722-0.183,1.855-0.303
	c0.298-0.27-0.378-0.949-0.259-1.141c0.041-0.062,0.663-0.037,0.756-0.042c0.46-0.026,0.297,0.12,0.496,0.175
	c0.342,0.094,1.087-0.203,1.442-0.271c0.732-0.14,4.542-0.957,4.976-0.868c0.046,0.01,0.059,0.099,0.104,0.09
	c0,0,0.222-0.252,0.223-0.252c0.376-0.187,2.914-0.322,3.522-0.395c1.209-0.139,2.34-0.42,3.53-0.646
	c1.311-0.25,2.656-0.375,3.973-0.593c0.842-0.14,1.684-0.276,2.527-0.4c0.293-0.044,0.742-0.028,0.988-0.193
	c0.049-0.034,0.146-0.099,0.146-0.099s0.07-0.086,0.105-0.13c0.148-0.182,0.367-0.331,0.576-0.444
	c0.4-0.217,1.568-0.653,1.842-0.931c0.135-0.134,0.059-0.54,0.209-0.694c0.213-0.227,0.787-0.217,0.947-0.531
	c0.027-0.053-0.006-0.118-0.008-0.178c-0.004-0.061-0.008-0.121-0.012-0.181c-0.002-0.06-0.029-0.122-0.008-0.178
	c0.084-0.228,0.506-0.334,0.584-0.563c0.064-0.184-0.189-0.345-0.027-0.536c0.408-0.476,1.061-0.75,1.498-1.202
	c0.609-0.624,1.107-1.422,1.639-2.113c-0.178-0.141-0.578,0.183-0.883-0.018c-0.059-0.039,0.002-0.156-0.049-0.207
	c-0.215-0.224-0.648-0.155-0.867-0.35c-0.131-0.117-0.152-0.361-0.283-0.481c-0.121-0.111-0.373-0.099-0.486-0.218
	c-0.115-0.121-0.086-0.377-0.197-0.501c-0.068-0.074-0.332-0.047-0.379-0.133c-0.258-0.452,0.209-0.087-0.389-0.568
	c-0.402-0.326-0.74-0.694-0.607-1.174c0,0,0.143-0.141,0.143-0.141c0.047-0.337-0.217-0.465-0.324-0.691
	c-0.02-0.038,0.004-0.083,0.004-0.124c0.002-0.042,0.004-0.083,0.006-0.125c0.002-0.027,0.004-0.081,0.004-0.081
	c-0.576-0.677-1.078-0.464-1.465-0.771c-0.213-0.17-0.229-0.885-0.473-0.987c-0.125-0.052-0.971,0.679-1.041,0.768
	c0,0.001-0.098,0.348-0.098,0.348c-0.055,0.056-0.354,0.075-0.434,0.092c-0.039,0.008-0.277,0.17-0.287,0.17
	c-0.131-0.008-0.268-0.21-0.396-0.243c-0.055-0.015-0.113-0.001-0.172-0.001c-0.057,0-0.115,0-0.172,0c-0.059,0-0.119,0.018-0.172,0
	c-0.086-0.027-0.117-0.168-0.209-0.174c-0.574-0.04-0.582,0.877-1.256,0.586c-0.223-0.098-0.424-0.506-0.643-0.631
	c-0.471-0.265-1.234,0.385-1.711,0.019C23.785,1.569,23.623,1,23.354,0.74c-0.129-0.125-0.406-0.111-0.555-0.217
	c-0.078-0.058-0.234-0.358-0.328-0.37c-0.188-0.023-0.488,0.414-0.678,0.458c-0.258,0.06-0.525-0.333-0.738-0.292
	c-0.172,0.033-0.35,0.393-0.35,0.393c-0.631,0.595,0.336,0.354,0.014,0.974c-0.002,0.006-0.127,0.189-0.041,0.225
	c0.098,0.038,0.391-0.19,0.432,0.026c0,0-0.104,0.344-0.104,0.345c0.006,0.11,0.193,0.2,0.143,0.299l-0.27-0.058
	c-0.164,0.015-0.498,0.143-0.639,0.229c-0.244,0.15-0.602,0.782-0.875,0.816c-0.111,0.013-0.687-0.631-1.3-0.085
	c-0.253,0.225,0.378,0.964,0.313,1.242c-0.051,0.211-0.732,0.571-0.82,0.69c-0.19,0.266-0.018,0.726-0.246,1.019
	c-0.308,0.395-0.557,0.081-0.731,0.24c-0.429,0.389,0.051,1.679-0.271,1.885c0,0-0.333,0.058-0.335,0.06L15.88,8.798
	c-0.077,0.023-1.263-0.332-1.335-0.47C14.468,8.181,14.313,7.613,14,7.666c-0.245,0.042,0.286,0.282,0.24,0.391
	c-0.089,0.207-0.573,0.214-0.592,0.245l0.161,0.26c-0.025,0.116-0.338,0.169-0.385,0.282c-0.063,0.157,0.19,0.482,0.108,0.629
	c0,0-0.318,0.161-0.32,0.161c-0.105,0.148,0.058,0.37-0.182,0.462c-0.053,0.021-0.125,0.067-0.167,0.028
	c-0.042-0.037,0.011-0.109,0.016-0.164c0.004-0.055,0.056-0.128,0.014-0.165c-0.069-0.064-0.408,0.118-0.503,0.084
	c-0.131-0.046-0.31-0.539-0.508-0.456c-0.143,0.06-0.238,0.298-0.368,0.384c-0.119,0.081-0.396,0.083-0.488,0.188
	c-0.215,0.249,0.002,0.722-0.369,0.921c-0.059,0.031-0.136-0.032-0.185-0.077c-0.332-0.299-0.904-0.6-1.398-0.639
	C8.849,10.185,8.438,10.54,8.25,10.44c-0.332-0.176,0.098-0.124-0.238-0.206c-0.046-0.01-0.041,0.094-0.032,0.141
	c0.06,0.281,0.407,0.404,0.014,0.643c-0.451,0.274-0.065-0.384-0.318-0.381c-0.154,0.002-0.321,0.256-0.474,0.289
	c-0.273,0.059-0.433-0.307-0.654-0.331c-0.442-0.05,0.426,0.829-0.11,0.986c-0.111,0.031-0.339-0.176-0.415-0.137l-0.023,0.094
	c-0.123,0.344-0.516,0.789-0.52,1.152C5.478,13.059,6.122,13.117,6.045,13.572"/>
</svg>
