<?xml version="1.0" encoding="utf-8"?>
<!-- Generator: Adobe Illustrator 16.0.0, SVG Export Plug-In . SVG Version: 6.00 Build 0)  -->
<!DOCTYPE svg PUBLIC "-//W3C//DTD SVG 1.1//EN" "http://www.w3.org/Graphics/SVG/1.1/DTD/svg11.dtd">
<svg version="1.1" id="Layer_1" xmlns="http://www.w3.org/2000/svg" xmlns:xlink="http://www.w3.org/1999/xlink" x="0px" y="0px"
	 width="31px" height="25px" viewBox="0 0 31 25" enable-background="new 0 0 31 25" xml:space="preserve">
<path fill="#FFFFFF" d="M30.637,22.495c-0.032,0.006-0.076-0.014-0.096,0.014c-0.021,0.027,0.047,0.092,0.016,0.104
	c-0.342,0.124-0.686-0.85-0.893-0.822c-0.226,0.031-0.033,0.213-0.259,0.244l-0.122-0.193c-0.078-0.025-0.661,0.164-0.684-0.014
	c-0.015-0.101,0.374-0.154,0.272-0.141c-0.246,0.033-0.417-0.049-0.646-0.018c-0.086,0.01-0.477,0.121-0.521,0.014
	c-0.029-0.068,0.064-0.35,0.048-0.371c-0.191-0.249-0.776-0.004-0.995-0.185c-0.213-0.179-0.222-0.576-0.373-0.635
	c-0.033-0.012-0.131-0.018-0.101-0.038c0.042-0.03,0.103,0,0.154,0c0.104,0.002,0.207,0.002,0.311,0.002
	c0.053,0,0.132,0.047,0.154,0c0.131-0.25-0.316-0.393-0.388-0.451c-0.033-0.029,0.088,0.012,0.133,0.017
	c0.044,0.007,0.088,0.014,0.131,0.019c0.043,0.006,0.092,0,0.131,0.018c0.207,0.094,0.514,0.104,0.762,0.146
	c0.013,0.002-0.01-0.026-0.02-0.033c-0.064-0.043-0.104-0.066-0.133-0.08c-0.045-0.004-0.082-0.044,0,0
	c0.035,0.002,0.071-0.019,0.059-0.119c-0.027-0.204-0.434,0.393-0.517-0.247c-0.019-0.142,0.418-0.134,0.462-0.165
	c0.066-0.05,0.148-0.547,0.217-0.555c0.248-0.032,0.102,0.462,0.517,0.248c0.058-0.031,0.164,0.031,0.188-0.025
	c0.051-0.112-0.213-0.164-0.23-0.285c-0.012-0.094,0.235-0.171,0.163-0.23c-0.048-0.041-0.141,0.064-0.188,0.023
	c-0.085-0.068,0.136-0.252,0.053-0.322c-0.078-0.063-0.17,0.155-0.271,0.143L27.85,18.36c0.021-0.248,0.219,0.068,0.377-0.05
	c0.03-0.021-0.007-0.068-0.012-0.103c-0.041-0.303-0.398,0.102-0.488-0.039c-0.102-0.162,0.299-0.414,0.297-0.425
	c-0.012-0.098-0.182-0.063-0.271-0.104c-0.106-0.051-0.202-0.215-0.312-0.171c-0.1,0.044,0.002,0.229-0.055,0.323
	c-0.066,0.115-0.287,0.141-0.352,0.257c-0.209,0.38,0.171,1.212-0.726,0.724c-0.22-0.12-0.044-0.279-0.087-0.303
	c-0.22-0.12-0.813,0.264-0.812-0.316c0.001-0.301,1.143-0.112,1.045-0.87c-0.037-0.282-0.393,0.261-0.447,0.269
	c-0.225,0.028-0.025-0.354-0.054-0.414c-0.155-0.344-0.136,0.515-0.218,0.554c-0.252,0.121-0.337-0.509-0.62-0.341
	c-0.132,0.077-0.401,0.666-0.667,0.818c-0.459,0.264-2.891,0.204-2.4-0.756c0.055-0.107,1.041-1.277,1.091-1.287
	c0.285-0.045,0.979,0.056,1.185,0.273c0,0.001,0.133,0.3,0.133,0.3c0.047,0.03,0.112,0.001,0.169,0.004
	c0.112,0.004,0.226,0.007,0.337,0.011c0.057,0.002,0.115-0.014,0.169,0.004c0.13,0.045,0.237,0.181,0.405,0.159
	c0.1-0.013,0.181-0.188,0.27-0.14c0.059,0.031-0.076,0.512,0.715,0.328c0.043-0.012,0.481-0.18,0.197,0.026
	c-0.029,0.021-0.123,0.052-0.09,0.063c0.193,0.074,0.359-0.139,0.527-0.289c-0.198-0.15-0.199,0.166-0.377-0.045
	c-0.404-0.48-0.37-1.053-0.78-1.58c-0.192-0.246-0.54-0.326-0.74-0.535c-0.096-0.104-0.081-0.297-0.146-0.402
	c-0.002,0-0.214-0.182-0.215-0.182c-0.11-0.37,0.737-2.076,0.393-2.156c-0.492-0.113-1.852,0.234-2.413,0.304
	c-1.918,0.235-3.837,0.46-5.759,0.671c-0.061,0.008-0.123,0.014-0.186,0.021c-0.512,0.054-1.785,0.353-2.23,0.238
	c-0.045-0.012-0.108-0.047-0.104-0.094c0.013-0.104,0.373-0.222,0.342-0.351c-0.034-0.152-0.366-0.229-0.417-0.376
	c-0.039-0.118,0.171-0.315,0.144-0.435c-0.025-0.104-0.271-0.26-0.325-0.388c-0.005-0.011,0.66-0.081,0.726-0.286
	c0.07-0.215-0.439-0.363-0.357-0.698c0.061-0.25,0.458,0.366,0.466-0.05c0.004-0.221-0.391-0.434-0.263-0.707
	c0.042-0.091,0.595-0.283,0.42-0.467c-0.075-0.079-0.527,0.178-0.488-0.16c0.032-0.286,0.438,0.035,0.558-0.059
	c0.124-0.093,0.026-0.516,0.119-0.645c0.056-0.077,0.424-0.117,0.375-0.286c-0.063-0.22-0.365,0.231-0.286-0.196
	c0.01-0.054,0.009-0.111,0.029-0.16c0.156-0.389,0.41,0.047,0.458-0.104c0.074-0.231,0.203-0.618,0.378-0.831
	c0.121-0.151,0.42-0.208,0.52-0.374c0.103-0.173-0.571-0.275-0.508-0.366c0.039-0.054,0.406,0.085,0.474,0.053
	c0.081-0.037,0.385-0.551,0.298-0.666c-0.13-0.174-0.713,0.496-0.83,0.092c-0.164-0.557,0.904-0.504,0.956-0.633l-0.035-0.312
	c0.04-0.066,0.462-0.051,0.345-0.25c-0.064-0.109-0.4-0.059-0.484-0.156c-0.094-0.11,0.085-0.506,0.034-0.533
	c-0.191-0.1-0.534,0.171-0.747-0.021c-0.445-0.404,0.512-0.26,0.527-0.27c0.132-0.096-0.412-0.326-0.414-0.377
	c-0.004-0.121,0.405-0.256,0.321-0.457c-0.156-0.375-0.607,0.551-0.813,0.195c-0.259-0.451,0.51-0.41,0.469-0.792
	c-0.027-0.229-0.599-0.099-0.675-0.242c-0.068-0.125,0.693-1.141,0.319-1.303c-0.416-0.181-0.018,0.678-0.595,0.489
	c-0.27-0.09,0.057-0.443,0.125-0.543C10.532,0.943,5.292,1.392,0.05,1.784c0.112,1.503,0.224,3.004,0.334,4.508
	C0.411,6.655,0.376,7.91,0.524,8.167c0.148,0.259,0.675,0.445,0.891,0.668c0.281,0.291,0.489,0.731,0.553,1.113
	c0.031,0.188-0.107,0.454-0.044,0.635c0.083,0.232,0.443,0.254,0.562,0.41c0.037,0.047,0.054,0.112,0.045,0.172
	c-0.006,0.046-0.088,0.064-0.085,0.11c0.018,0.216,0.603,0.485,0.619,0.688c0.009,0.12-0.187,0.206-0.162,0.327
	c0.019,0.094,0.338,0.202,0.397,0.281c0.076,0.1,0.039,0.326,0.129,0.411c0.047,0.045,0.359,0.015,0.383,0.074
	c0.053,0.135-0.172,0.39-0.146,0.536c0.018,0.105,0.33,0.291,0.315,0.393l-0.273,0.127c-0.148,0.26,0.214,0.317,0.221,0.402
	c0,0-0.163,0.325-0.164,0.325c-0.078,0.397,0.027,0.886-0.183,1.273c-0.071,0.13-0.3,0.204-0.353,0.341l0.024,0.312
	c-0.046,0.127-0.276,0.123-0.259,0.334c0.014,0.184,0.274,0.402,0.239,0.608c-0.051,0.28-0.345,0.28-0.236,0.646
	c0.288,0.97,0.579,1.346-0.013,2.299l-0.012,0.018c0.122,0.103,0.174,0.317,0.147,0.494c-0.009,0.058-0.112,0.398-0.159,0.43
	c-0.245,0.159-0.784,0.028-0.437,0.555c0.022,0.035,0.293,0.288,0.309,0.29C3,22.458,3.308,22.033,3.472,21.974
	c0.556-0.204,2.153-0.344,2.765-0.33c1.131,0.026,2.168,0.648,3.256,0.863c0.463,0.088,0.967,0.084,1.438,0.123
	c0.253,0.021,0.655,0.133,0.9,0.074c0.197-0.048,0.352-0.296,0.544-0.365c0.182-0.068,0.435,0.02,0.612-0.062
	c0.46-0.208-0.027-0.031,0.036-0.212c0.006-0.017,0.281-0.012,0.288-0.029c0.069-0.2-0.473,0.051-0.479,0.049
	c-0.031-0.015-0.233-0.361-0.231-0.396c0.002-0.094,0.241-0.162,0.17-0.225c-0.062-0.055-0.387,0.184-0.467,0.15
	c-0.016-0.007-0.143-0.399-0.136-0.404c0.044-0.048,0.127-0.013,0.19-0.02c0.063-0.007,0.132-0.043,0.192-0.018
	c0.064,0.025-0.049,0.213,0.02,0.205c0.034-0.002,0.781-0.449,0.817-0.498c0.042-0.057-0.062-0.152-0.021-0.208
	c0.072-0.093,0.235,0.098,0.297,0.075c0.15-0.057,0.196-0.123,0.404-0.146c0.052-0.005,0.113-0.044,0.158-0.016
	c0.345,0.208-0.371,0.142-0.137,0.536c0.035,0.061-0.032,0.162,0.021,0.207c0.061,0.053,1.017-0.411,1.314-0.344
	c0.254,0.057-0.025,0.431,0.012,0.572c0.093,0.352,0.382-0.027,0.542,0.102c0.131,0.104,0.064,0.618,0.065,0.619
	c0.047,0.055,0.519-0.158,0.603-0.146c0.23,0.029,0.547,0.439,0.866,0.304c0.112-0.05,0.12-0.983,0.323-0.807
	c0.289,0.251-0.33,0.494-0.121,0.889c0.205,0.386,0.738,0.347,0.943,0.628c0.063,0.088,0.122,0.697-0.125,0.641
	c-0.181-0.043-0.072-0.436-0.152-0.506c-0.055-0.047-0.113,0.151-0.181,0.124l-0.157-0.261c-0.275-0.221-0.267,0.165-0.424,0.271
	c-0.055,0.039-0.157-0.084-0.197-0.031c-0.03,0.042,0.052,0.088,0.08,0.131c0.174,0.293,1.397,0.693,1.653,0.62
	c0.11-0.031,0.042-0.214,0.267-0.239c0.032-0.004,0.093-0.041,0.096-0.011c0.01,0.094-0.207,0.142-0.169,0.229
	c0.011,0.024,0.348-0.054,0.384-0.044c0.139,0.037,0.279,0.256,0.42,0.266c0.398,0.029,0.125-0.288,0.156-0.331
	c0.043-0.06,0.131,0.073,0.204,0.081c0.096,0.01,0.203-0.08,0.289-0.033c0.097,0.055,0.01,0.209-0.072,0.217
	c-0.032,0.004-0.122-0.008-0.097,0.012c0.051,0.043,0.572,0.038,0.588,0.037c0.121-0.014,0.094-0.275,0.156-0.332
	c0.07-0.064,0.172,0.266,0.216,0.184c0.077-0.145-0.212-0.536,0.023-0.629c0.063-0.026,0.094-0.027,0.115-0.023
	c0.008-0.033,0.023-0.078,0.06-0.155c0.127-0.271-0.293-0.13-0.037-0.31c0.029-0.021,0.055-0.068,0.09-0.062
	c0.229,0.033,0.322,0.172,0.504,0.15c0.125-0.016,0.185-0.441,0.238-0.447c0.33-0.041,0.215,0.38,0.281,0.454
	c0.053,0.06,0.104-0.128,0.176-0.161c0.203-0.091,0.344,0.342,0.492,0.324c0.076-0.01-0.004-0.209,0.07-0.217
	c0.111-0.015,0.155,0.232,0.135,0.297c-0.09,0.275,0.014,0.301,0.17,0.606c0.117,0.224-0.1-0.026-0.07,0.217
	c0.018,0.14,0.253-0.12,0.365-0.201c0.002-0.001,0.269-0.188,0.271-0.188c0.106-0.094,0.267-0.24,0.344-0.357
	c0.229-0.346-0.298-0.091-0.255-0.492c0.012-0.107,0.178-0.311,0.262-0.24c0.024,0.021,0.064-0.01,0.096-0.014
	c0.008-0.001,0.025,0.006,0.024-0.002c-0.021-0.169-0.231-1.01-0.248-1.016c-0.218-0.077-0.467,0.099-0.683-0.021
	c-0.037-0.021-0.082-0.173-0.119-0.194c-0.013-0.007-0.019-0.008-0.029-0.015c-0.055,0.066-0.214-0.108,0,0
	c0.014-0.015,0.021-0.039,0.016-0.089c-0.001-0.006-0.082-0.029-0.025-0.207c0.008-0.024,0.394,0.107,1.319,0.465
	c0.104,0.041,0.271-0.078,0.382-0.048l0.216,0.182c0.207-0.026-0.009-0.273,0.056-0.321c0.039-0.026,0.311,0.131,0.313,0.17
	l-0.177,0.127c-0.06,0.342,0.355,0.039,0.396,0.055l-0.069,0.218c0.016,0.027,0.064-0.022,0.096-0.011
	c0.043,0.016,0.092,0.047,0.107,0.09c0.059,0.156-0.411,0.207-0.34,0.358l0.317-0.04c0.064-0.01,0.326,0.07,0.364,0.058
	c0-0.001,0.259-0.243,0.26-0.243c0.327-0.194,0.093,0.381,0.259,0.488c0.099,0.065,0.374,0.018,0.493,0.041l0.203,0.078
	c0.029-0.02-0.008-0.068-0.012-0.104c-0.005-0.034-0.035-0.074-0.014-0.103c0.018-0.026,0.063-0.007,0.094-0.013
	c0.033-0.002,0.092-0.045,0.096-0.012c0.007,0.047-0.082,0.066-0.082,0.115c0.008,0.283,0.545,0.449,0.549,0.451
	c0.062,0.076-0.014,0.479,0.246,0.385c0.389-0.138,0.104-0.328,0.172-0.545c0.01-0.037-0.004-0.121,0.034-0.109
	c0.089,0.025,0.026,0.205,0.099,0.266c0.402,0.328-0.038,0.26-0.196,0.479l0.028,0.205c-0.059,0.228-0.229,0.438-0.302,0.669
	c-0.032,0.098,0.206-0.065,0.273-0.143c0.041-0.044,0.052-0.11,0.077-0.166c0.154-0.343,0.271-0.402,0.5-0.643
	c0.052-0.055-0.008-0.225,0.067-0.219c0.124,0.01,0.448,0.804,0.673,0.643c0.089-0.064-0.123-0.188-0.137-0.295
	c-0.012-0.084,0.152-0.441,0.23-0.451c0.049-0.006,0.064,0.096,0.111,0.088c0.075-0.01-0.147-0.119-0.125-0.191
	c0.041-0.126,0.295,0.176,0.316,0.166l0.148-0.334c-0.08-0.213-0.441,0.078-0.478,0.064c-0.033-0.011-0.011-0.067-0.015-0.102
	C30.391,22.837,31.463,22.383,30.637,22.495"/>
</svg>
