<?xml version="1.0" encoding="utf-8"?>
<!-- Generator: Adobe Illustrator 16.0.0, SVG Export Plug-In . SVG Version: 6.00 Build 0)  -->
<!DOCTYPE svg PUBLIC "-//W3C//DTD SVG 1.1//EN" "http://www.w3.org/Graphics/SVG/1.1/DTD/svg11.dtd">
<svg version="1.1" id="Layer_1" xmlns="http://www.w3.org/2000/svg" xmlns:xlink="http://www.w3.org/1999/xlink" x="0px" y="0px"
	 width="18px" height="10px" viewBox="0 0 18 10" enable-background="new 0 0 18 10" xml:space="preserve">
<path fill="#FFFFFF" d="M17.561,5.595c-0.226-0.611-0.94-1.647-1.673-1.644c-0.06,0-0.414,0.288-0.408,0.331
	c0.014,0.062,0.09,0.103,0.151,0.113c0.032,0.006,0.036-0.053,0.056-0.078c0.029-0.043,0.049-0.07,0.063-0.091
	c-0.061,0.077-0.202,0.232-0.122-0.06c0.002-0.004,0.394-0.056,0.411-0.045c0.13,0.081,0.156,0.363,0.269,0.47
	c0.213,0.202,0.672,0.231,0.685,0.651c0.012,0.422-1.11,1.065-1.449,1.138c-1.308,0.284-0.697-0.503-1.019-0.867
	c-0.077-0.085-0.624,0.088-0.789-0.042c-0.094-0.075,0.014-1.314-0.721-1.442c-0.777-0.137-0.539,0.46-1.232-0.333
	c-0.092-0.105-0.389-0.239-0.338-0.444c0.059-0.231,0.377-0.396,0.439-0.626c0.041-0.146-0.15-0.365-0.042-0.557
	c0.136-0.241,0.961-0.317,0.957-0.595c-0.003-0.143-0.39-0.04-0.445-0.06c-0.137-0.043-0.11-0.301-0.337-0.214
	c-0.059,0.021-0.061,0.115-0.109,0.156c-0.04,0.033-0.098,0.037-0.146,0.056c-0.355,0.136-0.812-0.807-0.9-1.032
	c-0.801,0.077-0.54,0.277-1.062,0.746C9.666,1.245,9.533,1.129,9.467,1.366c0,0,0.04,0.327,0.04,0.328
	C9.49,1.73,9.433,1.722,9.396,1.735C9.167,1.82,9.265,2.056,9.102,2.188C8.769,2.46,4.655,3.622,3.918,3.854
	c-1.199,0.39-2.402,0.774-3.605,1.153c0.051,1.116,0.102,2.23,0.148,3.346c0.018,0.431-0.103,1.015,0.266,1.267
	c0.498-0.152,2.706-0.988,3.049-0.945c0.133,0.018,0.044,0.211,0.22,0.149c0.177-0.062-0.013-0.154,0.079-0.255
	c0.13-0.141,0.773-0.152,0.789-0.166c0.571-0.447,1.547-0.666,2.285-0.934C7.42,7.371,8.081,6.98,8.355,7.029
	C8.367,7.031,8.386,7.07,8.412,7.123c0.24-0.089,1.838-0.689,1.85-0.684c0.057,0.027,0.044,0.117,0.066,0.176
	c0.267,0.716,0.18,0.309,0.458,0.543c0.145,0.121,0.09,0.469,0.225,0.602c0.068,0.068,0.176,0.115,0.297,0.155
	c-0.002-0.033-0.002-0.06,0.003-0.04c0.003,0.016,0.003,0.028,0.005,0.042c0.137,0.044,0.29,0.078,0.438,0.114
	c0.023-0.043,0.051-0.084,0.083-0.123c0.066-0.079-0.021-0.236,0.057-0.307c0.048-0.045,0.056,0.441,0.056,0.454
	c0,0.008,0.002,0.021,0.002,0.032c0.105,0.037,0.196,0.078,0.26,0.136c0.155,0.138,0.257,0.538,0.346,0.729
	c0.012,0.019,0.021,0.046,0.035,0.071c0-0.007,0-0.014,0-0.02c-0.003-0.002-0.006-0.002-0.003-0.008c0,0,0.001-0.002,0.003-0.002
	c-0.006-0.109-0.019-0.203-0.003-0.226c0.036-0.053,0.142,0.089,0.188,0.044c0.029-0.027,0-0.076,0-0.115
	c-0.001-0.037-0.037-0.101-0.001-0.113c0.088-0.033,0.112,0.076,0.079,0.188c0.195-0.109,0.439-0.203,0.562-0.316
	c0.123-0.115,0.19-0.383,0.336-0.47c0.031-0.019,0.045-0.063,0.072-0.044c0.75,0.49-0.02,1.07,0.096,1.553
	c0.011,0.048,0.217-0.578,0.425-0.965c0.206-0.384,1.079-0.56,1.063-0.604c-0.025-0.07-0.009-0.414,0.033-0.473
	c0.061-0.089,1.906-1.342,1.975-1.342c0.296-0.004,0.09,0.492,0.197,0.497C17.792,6.616,17.59,5.673,17.561,5.595"/>
</svg>
