<?xml version="1.0" encoding="utf-8"?>
<!-- Generator: Adobe Illustrator 16.0.0, SVG Export Plug-In . SVG Version: 6.00 Build 0)  -->
<!DOCTYPE svg PUBLIC "-//W3C//DTD SVG 1.1//EN" "http://www.w3.org/Graphics/SVG/1.1/DTD/svg11.dtd">
<svg version="1.1" id="Layer_1" xmlns="http://www.w3.org/2000/svg" xmlns:xlink="http://www.w3.org/1999/xlink" x="0px" y="0px"
	 width="36px" height="29px" viewBox="0 0 36 29" enable-background="new 0 0 36 29" xml:space="preserve">
<path fill="#FFFFFF" d="M35.808,23.092c0.19-0.202-0.356-0.166-0.313-0.385c0.084-0.436,0.328-0.159,0.229-0.887
	c-0.186-0.176-0.24,0.02-0.443-0.047c-0.209-0.07-0.352-0.705-0.599-0.564c-0.267,0.154,0.45,0.439,0.155,0.516
	c-0.051,0.012-0.522-0.201-0.555-0.247c-0.062-0.085,0.002-0.218-0.042-0.315c-0.101-0.224-0.411-0.352-0.511-0.576l-0.042-0.314
	l-0.27-0.072c-0.065-0.488,0.458-0.549,0.301-1.004c-0.102-0.295-0.501-0.487-0.621-0.777c-0.086-0.201,0.032-0.682-0.111-0.842
	c-0.142-0.156-0.547-0.104-0.718-0.229c-0.188-0.134-0.24-0.447-0.422-0.59c-0.116-0.09-0.322-0.08-0.45-0.156
	c-0.077-0.045-0.104-0.186-0.197-0.189c-0.226-0.011-0.206,0.379-0.493,0.17c-0.215-0.156,0.059-0.281-0.053-0.423
	c-0.115-0.147-0.709-0.151-0.897-0.317c-0.091-0.078-0.112-0.221-0.208-0.295c-0.117-0.094-0.322-0.078-0.448-0.16
	c-0.248-0.16-0.604-0.523-0.777-0.762c-0.581-0.808,0.569-1.876,0.615-2.65c0.01-0.169-0.158-0.35-0.149-0.519
	c0.014-0.209,0.425-0.56,0.244-0.781c-0.135-0.165-1.46-0.747-1.604-0.664c-0.277,0.16-0.479,0.77-0.854,0.637
	c-0.649-0.227-0.471-0.995-0.576-1.327c-0.029-0.086-0.152-0.112-0.191-0.193c-0.107-0.219-0.072-0.507-0.168-0.731
	c-0.264-0.611-1.086-0.727-1.555-1.111c-0.154-0.128-0.225-0.376-0.388-0.494c-0.428-0.306-1.215-0.544-1.53-1.012
	c-0.093-0.138-0.068-0.372-0.139-0.522c-0.064-0.138-0.248-0.252-0.293-0.397c-0.039-0.128,0.076-0.305,0.037-0.434
	c-0.045-0.142-0.225-0.263-0.291-0.398c-0.201-0.397-0.246-0.827-0.26-1.26c-0.008-0.321-0.067-0.789,0.092-1.083
	c0.031-0.058,0.152-0.124,0.152-0.124s-0.098-0.038-0.145-0.057c-0.279-0.109-0.303-0.262-0.536-0.408
	c-0.427-0.267-0.678-0.551-0.951-0.976c-0.005-0.007-0.892,0.154-1.263,0.216c-1.286,0.22-2.566,0.39-3.862,0.527
	C9.863,1.375,5.021,1.738,0.151,1.869c0.031,0.576,0.32,0.437,0.542,0.934c0.06,0.136,0.123,0.84,0.129,0.849
	c0.009,0.019,0.894,0.44,0.931,0.483L1.682,4.353c0.062,0.195,0.381,0.312,0.441,0.509C2.155,4.968,2.001,5.32,2.071,5.399
	c0.04,0.045,0.352,0.008,0.507,0.185c0.029,0.034,0.088,0.101,0.088,0.101s0.693,0.582,1.117,0.682
	c0.26,0.063,0.4-0.463,0.646-0.254l0.02,0.32C4.503,6.531,4.731,6.53,4.793,6.625c0.031,0.051,0.024,0.117,0.038,0.176
	c0.025,0.117,0.097,0.233,0.078,0.351C4.866,7.397,4.49,7.138,4.413,7.184C4.318,7.241,4.411,7.418,4.351,7.508
	c-0.043,0.062-0.2,0.06-0.243,0.123C4.012,7.772,4.079,8.022,3.977,8.173C3.938,8.228,3.843,8.23,3.816,8.29
	C3.655,8.658,4.792,9.243,4.886,9.398c0,0.001-0.069,0.22-0.069,0.22C4.84,9.995,5.1,9.899,5.266,10.123
	c0.074,0.098,0.023,0.335,0.111,0.419c0.284,0.273,0.81,0.086,1.104,0.248c0.03,0.016-0.052,0.039-0.079,0.059
	c-0.167,0.123-0.04,0.612-0.024,0.815c0.061,0.818,0.119,1.638,0.18,2.456c0.253,3.457,0.507,6.915,0.761,10.372
	c0.069,1.059,0.142,2.117,0.213,3.176c5.59-0.376,11.174-0.862,16.744-1.461c1.57-0.168,3.141-0.346,4.713-0.532
	c0.275-0.034,1.508-0.285,1.691-0.206c0.146,0.062,0.229,0.373,0.326,0.494c0.352,0.439,0.533,0.795,0.068,1.273
	c-0.119,0.123-0.395,0.139-0.494,0.275c-0.066,0.088,0.01,0.232-0.048,0.324c-0.002,0.002-0.249,0.138-0.249,0.138
	c-0.051,0.067-0.367,0.851-0.334,0.896c0.04,0.05,0.672-0.081,0.756-0.092c0.881-0.108,1.762-0.219,2.642-0.332
	c0,0,0.035-0.104,0.052-0.156c0.059-0.184,0.097-0.463,0.201-0.625c0.039-0.058,0.319-0.189,0.321-0.254
	c0.002-0.153-0.393-0.305-0.413-0.459c-0.025-0.21,0.604-0.337,0.563-0.415c-0.07-0.134-0.392-0.132-0.474-0.26
	c-0.177-0.27,0.465-0.202,0.478-0.383c0.022-0.303-0.432-0.86-0.323-1.136c0.012-0.031,0.053-0.042,0.078-0.063
	c0.567-0.456-0.102,1.072,0.754,0.384c0,0,0.082-0.436,0.089-0.654c0.002-0.062-0.091-0.31,0.044-0.326
	c0.186-0.025,0.404,0.373,0.658,0.338c0.174-0.021,0.362-0.55,0.348-0.689c-0.016-0.137-0.203-0.259-0.23-0.396
	C35.434,23.05,35.709,23.199,35.808,23.092"/>
</svg>
