<?xml version="1.0" encoding="utf-8"?>
<!-- Generator: Adobe Illustrator 16.0.0, SVG Export Plug-In . SVG Version: 6.00 Build 0)  -->
<!DOCTYPE svg PUBLIC "-//W3C//DTD SVG 1.1//EN" "http://www.w3.org/Graphics/SVG/1.1/DTD/svg11.dtd">
<svg version="1.1" id="Layer_1" xmlns="http://www.w3.org/2000/svg" xmlns:xlink="http://www.w3.org/1999/xlink" x="0px" y="0px"
	 width="44px" height="21px" viewBox="0 0 44 21" enable-background="new 0 0 44 21" xml:space="preserve">
<path fill="#FFFFFF" d="M43.69,5.438C43.679,5.4,43.317,5.15,43.396,5.087c0.001,0,0.284,0.022,0.284,0.022
	c0.025-0.04-0.421-1.066-0.545-1.162c-0.125-0.093-0.308-0.106-0.434-0.198c0.024,0.026-0.044,0.051-0.066,0.076
	c-0.062,0.068-0.352,0.054-0.352,0.054c-0.033,0.084,0.561,0.173,0.294,0.352c-0.212,0.143-0.513-0.507-0.619,0.081
	c-0.044,0.238,0.407,1.322,0.183,1.495c-0.059,0.046-0.493,0.023-0.566-0.048C41.44,5.63,41.996,5.726,42.08,5.604
	c0.091-0.131-0.397-0.425-0.476-0.444c-0.068-0.017-0.221-0.095-0.163-0.134c0-0.001,0.367-0.002,0.367-0.003
	c0.01-0.009-0.106-0.386-0.124-0.404c-0.045-0.052-0.244,0.001-0.199-0.049c0.2-0.226,0.256-0.34,0.065-0.686
	c-0.155-0.28-1.239,0.181-1.271,0.499c-0.001,0.038-0.046,0.101-0.011,0.114c0.055,0.021,0.119-0.084,0.168-0.051
	c0.038,0.024-0.013,0.106-0.053,0.126c-0.09,0.045-0.299-0.121-0.396-0.101l-0.139,0.153c-0.098-0.024,0.025-0.299-0.176-0.28
	c-0.163,0.017-1.401,1.086-1.568,0.583c-0.014-0.044,0.049-0.081,0.055-0.127c0.003-0.035-0.013-0.071-0.03-0.102
	c-0.247-0.412-1.075-1.169-0.517-1.727c0.239-0.238-0.029,0.551,0.045,0.761c0.059,0.163,0.463,0.746,0.662,0.688
	c0.065-0.02,0.07-0.151,0.139-0.151c0.17,0,0.367,0.261,0.596,0.152c0.309-0.147,0.18-0.502,0.35-0.659
	c0.018-0.015,0.533-0.183,0.474-0.254c-0.039-0.048-0.123,0-0.184,0c-0.261,0-0.427-0.162-0.64-0.304
	c-0.041-0.025-0.134-0.034-0.115-0.077c0.003-0.008,1.561,0.316,1.524,0.202c0-0.002-0.722-0.582-0.635-0.582
	c0.242-0.001,0.49,0.48,0.772,0.43c0.077-0.015,0.537-0.386,0.494-0.483c-0.074-0.156-1.16-0.39-0.82-0.581
	c0.352-0.198,0.848,0.652,1.263,0.388c0.193-0.121-0.369-0.696-0.358-0.72c0.048-0.12,0.245-0.043,0.281,0.022
	c0.018,0.034-0.006,0.076-0.012,0.115c-0.003,0.038-0.037,0.087-0.01,0.114c0.068,0.064,0.232-0.055,0.283,0.023
	c0.023,0.039-0.066,0.083-0.053,0.127c0.025,0.081,0.285,0.161,0.344,0.227c0.078,0.084,0.254,0.608,0.476,0.444
	c0.092-0.067-0.04-0.202-0.067-0.238c-0.295-0.401-0.766-0.817-1.004-1.242l-0.104-0.338c-0.055-0.022-0.139,0.028-0.155,0.085
	C41.126,1.227,41.42,1.33,41.335,1.4c-0.004,0.001-0.356-0.304-0.375-0.33c-0.021-0.027-0.046-0.067-0.031-0.101
	c0.01-0.027,0.097,0,0.082-0.025c-0.078-0.143-0.367-0.167-0.457-0.304c-0.072-0.106-0.034-0.18-0.1-0.306
	c-4.99,1.533-10.008,2.98-15.053,4.328c-4.406,1.176-8.814,2.329-13.33,3c-0.233,0.472-0.208,1.026-0.101,1.493
	c0.061,0.26-0.318,0.099-0.413,0.15c-0.082,0.041-0.284,0.419-0.332,0.511c-0.133,0.261-0.415,1.312-0.569,1.435
	c-0.233,0.187-0.49-0.346-0.777-0.259c-0.136,0.042-0.574,0.385-0.7,0.481c-0.384,0.307-0.412,1.03-0.905,1.18
	c-0.332,0.1-0.031-0.608-0.48-0.546c-0.102,0.015-0.541,0.467-0.595,0.565c-0.042,0.076-0.012,0.405-0.081,0.449
	C6.986,13.21,6.736,13.01,6.58,13.132c-0.001,0.001,0.082,0.938-0.205,1.128c-0.07,0.047-0.633,0.034-0.927,0.306
	c-0.207,0.194-0.338,0.601-0.557,0.769c-0.07,0.054-0.194-0.006-0.259,0.054c-0.056,0.052,0.01,0.169-0.044,0.226
	c-0.091,0.104-0.307,0.1-0.409,0.195c-0.177,0.162-0.183,0.537-0.52,0.54c0,0-0.214-0.173-0.215-0.173
	c-0.067-0.005-0.088,0.113-0.15,0.141c-0.161,0.067-0.362,0.036-0.52,0.106c-0.267,0.118-1.2,1.001-1.284,1.233
	c-0.02,0.054,0,0.115,0,0.172c-0.002,0.174-0.002,0.346-0.006,0.52c0,0.058,0.016,0.117,0,0.172
	c-0.169,0.525-1.068,0.045-1.156,0.555c-0.09,0.524,0.133,1.591,0.133,1.591c2.12-0.455,4.237-0.928,6.351-1.413
	C7.254,19,7.856,18.486,8.352,18.378l0.196,0.066c0.214-0.103,0.144-0.372,0.258-0.489c0.136-0.142,0.479-0.232,0.658-0.318
	c0.049-0.024,0.262-0.209,0.315-0.221l0.282,0.045c0.121-0.066,0.082-0.452,0.192-0.367c0.227,0.173,0.819-0.076,1.091-0.138
	c1.042-0.234,2.088-0.407,3.142-0.583c0.263-0.043,2.771-0.482,2.786-0.471c0.142,0.104,0.032,0.475,0.167,0.502
	c0.303,0.064,0.285-0.427,0.488-0.441c0.055-0.006,0.081,0.075,0.119,0.115c0.229,0.22,0.719,0.38,0.885,0.617
	c0.101,0.146-0.028,0.756,0.111,0.844c0.03,0.017,1.34-0.279,1.489-0.311c0.727-0.153,3.984-1.037,4.457-0.965
	c0.352,0.055,1.816,1.072,2.229,1.312c1.691,0.986,3.393,1.961,5.098,2.924c0.197-0.119,0.4-0.237,0.607-0.392
	c0.136-0.103,0.064-0.413,0.23-0.457c0.105-0.03,0.066,0.247,0.17,0.28c0.114,0.037,0.462-0.238,0.582-0.271
	c0.245-0.062,1.024,0.06,1.191-0.113c0.186-0.189-0.064-1.678,0.047-1.618c0.25,0.138,0.26,1.204,0.391,1.167
	c0.041-0.013-0.037-0.834-0.047-0.916c-0.076-0.558,0.077-0.946,0.271-1.471c0.229-0.615,0.611-1.305,1.133-1.729
	c0.092-0.074,0.545-0.236,0.429-0.453c-0.087-0.163-0.562-0.088-0.517-0.18c0.047-0.109,0.422-0.143,0.369-0.328
	c-0.098-0.338-0.584-0.082-0.51-0.475c0.012-0.055,0.307-0.152,0.334-0.134l-0.026,0.229c0.042,0.079,0.332,0.144,0.346,0.229
	c0.023,0.143-0.268,0.367-0.228,0.506c0.004,0.011,0.385,0.111,0.404,0.102c0.25-0.108,0.846-1.258,0.822-1.338l-0.146-0.18
	c0.005-0.045,0.082,0.045,0.114,0.078c0.051,0.049,0.166-0.008,0.203,0.051c0.02,0.033-0.01,0.076-0.013,0.114
	c-0.005,0.038-0.051,0.104-0.015,0.114c0.137,0.033,0.938-0.586,1.111-0.658c0.213-0.088,0.512-0.016,0.711-0.125
	c0.049-0.023,0.196-0.166,0.031-0.206c-0.086-0.021-0.244,0.165-0.257,0.077c-0.004-0.023,0.317-0.432,0.337-0.432
	c0.139-0.004,0.162,0.45,0.237,0.48c0.479,0.189-0.032-0.596,0.235-0.621c0.367-0.037-0.055,0.318,0.164,0.391
	c0.504,0.171,0.574-1.121,0.666-1.193c0.027-0.022,0.174,0.156,0.256-0.036c0.111-0.255-0.063-0.215,0.164-0.422l0.109-0.255
	c-0.026-0.087-0.485-0.324-0.519-0.174c-0.026,0.118,0.288,0.135,0.263,0.252l-0.341,0.104c-0.048,0.052,0.108,0.149,0.062,0.203
	l-0.203-0.051l-0.139,0.151c-0.346-0.026,0.073-0.331,0.079-0.354c0.002-0.013-0.164-0.232-0.179-0.277
	c-0.006-0.024-0.047-0.241-0.145-0.177c-0.164,0.108-0.004,0.432-0.019,0.558c-0.032,0.303-0.169-0.024-0.286-0.024
	c-0.561,0.004,0.48,0.47-0.108,0.42c-0.046-0.005-0.103,0.014-0.142-0.014l-0.061-0.202c-0.34-0.084-0.385,0.668-0.618,0.736
	c0,0-0.316-0.127-0.317-0.127c-0.176-0.023-0.366,0.074-0.543,0.053c-0.27-0.037-0.893-0.468-1.018-0.709
	c-0.062-0.117,0.249,0.109,0.382,0.124c0.266,0.03,0.896,0.338,1.175,0.204c0.386-0.188,0.891-0.988,0.922-1.27
	c0.04-0.384-0.619,0.185-0.564-0.125c0.064-0.363,0.68-0.277,0.582-0.431c-0.052-0.082-0.324,0.062-0.286-0.026
	c0.067-0.155,0.71,0.173,0.449-0.354c-0.028-0.059-1.913-0.273-2.226-0.329c-0.207-0.036-0.517,0.172-0.709,0.1
	c-0.068-0.023-0.01-0.153-0.061-0.203c-0.02-0.018-0.445-0.119-0.362-0.211c0.073-0.078,0.144-0.033,0.222-0.013
	c0.232,0.06,1.24,0.219,1.419,0.177c0.117-0.028,0.2-0.146,0.319-0.17c0.197-0.038,0.352,0.275,0.59,0.118
	c0.072-0.048-0.074-0.154-0.128-0.219c-0.216-0.263-0.629-0.603-0.177-0.795c0.137-0.058,0.519-0.109,0.611,0.038
	c0.144,0.227-0.479,0.093-0.404,0.343c0.031,0.104,0.074,0.238,0.175,0.278c0.084,0.033,0.198-0.145,0.255-0.076
	c0.037,0.045-0.082,0.222,0.092,0.304c0.477,0.224,0.055-0.127,0.055-0.127c0.021-0.21,0.325,0.161,0.209-0.229
	c-0.025-0.08-0.038-0.277,0.039-0.247c0.483,0.191-0.014,0.848,0.469,0.7c0.155-0.047-0.232-0.518-0.07-0.53
	c0.123-0.011,0.343,0.264,0.463,0.302c0.034,0.01,0.463-0.266,0.709-0.106c0.064,0.042-0.023-0.167,0.022-0.228
	c0.001,0,0.308-0.204,0.308-0.206c0.039-0.063-0.179-0.277-0.008-0.329c0.044-0.013,0.077,0.101,0.115,0.074
	c0.104-0.067,0.027-0.373,0.045-0.456l0.137-0.152c-0.012-0.044-0.107-0.03-0.114-0.076c-0.01-0.063,0.244-0.243,0.274-0.307
	c0.033-0.063-0.056-0.562,0.013-0.558c0.109,0.009,0.079,0.231,0.179,0.278c0.057,0.025,0.447-0.023,0.453-0.03
	c0.047-0.052-0.078-0.133-0.063-0.202C43.521,5.626,43.729,5.563,43.69,5.438"/>
</svg>
