<?xml version="1.0" encoding="utf-8"?>
<!-- Generator: Adobe Illustrator 15.1.0, SVG Export Plug-In . SVG Version: 6.00 Build 0)  -->
<!DOCTYPE svg PUBLIC "-//W3C//DTD SVG 1.1//EN" "http://www.w3.org/Graphics/SVG/1.1/DTD/svg11.dtd">
<svg version="1.1" id="Layer_1" xmlns="http://www.w3.org/2000/svg" xmlns:xlink="http://www.w3.org/1999/xlink" x="0px" y="0px"
	 width="39px" height="28px" viewBox="0 0 39 28" enable-background="new 0 0 39 28" xml:space="preserve">
<path fill="#FFFFFF" d="M30.284,24.379c0.021,0.115,0.493,0.396,0.591,0.477l-0.051,0.356l-0.23,0.078
	c-0.111,0.144-0.014,0.476-0.137,0.61c-0.037,0.039-0.137,0-0.15,0.05l0.18,0.276c-0.018,0.105-0.438,0.189-0.504,0.283
	c-0.039,0.053-0.109,0.708-0.217,0.637c-0.121-0.082,0.27-1.537-0.178-2.506c-0.273-0.586-0.521-0.553-0.681-0.814
	c-0.005-0.008-0.001-0.508-0.138-0.405c-0.363,0.272,0.508,0.968,0.59,1.156c0.127,0.295,0.195,0.522,0.233,0.735
	c-0.243-0.108-0.841-0.149-1.021-0.188c-1.105-0.25-2.211-0.506-3.316-0.767c0,0-0.203-0.396-0.396-0.433
	c-0.201-0.039-0.443,0.136-0.645,0.097c-0.087-0.017-0.131-0.144-0.219-0.152c-0.002-0.001-0.309,0.099-0.309,0.099
	c-0.136-0.043-0.58-0.558-0.644-0.692c-0.086-0.174-0.14-0.938-0.251-1.043c-0.001,0-0.261-0.027-0.262-0.027
	c-0.002-0.001,0.013-0.229,0.011-0.229c-0.229-0.228-0.67,0.131-0.828,0.039c-0.194-0.115-0.272-0.617-0.638-0.695
	c-0.188-0.039-2.521,0.791-2.895,0.906c-4.348,1.34-8.719,2.603-13.111,3.789c-1.098,0.297-2.197,0.59-3.298,0.875
	c-0.173,0.045-0.963,0.367-1.101,0.284c-0.009-0.004-0.218-0.745-0.454-1.594c0.065-0.067,0.124-0.125,0.176-0.177
	c0.795-0.782,1.269-1.971,2.219-2.522c0.007-0.004,0.039-0.333,0.04-0.342c0.034-0.099,0.16-0.214,0.173-0.313
	c0.068-0.494,0.578-0.569,0.679-1.021c0.055-0.249-0.356-0.853-0.415-0.738L3.05,20.482c-0.153-0.205-0.585-0.23-0.745-0.486
	c-0.019-0.032,0.007-0.076,0.012-0.113c0.001-0.037,0.024-0.078,0.009-0.113c-0.047-0.109-0.179-0.166-0.234-0.271
	c-0.165-0.308-0.122-0.722-0.278-1.034c-0.002-0.008-0.014-0.021-0.018-0.031l0.031-0.01c1.343-0.857,2.555-1.529,4.115-1.896
	c0.486-0.112,1.326-0.247,1.818-0.153c0.235,0.045,0.518,0.36,0.845,0.331c0.134-0.012,0.23-0.107,0.333-0.186
	c0.447-0.342,0.929-0.508,1.474-0.666c0.254-0.073,0.499-0.039,0.75-0.125c0.071-0.022,0.038,0.213,0.229,0.143
	c0.115-0.042-0.1-0.193-0.003-0.271c0.315-0.262,0.459-0.277,0.739-0.578c0.083-0.09,0.143,0.056,0.195,0.024
	c0.069-0.041-0.007-0.252,0.015-0.317c0.07-0.219,0.255-0.534,0.424-0.673c0.262-0.219,0.299-0.387,0.505-0.638
	c0.165-0.2,0.587,0.261,0.816-0.413c0.025-0.071,0.143-0.122,0.117-0.193c-0.03-0.082-0.164-0.001-0.184-0.193
	c-0.009-0.091,0.152-0.255,0.116-0.317c-0.123-0.209-0.135,0.174-0.169,0.141c-0.134-0.131-0.122-0.382-0.145-0.546
	c-0.017-0.107-0.251-0.309-0.296-0.452c-0.037-0.114-0.322-0.07-0.346-0.14c-0.05-0.148,0.089-0.193,0.162-0.272
	c0.028-0.03,0.082-0.124,0.092-0.083c0.018,0.076,0.08,0.255,0.131,0.195c0.198-0.228,0.13-0.561,0.177-0.654
	c0.002-0.004,0.388-0.451,0.24-0.457c-0.146-0.005-0.335,0.306-0.623,0.366c-0.075,0.016,0.023-0.161,0.073-0.22
	c0.136-0.161,0.307-0.409,0.014-0.241c-0.05,0.029,0.056-0.125,0.021-0.168c-0.073-0.091-0.23,0.149-0.283,0.074
	c-0.152-0.22-0.272,0.4-0.34,0.397c-0.084-0.004-0.008-0.222-0.134-0.271c-0.151-0.059-0.217,0.013-0.289-0.16
	C12.34,9.627,12.78,9.255,12.86,9.13c0.187-0.3,1.811-1.966,1.472-2.38c0.123-0.296,0.233-0.607,0.354-0.868
	c0.534-1.167,1.18-2.308,2.102-3.209c0.147-0.142,0.337-0.413,0.516-0.504c0.206-0.103,0.529-0.077,0.754-0.132
	c0.956-0.238,1.898-0.623,2.833-0.937c0.977-0.327,1.943-0.677,2.907-1.031c0.229,0.49,0.082,0.767,0.181,1.002
	c0.058,0.137,0.291,0.199,0.354,0.331c0.151,0.314-0.006,0.771,0.133,1.089c0.146,0.333,0.654,0.524,0.783,0.863
	c0.062,0.164-0.08,0.411-0.042,0.582c0.047,0.227,0.303,0.456,0.316,0.685c0.006,0.125-0.168,0.279-0.187,0.404
	c-0.03,0.197,0.005,0.811,0.095,0.988l0.215,0.152c0.041,0.058,0.433,0.788,0.461,0.861c0.178,0.44,0.201,0.902,0.232,1.394
	c0.004,0.055,0.012,0.109,0.016,0.164c0.006,0.055,0.011,0.109,0.019,0.165c0.504,0.355,0.121-0.665,0.66-0.228
	c0.704,0.571,1.032,2.525,1.312,3.434c0.127,0.409,0.18,0.949,0.331,1.324c0.06,0.141,0.289,0.354,0.289,0.354
	c0.05,1.115,0.103,2.23,0.147,3.346c0.019,0.431-0.1,1.015,0.267,1.267c0.388,1.435,0.772,2.866,1.158,4.301
	c0.034,0.119,0.035,0.253,0.099,0.358c0.066,0.111,0.469,0.279,0.479,0.4C31.125,23.453,30.264,24.26,30.284,24.379l8.362-2.604
	c-0.297,0.312-1.73,2.022-2.01,2.09c-0.021,0.005-0.091-0.499-0.302-0.121c-0.049,0.09,0.257,0.115,0.106,0.303
	c-0.243,0.309-0.967,0.684-0.967,0.684s0.364-0.291,0.234-0.31c-0.072-0.013-0.623,0.306-0.654,0.345
	c-0.037,0.047,0.004,0.297-0.123,0.383l-0.189-0.047c-0.16,0.058-0.436,0.316-0.544,0.416c-0.106,0.101-0.361,0.056-0.462,0.162
	c-0.026,0.027,0.017,0.08-0.004,0.113c-0.032,0.055-0.086,0.098-0.145,0.125c-0.083,0.041-0.203-0.034-0.279,0.021
	c-0.182,0.141-0.356,0.397-0.588,0.543c-0.23,0.145-0.516,0.211-0.738,0.365c-0.131,0.092-0.248,0.299-0.395,0.36
	c-0.061,0.024-0.138-0.088-0.189-0.049c-0.303,0.229,0.223,0.149,0.301,0.123c0.035-0.013-0.071,0.024-0.106,0.036
	c-0.125,0.043-0.215,0.074-0.342,0.115c-0.267,0.092-0.54,0.457-0.798,0.496c-0.036,0.006,0.031-0.066,0.054-0.094
	c0.072-0.082,0.64-0.457,0.507-0.547c-0.181-0.122-0.643-0.098-0.617,0.209c0.006,0.102,0.358-0.073,0.145,0.177
	c-0.281,0.327-0.533,0.312-0.766,0.031c-0.17-0.208,0.295-1.169,0.51-1.298c0.1-0.061,0.357,0.037,0.42-0.03
	c0.102-0.106-0.197-0.374,0.068-0.304c0.041,0.008,0.271-0.061,0.215-0.131c0,0-0.266-0.021-0.266-0.022
	c-0.152-0.233,0.418-0.09,0.422-0.104c0.076-0.27-0.181-0.403,0.209-0.562c0.094-0.037,0.436,0.018,0.496-0.057
	c0.02-0.021-0.242-0.221-0.181-0.276c0.177-0.163,0.312,0.21,0.411,0.198l0.271-0.207c0.006-0.045-0.121-0.031-0.113-0.075
	c0.037-0.146,0.548-0.077,0.65-0.11c0.354-0.112,0.342-0.627,0.475-0.617l0.068,0.201c0.033,0.01,0.041-0.051,0.062-0.076
	c0.219-0.284,0.92-0.43,1.256-0.567c0.756-0.312,1.187-0.801,1.651-1.423c0.065-0.085,0.289-0.814,0.543-0.649
	c0.287,0.189-0.381,0.335-0.543,0.649c-0.168,0.333,0.148,0.226,0.146,0.402l-0.229,0.08c-0.03,0.104,0.142,0.201,0.108,0.303
	c-0.024,0.074-0.071-0.168-0.147-0.174c-0.084-0.006-0.477,0.73-0.473,0.773c0.006,0.082,0.713-0.135,0.764-0.195
	c0.047-0.057-0.08-0.133-0.071-0.203c0.024-0.188,0.271-0.36,0.351-0.465c0.045-0.058-0.115-0.145-0.072-0.201
	c0.131-0.174,0.287,0.201,0.42-0.037l-0.073-0.2c0.22-0.079,0.083,0.196,0.302,0.118c0.09-0.031-0.113-0.252,0.079-0.256
	c0.138-0.004,0.325,0.207,0.415,0.19c0.244-0.046,0.572-0.741,0.656-0.808c0.059-0.047,0.238,0.027,0.207,0.097
	c-0.025,0.052-0.135,0.106-0.135,0.106"/>
</svg>
