<?xml version="1.0" encoding="utf-8"?>
<!-- Generator: Adobe Illustrator 16.0.0, SVG Export Plug-In . SVG Version: 6.00 Build 0)  -->
<!DOCTYPE svg PUBLIC "-//W3C//DTD SVG 1.1//EN" "http://www.w3.org/Graphics/SVG/1.1/DTD/svg11.dtd">
<svg version="1.1" id="Layer_1" xmlns="http://www.w3.org/2000/svg" xmlns:xlink="http://www.w3.org/1999/xlink" x="0px" y="0px"
	 width="46px" height="22px" viewBox="0 0 46 22" enable-background="new 0 0 46 22" xml:space="preserve">
<path fill="#FFFFFF" d="M14.676,4.366c0.253,0.001,0.505,0.002,0.759,0.002c0.063,0,0.125,0,0.188,0c0.062,0,0.135-0.03,0.189,0
	c0.031,0.017,0,0.07,0,0.106c0,0.176,0,0.351,0,0.528c0,0.748,0,1.496,0,2.245c0,2.303,0,4.608,0,6.913c0,0.685,0,1.368,0,2.051
	c0,0.047,0,0.095,0,0.14c0,0.062-0.036,0.137,0,0.188c0.079,0.107,0.506,0.039,0.627,0.104c0.45,0.243,0.979,1.411,1.621,1.155
	c0.105-0.041,0.154-0.201,0.268-0.213c0.165-0.016,0.374,0.297,0.541,0.312c0.219,0.025,0.286-0.757,0.445-0.635
	c0.087,0.067,0.012,0.241,0.092,0.316c0.202,0.187,0.572,0.21,0.725,0.521c0.08,0.161-0.117,0.619,0.098,0.737
	c0.358,0.197,0.842-0.042,1.171-0.014c0.407,0.033,0.806,0.481,1.27,0.51c0.218,0.012,0.51-0.171,0.721-0.119
	c0.22,0.057,0.441,0.606,0.731,0.515c0.369-0.114,0.375-0.364,0.623-0.435c0.097-0.027,1.334-0.146,1.35-0.135
	c0.242,0.154-0.125,0.632,0.11,0.841c0.145,0.128,0.622,0.04,0.729,0.194c0.118,0.168-0.249,0.484,0.017,0.631
	c0.836,0.459,1.205-0.781,1.61-0.676c0.804,0.207,0.145,0.32,0.378,0.515c0.04,0.034,0.105-0.003,0.158-0.004
	c0.105-0.003,0.211-0.007,0.316-0.011c0.053-0.002,0.115-0.033,0.158-0.004c0.127,0.089-0.012,0.467,0.198,0.52
	c0.388,0.1,0.431-0.39,0.62-0.441c0.11-0.029,0.163,0.205,0.279,0.201c0.089-0.002,0.17-0.322,0.26-0.324
	c0.291-0.011,0.002,0.787,0.32,1.016c0.057,0.043,0.119,0.172,0.174,0.125c0.08-0.066,0.429-0.646,0.429-0.648l-0.188-0.203
	c0.019-0.049,0.317,0.028,0.362-0.014c0.309-0.29-0.039-0.735,0.516-0.757c0.314-0.013,0.215,0.505,0.386,0.618
	c0.032,0.023,0.826,0.134,0.909,0.07c0.08-0.066,0.16-0.702,0.434-0.443c0.076,0.072-0.045,0.341,0.019,0.423
	c0.085,0.108,0.354,0.103,0.462,0.19l0.1,0.207c0,0,0.361-0.016,0.362-0.016c0.062-0.004,0.126-0.035,0.183-0.008
	c0.04,0.02,0.389,0.617,0.477,0.506c0.081-0.105,0.085-0.361,0.16-0.43c0.09-0.077,0.354,0.043,0.454-0.021
	c0.126-0.083,0.128-0.352,0.251-0.435c0.168-0.115,0.523-0.083,0.72-0.141c0.122-0.037,0.383-0.336,0.437-0.338
	c0.082-0.005,0.717,0.369,0.83,0.271l0.074-0.318c0.032-0.031,0.09-0.006,0.135-0.008c0.349-0.018,0.706-0.354,0.752-0.357
	c0.229-0.014,0.384,0.432,0.57,0.496c0.124,0.045,0.697,0.011,0.814-0.046c0.127-0.062,0.265-0.12,0.35-0.231
	c0.021-0.027-0.041-0.102-0.006-0.105c0.045-0.002,0.05,0.102,0.096,0.1c0.152-0.009,0.012-0.381,0.156-0.432
	c0.317-0.111,0.401,0.203,0.561,0.284c0,0,0.271-0.018,0.271-0.017c0.106,0.041,0.2,0.229,0.292,0.299
	c0.182,0.139,0.182-0.038,0.27-0.018c0.119,0.027,0.093,0.25,0.202,0.305c0.054,0.025,0.124-0.037,0.18-0.012
	c0.134,0.058,0.173,0.329,0.299,0.402c0.2,0.117,0.446,0.029,0.835,0.264c0.102,0.059,0.442,0.182,0.559,0.172
	c0.069-0.004,0.111-0.146,0.174-0.115c0.176,0.086,0.559,0.172,0.559,0.172c-0.111-2.52-0.222-5.039-0.336-7.56
	c-0.066-1.481-0.042-2.997-0.314-4.459c-0.244-1.311-0.568-2.611-0.848-3.912c-0.092-0.435-0.186-0.871-0.278-1.306
	c-0.054-0.249-0.159-0.747-0.159-0.747c-0.072-1.059-0.145-2.117-0.213-3.176c0,0-0.985,0.066-1.479,0.097
	c-0.923,0.059-1.846,0.113-2.77,0.166c-2.85,0.162-5.701,0.294-8.555,0.398C22.426,1.218,13.93,1.265,5.44,1.055
	C3.711,1.011,1.983,0.958,0.256,0.895c-0.04,1.061-0.08,2.12-0.12,3.18c3.772,0.141,7.547,0.232,11.321,0.271
	C12.53,4.357,13.604,4.364,14.676,4.366"/>
</svg>
