<?xml version="1.0" encoding="utf-8"?>
<!-- Generator: Adobe Illustrator 16.0.0, SVG Export Plug-In . SVG Version: 6.00 Build 0)  -->
<!DOCTYPE svg PUBLIC "-//W3C//DTD SVG 1.1//EN" "http://www.w3.org/Graphics/SVG/1.1/DTD/svg11.dtd">
<svg version="1.1" id="Layer_1" xmlns="http://www.w3.org/2000/svg" xmlns:xlink="http://www.w3.org/1999/xlink" x="0px" y="0px"
	 width="31px" height="21px" viewBox="0 0 31 21" enable-background="new 0 0 31 21" xml:space="preserve">
<path fill="#FFFFFF" d="M29.5,9.705c-0.177-0.09-0.297-0.382-0.455-0.441c-0.124-0.048-0.263,0.133-0.423,0.023
	c-0.236-0.165-0.205-0.624-0.417-0.764c-0.138-0.092-0.36,0.065-0.532-0.054c-0.168-0.116-0.146-0.372-0.162-0.509
	c-0.017-0.131-0.322-0.562-0.15-0.737c0.057-0.058,0.205,0.002,0.233-0.075c0.035-0.098-0.112-0.348-0.052-0.432
	c0.045-0.065,0.28-0.087,0.166-0.278c-0.114-0.192-0.498-0.281-0.582-0.487c-0.037-0.09,0.405-0.567,0.454-0.707
	c0.076-0.217,0.304-0.554,0.342-0.785c0.028-0.168-0.104-0.363-0.087-0.534c0.035-0.325,0.359-0.641,0.57-0.859
	c0,0-0.204-0.396-0.396-0.433c-0.201-0.039-0.443,0.136-0.646,0.097c-0.087-0.018-0.13-0.145-0.219-0.153
	c-0.001,0-0.307,0.098-0.307,0.098c-0.137-0.043-0.579-0.559-0.644-0.693c-0.086-0.173-0.139-0.938-0.252-1.042
	c0,0-0.26-0.028-0.262-0.028c0,0,0.014-0.227,0.012-0.228c-0.23-0.228-0.671,0.131-0.828,0.039
	c-0.194-0.115-0.273-0.618-0.639-0.695c-0.187-0.04-2.52,0.79-2.895,0.905c-4.348,1.34-8.718,2.604-13.11,3.79
	C7.123,5.019,6.024,5.311,4.923,5.597C4.75,5.643,3.96,5.965,3.822,5.882C3.813,5.878,3.604,5.136,3.368,4.289
	C2.956,4.704,2.314,5.361,1.935,5.556C1.906,5.571,2.229,5.197,2.111,5.19C1.884,5.175,1.849,5.584,1.746,5.702
	C1.505,5.98,1.207,6.192,0.967,6.462c-0.119,0.131-0.304,0.183-0.452,0.27C0.45,6.771,0.383,6.816,0.318,6.856
	c0.712,2.815,1.617,6.353,2.127,8.417c0.35,1.409,0.698,2.82,1.047,4.229c0.036,0.142,0.349,1.462,0.364,1.471
	c0.015,0.011,1.168-0.29,1.292-0.321c1.229-0.309,2.458-0.623,3.686-0.944c5.933-1.55,11.829-3.235,17.683-5.054
	c0.205-0.795,0.643-1.46,1.493-1.092c0.086-0.142,0.191-0.306,0.225-0.343c0.229-0.255,0.709-0.366,0.928-0.63
	c0.053-0.066-0.033-0.752,0.244-0.678c0.006,0.002,0.008,0.005,0.012,0.008l0.098-0.117c0,0,0.067-0.06,0.103-0.088
	c0.157-0.141,0.126-0.307,0.237-0.47c0.113-0.169,0.896-0.808,0.82-0.939C30.544,10.075,29.747,9.832,29.5,9.705"/>
</svg>
