<?xml version="1.0" encoding="utf-8"?>
<!-- Generator: Adobe Illustrator 16.0.0, SVG Export Plug-In . SVG Version: 6.00 Build 0)  -->
<!DOCTYPE svg PUBLIC "-//W3C//DTD SVG 1.1//EN" "http://www.w3.org/Graphics/SVG/1.1/DTD/svg11.dtd">
<svg version="1.1" id="Layer_1" xmlns="http://www.w3.org/2000/svg" xmlns:xlink="http://www.w3.org/1999/xlink" x="0px" y="0px"
	 width="3px" height="5px" viewBox="0 0 3 5" enable-background="new 0 0 3 5" xml:space="preserve">
<path fill="#FFFFFF" d="M2.413,0.736C2.135,0.501,2.222,0.909,1.956,0.192c-0.022-0.058-0.01-0.148-0.066-0.175
	c-0.012-0.006-1.61,0.594-1.85,0.684c0.107,0.236,0.319,0.885,0.426,1.154C0.737,2.553,1.01,3.25,1.283,3.948
	c0.238,0.61-0.01,0.198-0.054,0.532C1.206,4.657,1.413,4.982,1.413,4.982c0.467-0.17,0.725-0.695,1.138-0.874l0.341-0.013
	C3.033,3.963,2.931,3.127,2.82,2.981L2.596,2.836C2.533,2.666,2.726,2.499,2.56,2.28L2.335,2.135
	c-0.046-0.42,0.282,0.008,0.338-0.012c0.173-0.064-0.524-0.885-0.335-0.902c0.154-0.015,0.322,0.565,0.6,0.462
	c0.035-0.013,0-0.077,0-0.116c0-0.015-0.002-0.047-0.003-0.074c-0.12-0.04-0.229-0.087-0.297-0.155
	C2.504,1.204,2.557,0.856,2.413,0.736"/>
</svg>
