<?xml version="1.0" encoding="utf-8"?>
<!-- Generator: Adobe Illustrator 16.0.0, SVG Export Plug-In . SVG Version: 6.00 Build 0)  -->
<!DOCTYPE svg PUBLIC "-//W3C//DTD SVG 1.1//EN" "http://www.w3.org/Graphics/SVG/1.1/DTD/svg11.dtd">
<svg version="1.1" id="Layer_1" xmlns="http://www.w3.org/2000/svg" xmlns:xlink="http://www.w3.org/1999/xlink" x="0px" y="0px"
	 width="27px" height="20px" viewBox="0 0 27 20" enable-background="new 0 0 27 20" xml:space="preserve">
<path fill="#FFFFFF" d="M0.298,5.976C0.346,6.074,1.185,6.458,1.304,6.41c0.042-0.016,0.02-0.111,0.067-0.121l0.042,0.207
	c0.093,0.083,0.708,0.445,0.835,0.468c0.214,0.041,0.593-0.256,0.789-0.171C3.15,6.844,3.18,6.994,3.25,7.093
	c0.227,0.321,0.573,0.574,0.782,0.89c0.103,0.156,0.09,0.468,0.223,0.599c0.118,0.115,0.371,0.116,0.509,0.212
	C5.068,9.008,5.148,9.529,5.43,9.726c0.076,0.052,0.179-0.082,0.265-0.059C5.857,9.715,5.989,9.926,6.14,10
	c0.269,0.131,0.627,0.09,0.888,0.235c0.421,0.232,0.524,0.84,0.896,1.093c0.262,0.179,1.363,0.298,1.542,0.621
	c0.169,0.308,0.077,0.337,0.14,0.616c0.05,0.215,0.419,0.176,0.516,0.205c0.156,0.047,0.143,0.516,0.409,0.553
	c0.06,0.01,0.122-0.066,0.178-0.04c0.07,0.032,0.039,0.351,0.095,0.409c0.195,0.209,1.568,0.16,1.707,0.467
	c0.02,0.043,0.002,0.095,0.002,0.143c0.002,0.049,0.002,0.096,0.002,0.144c0.001,0.048-0.015,0.099,0.002,0.144
	c0.154,0.408,0.696,0.688,0.826,1.102c0.077,0.244,0.015,0.582,0.192,0.816c0.164,0.217,0.838,0.246,1.02,0.299l0.047,0.205
	c0.085,0.078,0.248,0.049,0.317,0.139l-0.04,0.225c0.087,0.293,0.369,0.418,0.531,0.63c0.133,0.176,0.049,0.558,0.08,0.735
	c0.118,0.68,0.963,0.566,1.419,0.736c0.093,0.035,0.297,0.036,0.297,0.036l0.034-0.019c-0.086,0.014-0.166,0.001-0.176-0.164
	c-0.009-0.143,0.229-0.351,0.264-0.494c0.016-0.068-0.064-0.135-0.049-0.203c0.022-0.141,0.135-0.222,0.167-0.338
	c-0.019-0.149-0.034-0.287-0.048-0.34c-0.004-0.014-0.005-0.018,0,0c0.01,0.039,0.037,0.155,0.051,0.205
	c0.012,0.051,0.009,0.095-0.003,0.135c0.032,0.243,0.069,0.519,0.112,0.512c0.199-0.031,0.566-0.611,0.521-0.801
	c-0.02-0.083-0.577-0.166-0.746-0.322c-0.218-0.201-0.019-0.326-0.132-0.544c-0.115-0.218-0.529-0.599-0.584-0.83
	c-0.016-0.067,0.146,0.019,0.205,0.06c0.057,0.04,0.161,0.001,0.203,0.059c0.065,0.084-0.023,0.49,0.418,0.797
	c0.02,0.014,0.482,0.342,0.511,0.271c0.044-0.113-0.302-0.755-0.316-0.896c-0.005-0.069,0.088-0.166,0.157-0.146
	c0.124,0.036-0.08,0.776,0.174,0.714c0.074-0.019-0.029-0.256,0.041-0.227c0.189,0.082-0.045,0.841,0.199,0.816
	c0.403-0.042,1.064-1.038,0.854-1.184c-0.014-0.008-0.129,0.457-0.413,0.39c-0.183-0.043,0.323-0.368,0.296-0.47
	c-0.064-0.262-0.453-0.078-0.588-0.07c-0.007,0,0.271-0.119,0.173-0.259c-0.149-0.216-0.417,0.3-0.595,0.093
	c-0.086-0.102,0.366-0.385,0.415-0.373c0.271,0.066,0.354,0.041,0.56,0.078l0.23,0.158c0.209-0.053,0.005-0.471,0.077-0.451
	l0.255,0.26c0.045,0,0.597-0.648,0.59-0.688c-0.008-0.03-0.465-0.16-0.436-0.214c0.132-0.254,0.522,0.285,0.639,0.271
	c0.111-0.013,0.273-0.355,0.371-0.418c0.09-0.059,0.56-0.039,0.51-0.237c-0.004-0.014-0.346-0.048-0.23-0.159
	c0.229-0.221,0.717-0.121,0.7-0.611c-0.005-0.117-0.649-0.252-0.64-0.271c0.027-0.055,0.145,0.006,0.178-0.045
	c0.101-0.151-0.29-0.265,0.076-0.451c0.08-0.043,0.093,0.516,0.486,0.416c0.189-0.049,1.027-1.063,1.099-1.26
	c0.066-0.185-0.308,0.203-0.32-0.135c-0.005-0.135,0.289-0.588,0.399-0.646c0.201-0.104,0.227,0.258,0.258,0.26
	c0.068,0.003,0.532-0.306,0.568-0.366c0.035-0.061-0.076-0.138-0.053-0.203c0.051-0.157,0.432-0.387,0.424-0.547
	c-0.006-0.115-0.432-0.104-0.318-0.133c0.116-0.031,0.348,0.126,0.407,0.109c0.222-0.057-0.089-0.255-0.08-0.305
	c0.001-0.007,0.454,0.292,0.353-0.094c-0.121-0.457-0.586-0.369-0.719-0.572c-0.096-0.149,0.062-0.714,0.21-0.816
	c0.104-0.072-0.229,0.439-0.085,0.568c0,0,0.378,0.005,0.379,0.006c0.063,0.04,0.023,0.227,0.092,0.203
	c0.266-0.091,0.031-0.785,0.072-1.006c0.135-0.75,0.93-2.194,1.418-2.78c0.279-0.333,0.58-0.525,0.896-0.717
	c-1.706-0.963-3.407-1.938-5.099-2.925c-0.412-0.24-1.877-1.258-2.229-1.312c-0.471-0.073-3.729,0.811-4.455,0.964
	c-0.148,0.032-1.459,0.327-1.489,0.311c-0.14-0.088-0.01-0.698-0.111-0.843c-0.166-0.238-0.656-0.398-0.885-0.618
	c-0.038-0.04-0.064-0.122-0.119-0.116c-0.203,0.015-0.185,0.506-0.488,0.442c-0.135-0.028-0.025-0.398-0.167-0.503
	C11.661,0.477,9.153,0.916,8.89,0.96C7.836,1.135,6.791,1.308,5.749,1.542C5.476,1.604,4.884,1.853,4.657,1.68
	c-0.11-0.084-0.071,0.301-0.192,0.368L4.183,2.002C4.129,2.014,3.917,2.199,3.868,2.224C3.689,2.309,3.346,2.4,3.21,2.542
	C3.096,2.659,3.166,2.928,2.952,3.031L2.756,2.964C2.26,3.072,1.658,3.587,1.214,3.838C1.124,4.3,0.15,5.676,0.298,5.976"/>
</svg>
