<?xml version="1.0" encoding="utf-8"?>
<!-- Generator: Adobe Illustrator 16.0.0, SVG Export Plug-In . SVG Version: 6.00 Build 0)  -->
<!DOCTYPE svg PUBLIC "-//W3C//DTD SVG 1.1//EN" "http://www.w3.org/Graphics/SVG/1.1/DTD/svg11.dtd">
<svg version="1.1" id="Layer_1" xmlns="http://www.w3.org/2000/svg" xmlns:xlink="http://www.w3.org/1999/xlink" x="0px" y="0px"
	 width="44px" height="18px" viewBox="0 0 44 18" enable-background="new 0 0 44 18" xml:space="preserve">
<path fill="#FFFFFF" d="M43.628,0.07c0,0-0.803,0.122-1.207,0.185c-0.227,0.033-0.152,0.073-0.318,0.167
	c-0.48,0.277-1.341,0.305-1.888,0.428c-2.282,0.51-4.572,1.001-6.866,1.475c0,0-0.097,0.064-0.146,0.098
	c-0.246,0.165-0.694,0.149-0.988,0.193c-0.844,0.125-1.686,0.261-2.526,0.4c-1.317,0.218-2.661,0.343-3.972,0.592
	c-1.191,0.227-2.321,0.509-3.531,0.647c-0.608,0.072-3.146,0.208-3.522,0.395c-0.001,0-0.223,0.252-0.223,0.252
	c-0.044,0.008-0.057-0.081-0.104-0.091c-0.434-0.088-4.244,0.729-4.976,0.869c-0.355,0.067-1.1,0.364-1.442,0.271
	c-0.198-0.054-0.036-0.201-0.496-0.175c-0.093,0.005-0.715-0.021-0.756,0.042c-0.12,0.191,0.557,0.872,0.259,1.142
	c-0.133,0.12-1.583,0.258-1.855,0.302C7.337,7.541,5.603,7.806,3.867,8.063C3.012,8.752,3.681,7.225,3.113,7.68
	C3.087,7.702,3.047,7.713,3.035,7.744C2.927,8.02,3.381,8.577,3.358,8.879C3.346,9.061,2.704,8.993,2.88,9.262
	c0.083,0.128,0.404,0.125,0.474,0.26C3.396,9.6,2.765,9.727,2.791,9.937c0.021,0.154,0.415,0.305,0.413,0.459
	c-0.002,0.064-0.282,0.195-0.321,0.254c-0.105,0.162-0.143,0.441-0.202,0.625c-0.017,0.053-0.052,0.156-0.052,0.156
	c0.12,0.109,0.149,0.139,0.27,0.25c0.416,0.388-0.214,0.043-0.375,0.297c-0.228,0.359,0.428,0.212,0.242,0.504
	c-0.041,0.064-0.299-0.014-0.349,0.044c-0.073,0.083,0.011,0.235-0.048,0.327C2.271,13.008,1.748,13,1.61,13.162
	c-0.263,0.305,0.526,0.242,0.678,0.448c0.067,0.092-0.453,0.33-0.485,0.381c-0.083,0.132,0.225,0.184,0.128,0.306
	c-0.163,0.199-0.489-0.23-0.614,0.076c-0.171,0.424,0.583,0.576,0.354,0.702c-0.585,0.323-0.303-0.282-0.565-0.249
	c-0.318,0.039-0.364,0.684-0.362,0.684c0.215-0.027,0.023-0.217,0.238-0.244c0.073-0.01,0.289,0.528,0.254,0.61
	c-0.046,0.106-0.392,0.152-0.416,0.264c-0.025,0.127,0.499,0.128,0.569,0.249c0.045,0.08,0.07,0.716,0.002,0.746
	c-0.112,0.049-0.255-0.114-0.367-0.062c-0.125,0.06-0.087,0.469-0.201,0.559c-0.079,0.062-0.383-0.027-0.441,0.053
	c-0.032,0.043,0.013,0.104,0.02,0.158C0.408,17.893,0.421,18,0.421,18c3.744-0.457,7.48-0.96,11.212-1.513
	c-0.029-0.194,0.554-0.18,0.737-0.206c0.816-0.109,1.632-0.222,2.446-0.336c3.465-0.488,6.912-1.062,10.354-1.686
	c2.285-0.378,4.568-0.773,6.848-1.188c0,0-0.223-1.066-0.133-1.591c0.088-0.511,0.986-0.029,1.156-0.555
	c0.016-0.056,0-0.114,0-0.173c0.004-0.173,0.004-0.346,0.006-0.52c0-0.057-0.02-0.117,0-0.172c0.084-0.232,1.018-1.115,1.284-1.233
	c0.158-0.07,0.359-0.039,0.521-0.106C34.912,8.696,34.933,8.578,35,8.583c0.001,0,0.216,0.172,0.216,0.172
	c0.336-0.003,0.343-0.378,0.52-0.541c0.103-0.095,0.318-0.091,0.409-0.195c0.054-0.056-0.012-0.173,0.044-0.225
	c0.064-0.059,0.188,0,0.259-0.054c0.219-0.168,0.351-0.573,0.558-0.768c0.293-0.271,0.855-0.259,0.926-0.305
	c0.287-0.19,0.204-1.127,0.205-1.128c0.157-0.122,0.406,0.078,0.539-0.008c0.068-0.044,0.039-0.374,0.081-0.45
	c0.054-0.098,0.493-0.55,0.595-0.565c0.449-0.062,0.148,0.645,0.48,0.545c0.493-0.149,0.521-0.873,0.905-1.179
	c0.126-0.097,0.564-0.44,0.7-0.482c0.287-0.087,0.545,0.445,0.777,0.259c0.154-0.122,0.437-1.173,0.569-1.435
	c0.048-0.091,0.251-0.469,0.332-0.511c0.095-0.051,0.474,0.109,0.413-0.15C43.421,1.096,43.396,0.542,43.628,0.07"/>
</svg>
