<?xml version="1.0" encoding="utf-8"?>
<!-- Generator: Adobe Illustrator 15.1.0, SVG Export Plug-In . SVG Version: 6.00 Build 0)  -->
<!DOCTYPE svg PUBLIC "-//W3C//DTD SVG 1.1//EN" "http://www.w3.org/Graphics/SVG/1.1/DTD/svg11.dtd">
<svg version="1.1" id="Layer_1" xmlns="http://www.w3.org/2000/svg" xmlns:xlink="http://www.w3.org/1999/xlink" x="0px" y="0px"
	 width="52px" height="33px" viewBox="0 0 52 33" enable-background="new 0 0 52 33" xml:space="preserve">
<path fill="none" stroke="#000000" stroke-width="0.1" stroke-miterlimit="10" d="M1.297,1.148C1.204,1.579,1.112,2.01,1.02,2.441
	c-0.154,0.725-0.982,3.748-0.909,4.25c0.021,0.15,0.256,0.691,0.345,0.834c0.065,0.105,0.263,0.167,0.31,0.281
	c0.067,0.161-0.03,0.392,0.037,0.553c0.063,0.149,0.319,0.335,0.341,0.505L1.081,9.179c0.02,0.1,0.187,0.152,0.171,0.252
	c-0.02,0.136-0.348,0.228-0.366,0.364c-0.002,0.02,0.333,0.425,0.343,0.504c0.025,0.192-0.518-0.11-0.418,0.246
	c0.048,0.17,0.472,0.292,0.579,0.441c0.107,0.15,0.058,0.447,0.182,0.582c0.178,0.193,0.571,0.226,0.724,0.468
	c0.216,0.34,0.341,0.822,0.515,1.19c0.065,0.139,0.247,0.24,0.299,0.384l0.012,0.329c0.032,0.052,0.398,0.176,0.496,0.53
	c0.079,0.288-0.145,0.674,0.204,0.91c0.081,0.056,0.231-0.026,0.289,0.055c0.05,0.072-0.166,0.377-0.005,0.435l0.327-0.158
	c0.457,0.085-0.076,0.561,0.391,0.726c0.361,0.129,0.854-0.17,1.105,0.092c0.052,0.055-0.273,0.618-0.279,0.713
	c-0.015,0.289-0.161,0.039-0.275,0.275l0.088,0.344c-0.068,0.375-0.469,0.726-0.574,1.094c-0.035,0.121,0.052,0.445-0.023,0.542
	c-0.065,0.082-0.268-0.044-0.312,0.052c-0.033,0.072,0.168,0.273,0.162,0.355C4.703,20.042,4.501,20.162,4.49,20.3
	c-0.031,0.382,0.241,0.329,0.29,0.489l-0.131,0.303c-0.003,0.088,0.125,0.152,0.109,0.237c-0.089,0.499-0.814,0.028-0.869,0.604
	c-0.014,0.15,0.215,0.323,0.217,0.477c0.007,0.287-0.29,0.296-0.391,0.473c-0.051,0.092,0.002,0.283-0.077,0.422
	c-0.025,0.045,0.099,0.02,0.147,0.027c0.1,0.018,0.209,0.003,0.296,0.055c0.234,0.135,0.153,0.549,0.496,0.635
	c0.336,0.082,0.315-0.248,0.52-0.344c0.119-0.057,0.388,0.057,0.535-0.014c0.286-0.137,0.558-0.814,0.805-0.675
	C6.512,23.033,6.89,23.547,7,23.688c0.174,0.221-0.167,0.224-0.148,0.41l0.26,0.262c0.043,0.146-0.217,0.355-0.165,0.516
	c0.032,0.1,0.16,0.148,0.186,0.25c0.071,0.275-0.048,0.62,0.077,0.884c0.001,0.002,0.26,0.261,0.262,0.263
	c0.095,0.179-0.005,0.512,0.115,0.672c0.001,0,0.224,0.037,0.224,0.039c0.08,0.096,0.191,0.559,0.191,0.684
	c0,0.264-0.237,0.338-0.314,0.49C7.531,28.47,8.09,28.748,8.18,28.893c0,0,0.022,0.33,0.023,0.33c0.114,0.088,0.619-0.455,0.9,0.148
	c0.095,0.202,0.248,0.688,0.237,0.908c-0.006,0.109-0.154,0.197-0.127,0.305c0.038,0.155,0.18,0.318,0.232,0.473
	c0.03,0.088-0.141,0.279-0.069,0.424c0.11,0.223,0.384,0.346,0.536,0.521l0.117,0.235c0.145,0.023,0.024-0.479,0.497-0.68
	c0.336-0.145,1.077,0.038,1.361,0.215l0.193,0.246c0.358,0.058,0.349-0.846,0.87-0.623c0.169,0.072,0.745,0.4,0.95,0.36
	c0.148-0.028,0.512-0.188,0.711-0.11c0.442,0.176,0.165,0.278,0.748,0.166c0.206-0.041,0.486-0.022,0.688,0.045
	c0.023,0.009,0.452,0.199,0.438,0.172c-0.124-0.239-0.339-0.155-0.196-0.516c0.088-0.221,0.231-0.093,0.304-0.228
	c0.145-0.276-0.19-0.456,0.452-0.478c0.53-0.017,0.508,1.697,1.211,1.795c0.045-0.316,0.393-3.146,0.441-3.187
	c0.009-0.006,1.325,0.183,1.463,0.199c1.403,0.188,2.807,0.368,4.211,0.54c5.49,0.673,10.997,1.222,16.511,1.645
	c2.181,0.167,4.36,0.314,6.542,0.442c0.688,0.039,1.376,0.077,2.064,0.114c0.297,0.017,0.593,0.031,0.891,0.045
	c0.077,0.005,0.234,0.013,0.234,0.013c0.074-1.999,0.225-4.049,0.225-6c0.352-6.562,0.704-13.122,1.055-19.683V6.729
	C34.954,5.882,18.081,3.761,1.456,0.398L1.455,0.409C1.455,0.409,1.349,0.902,1.297,1.148"/>
</svg>
